<svg id="prefix__Layer_1" version="1.1" viewBox="0 0 71.345 75.653" xml:space="preserve" xmlns="http://www.w3.org/2000/svg"><style>.prefix__st2,.prefix__st4,.prefix__st5{fill:#22093a;stroke:#22093a;stroke-linecap:round;stroke-linejoin:round}.prefix__st4,.prefix__st5{fill:#35ccad}.prefix__st5{fill:none;stroke:#fff}</style><g id="prefix__Layer_2_00000169542974138985213710000017012423254892142015_"><g id="prefix__Layer_1-2"><path d="M70.397 6.517a9.003 9.003 0 00-5.603-4.02 13.694 13.694 0 00-10.056.724 10.852 10.852 0 00-.278-.128C50.233.24 42.793 1.026 40.286 1.877a6.202 6.202 0 00-2.705 1.76 12.055 12.055 0 00-1.345-.73 10.703 10.703 0 00-6.324-1.81 11.252 11.252 0 00-6.4 2.323 4.742 4.742 0 00-2.054-1.32c-.559-.299-1.174-.479-1.807-.528A7.372 7.372 0 0012.84 4.89a7.08 7.08 0 00-.575-.27 6.673 6.673 0 00-6.357-.905c-2.369.889-3.894 3.623-4.663 8.357-.08.494-1.873 11.925 2.625 16.063a6.811 6.811 0 005.17 2.25 6.563 6.563 0 005.336-2.698c.221.122.449.232.682.33a6.622 6.622 0 004.95 1.26 5.781 5.781 0 004.048-2.805c.413.26.843.49 1.288.692.057.037.118.069.176.105a31.931 31.931 0 00-6.047 4.416 18.849 18.849 0 00-4.83 17.94 16.022 16.022 0 005.801 10.472 23.237 23.237 0 0011.472 4.954c1.67.29 3.32.683 4.94 1.176.81.253 2.267 1.719 3.553 3.012a34.853 34.853 0 006.358 5.39 6.6 6.6 0 003.477 1.024 6.026 6.026 0 003.662-1.242c2.64-2 3.535-5.821 2.336-9.97a19.07 19.07 0 00-1.966-4.517 21.128 21.128 0 00-2.423-3.692c4.37-1.98 6.608-5.14 6.16-8.995a7.082 7.082 0 00-3.831-5.809c.49-1.566.52-3.239.09-4.822a8.74 8.74 0 00-.574-1.584 7.09 7.09 0 00-1.267-1.848l-.078-.082a7.409 7.409 0 00-1.807-1.394 6.675 6.675 0 00-.266-4.092 9.91 9.91 0 00-.478-1.038 8.42 8.42 0 00-1.372-1.904 8.35 8.35 0 001.413-2.6 6.4 6.4 0 003.73 3.914c.536.4 1.134.707 1.77.912 3.495 1.13 8.348 1.545 11.48-.677a6.262 6.262 0 002.699-5.062 5.133 5.133 0 00-.618-2.577c.36-.57.608-1.202.734-1.864a5.014 5.014 0 00-.264-2.774A5.961 5.961 0 0070.9 11.85a5.705 5.705 0 00-.503-5.334z" opacity=".5" fill="#231f20"/><path d="M69.572 5.434a9.003 9.003 0 00-5.603-4.02 13.694 13.694 0 00-10.056.724 10.88 10.88 0 00-.278-.128C49.408-.842 41.968-.057 39.461.794a6.202 6.202 0 00-2.705 1.76 12.055 12.055 0 00-1.344-.73 10.703 10.703 0 00-6.325-1.81 11.252 11.252 0 00-6.4 2.323 4.742 4.742 0 00-2.054-1.32C20.074.719 19.46.539 18.827.49a7.372 7.372 0 00-6.813 3.318c-.19-.1-.381-.19-.575-.27a6.673 6.673 0 00-6.357-.905C2.713 3.521 1.188 6.255.42 10.99c-.08.494-1.873 11.925 2.625 16.063a6.811 6.811 0 005.17 2.25 6.563 6.563 0 005.336-2.698c.222.122.449.232.682.33a6.622 6.622 0 004.95 1.26 5.781 5.781 0 004.048-2.805c.413.26.843.49 1.288.692.057.037.118.069.176.105a31.932 31.932 0 00-6.047 4.416 18.849 18.849 0 00-4.83 17.94 16.023 16.023 0 005.802 10.472 23.237 23.237 0 0011.471 4.954c1.67.29 3.32.683 4.94 1.176.81.253 2.267 1.719 3.553 3.012a34.853 34.853 0 006.358 5.39 6.6 6.6 0 003.477 1.024 6.025 6.025 0 003.662-1.242c2.64-2 3.535-5.821 2.336-9.97a19.07 19.07 0 00-1.966-4.517 21.127 21.127 0 00-2.423-3.692c4.37-1.98 6.608-5.14 6.16-8.995a7.082 7.082 0 00-3.831-5.809c.49-1.566.52-3.239.09-4.822a8.74 8.74 0 00-.574-1.584 7.09 7.09 0 00-1.267-1.848 7.409 7.409 0 00-1.885-1.476 6.675 6.675 0 00-.265-4.092 9.91 9.91 0 00-.479-1.038 8.419 8.419 0 00-1.372-1.904 8.35 8.35 0 001.413-2.6 6.4 6.4 0 003.73 3.914c.536.4 1.134.707 1.77.912 3.495 1.13 8.348 1.545 11.48-.677a6.262 6.262 0 002.699-5.062 5.133 5.133 0 00-.617-2.577c.359-.57.607-1.202.733-1.864a5.014 5.014 0 00-.264-2.774 5.961 5.961 0 001.527-2.085 5.705 5.705 0 00-.503-5.334z" fill="#fff"/><path class="prefix__st2" d="M21.7 34.165c2.377-2.36 8.929-6.555 14.55-7.505 5.545-.936 8.39-2.802 9.96 1.15 1.45 3.65-4.663 7.188-4.663 7.188s7.071-4.18 8.521 1.403c1.325 5.1-4.978 7.637-4.978 7.637s7.932-3.53 8.632 2.52c.664 5.734-9.955 6.984-9.955 6.984 2.927 2.45 6.763 5.469 8.298 10.786 1.471 5.1-1.502 7.957-4.27 6.243-4.706-2.914-7.576-7.786-10.707-8.767-6.476-2.029-9.223-.886-15.329-5.567-5.777-4.43-6.644-15.53-.058-22.072z"/><path d="M21.125 33.086c2.376-2.36 8.927-6.556 14.548-7.505 5.545-.937 8.967-1.723 10.537 2.23 1.45 3.65-5.24 6.108-5.24 6.108s7.648-3.1 9.098 2.482c1.325 5.1-5.555 6.557-5.555 6.557s8.159-2.46 8.86 3.59c.663 5.735-10.182 5.914-10.182 5.914 2.927 2.451 6.763 5.47 8.297 10.787 1.472 5.099-1.502 7.957-4.27 6.242-4.705-2.914-7.575-7.785-10.706-8.766-6.476-2.03-10.247-.356-15.33-5.568s-6.643-15.53-.057-22.071z" fill="#fcc707" stroke="#22093a" stroke-linecap="round" stroke-linejoin="round"/><path class="prefix__st2" d="M30.746 4.308c3.472-.198 8.748 3.187 8.387 9.937s-4.751 9.883-8.55 10.071c-3.427.17-7.992-2.45-7.846-9.644.12-5.894 2.91-10.074 8.01-10.364z"/><path class="prefix__st2" d="M31.278 9.536c.502-.256 1.206 1.052 1.046 4.18s-.84 4.779-1.388 5.047c-.495.241-1.108-.749-.973-4.07.111-2.721.578-4.78 1.315-5.157zM7.77 6.708C4.499 7.936.98 25.803 8.224 25.802c4.871 0 3.545-9.018 3.545-9.018s2.801 8.595 6.88 7.954c4.676-.735 4.383-20.15.634-20.438-5.05-.39-4.793 8.182-4.793 8.182s-2.66-7.297-6.718-5.774zM42.048 4.907c-2.749.934-2.212 4.209-2.771 10.945-.473 5.688 1.637 6.516 3.62 6.498 3.963-.035 3.311-7.606 3.311-7.606s8.42 2.552 8.461-6.277c.024-4.958-9.796-4.52-12.621-3.56z"/><path class="prefix__st2" d="M46.397 8.499s2.44-.306 2.108.97-2.297 1.206-2.297 1.206l.189-2.176zM66.587 7.245c-2.323-3.84-8.797-3.254-10.879-.018-1.564 2.431-4.555 13.812-.104 15.25s9.52.94 9.603-2.494c.062-2.509-5.565-3.172-5.565-3.172s5.26.74 5.739-1.823-5.089-2.723-5.089-2.723 8.781-.91 6.295-5.02z"/><path class="prefix__st4" d="M29.298 3.51c3.471-.198 8.747 3.187 8.387 9.936s-4.752 9.883-8.55 10.072c-3.427.17-7.993-2.451-7.847-9.645.12-5.894 2.91-10.073 8.01-10.364z"/><path class="prefix__st2" d="M29.83 8.738c.501-.257 1.205 1.052 1.046 4.178s-.84 4.78-1.388 5.048c-.495.242-1.109-.748-.973-4.07.11-2.72.578-4.78 1.315-5.156z"/><path class="prefix__st4" d="M6.322 5.91c-3.273 1.227-4.417 19.247.452 19.093s3.545-9.018 3.545-9.018 2.802 8.595 6.88 7.954c4.676-.735 5.118-19.672 1.37-19.96-5.052-.39-5.529 7.705-5.529 7.705s-2.659-7.297-6.718-5.775zM40.6 4.108c-2.75.935-2.212 4.21-2.772 10.946-.472 5.687 1.638 6.515 3.62 6.498 3.964-.035 3.312-7.607 3.312-7.607s8.42 2.552 8.46-6.277c.024-4.958-9.796-4.52-12.62-3.56z"/><path class="prefix__st2" d="M44.948 7.7s2.44-.305 2.108.971-2.296 1.205-2.296 1.205l.188-2.176z"/><path class="prefix__st4" d="M65.139 6.446c-.724-2.517-8.797-3.254-10.88-.018-1.564 2.432-4.554 13.812-.104 15.25s9.52.94 9.604-2.494c.061-2.508-5.566-3.172-5.566-3.172s5.261.741 5.74-1.823-5.09-2.722-5.09-2.722 7.623-.405 6.296-5.02z"/><path class="prefix__st5" d="M8.612 8.18c-.4-.33-1.5-.544-1.823 0-.88 1.475-1.367 3.657-1.367 7.714M29.494 5.632c-2.37-.286-5.217 1.564-5.932 5.418M40.06 13.375c0 1.188-.85 5.1.678 5.822M42.145 5.375a2.285 2.285 0 00-1.864 2.342M53.819 16.577s-.606 2.563 1.217 3.247c1.207.427 2.47.676 3.748.74M23.666 54.453c.264.238.53.457.802.66M21.432 36.008c-2.068 2.674-3.585 6.837-1.238 13.152a14.22 14.22 0 001.931 3.602M24.47 33.078c-.282.213-.59.455-.91.727M40.281 26.74c1.862-.08 3.299.053 3.61 1.391M45.711 45.122s3.705-1.12 4.762.683M5.422 17.999c.069 1.042.202 2.08.399 3.106M23.32 13.513a11.58 11.58 0 00.695 4.244"/></g></g></svg>