<svg width="743.392" height="763.616" viewBox="0 0 196.689 202.04" xmlns="http://www.w3.org/2000/svg">
    <path
        d="M31.403 201.694c-.002-.263-.117-.409-.256-.323-.606.374-3.064.352-3.492-.032-.292-.262-.494-.298-.61-.11-.3.483-1.083.31-1.731-.38-.342-.363-.842-.66-1.111-.66-.28 0-.598-.286-.742-.664-.139-.365-.344-.649-.457-.63-.631.102-1.033-.096-1.266-.625-.143-.328-.529-.713-.856-.857-.327-.143-.595-.352-.595-.463 0-.11-.179-.201-.397-.201a.393.393 0 01-.397-.388c0-.213-.226-.508-.502-.656-.423-.227-.53-.158-.68.44-.14.556-.23.626-.42.325-.197-.312-.243-.292-.246.108-.003.335-.135.441-.415.334-.226-.087-.348-.057-.273.066.172.277-.624 1.009-2.412 2.22-1.413.957-2.328 1.098-3.4.525-.297-.16-1.077-.353-1.733-.43-.656-.077-1.372-.209-1.59-.293-.218-.083-.866-.193-1.44-.243-.575-.05-1.223-.156-1.441-.235a10.867 10.867 0 00-1.19-.302c-1.301-.26-1.385-.29-1.826-.656-.233-.193-.424-.616-.424-.94 0-.586.736-1.463 1.228-1.463.144 0 .603-.357 1.021-.794.418-.436.98-.794 1.249-.794.268 0 .558-.183.644-.406.085-.224.528-.598.984-.83.455-.234.887-.503.96-.6.072-.095.527-.45 1.01-.787.935-.653 2.793-.823 3.313-.303.154.154.554.28.889.28.385 0 .608.158.608.43 0 .308.094.355.331.165.189-.15.559-.173.86-.051.841.339.878.304.782-.731-.155-1.67.83-5.42 1.56-5.934.132-.093.162-.294.068-.446-.151-.245-.035-.666.78-2.825.11-.291.177-.678.147-.86-.029-.182.071-.33.223-.33.152 0 .277-.41.277-.911 0-.5.127-.99.282-1.085.156-.096.22-.338.144-.537-.076-.198-.023-.433.119-.52.141-.088.191-.265.111-.395s-.035-.449.1-.71c.135-.26.376-.77.536-1.134.712-1.618 1.255-2.18 1.949-2.013.254.061.463.01.463-.115 0-.22 1.56-.185 5.424.12 1.842.145 2.364.197 6.841.68 1.29.138 2.513.392 2.719.563.206.171.441.244.523.162.233-.233 1.65.343 1.741.708.114.458 3.434 3.229 4.137 3.452.316.1.575.353.575.562 0 .208.149.381.33.384.407.007 3 2.355 2.92 2.644-.031.114.207.275.53.357.322.082.755.421.962.754.395.635.56 2.59.219 2.59-.11 0-.198.168-.198.375 0 .206-.25.95-.555 1.653-.305.703-.58 1.622-.613 2.04-.032.42-.24.896-.464 1.059-.238.175-.461.88-.541 1.714-.075.78-.276 1.503-.446 1.608-.17.106-.233.39-.14.634.095.248.041.442-.124.442-.16 0-.292.225-.292.5 0 .276-.182.57-.404.656-.285.11-.353.354-.233.833.118.47.019.848-.324 1.235-.357.402-.403.59-.164.673.182.063.33.22.33.35 0 .128-.178.165-.396.082-.251-.097-.397.004-.397.272 0 .245-.218.426-.513.426-.283 0-.593.127-.689.282-.096.156-.34.219-.544.14-.204-.077-.37-.054-.37.053 0 .106-.447.191-.993.188-.571-.003-1.129.163-1.314.393-.282.348-.324.338-.331-.082-.006-.354-.144-.438-.522-.318-.968.307-3.455.367-3.455.083 0-.17-.147-.153-.384.044-.212.175-.618.244-.904.154-.286-.091-.586-.057-.668.075-.081.132-.461.18-.844.107-.43-.083-.785.007-.928.233-.184.29-.234.266-.237-.111zm-4.632-5.926a121.6 121.6 0 001.173-3.782c.316-1.091.747-2.322.957-2.735.211-.414.317-.86.235-.992-.082-.133.037-.506.263-.83.227-.323.413-.84.413-1.146 0-.308.082-.641.183-.742.543-.544.29-1.342-.73-2.303-.596-.56-1.282-1.082-1.525-1.16-.243-.077-.601-.499-.795-.937-.194-.438-.492-.797-.661-.797-.17 0-.726-.358-1.235-.793-.51-.436-1.045-.796-1.19-.8-.146-.004-.455-.39-.686-.86-.49-.993-1.21-1.164-1.083-.257.048.348-.083.66-.315.75-.218.083-.337.308-.264.498.073.191-.182 1.26-.567 2.375-.385 1.115-.747 2.408-.806 2.873-.093.745-.347 1.403-1.222 3.17-.13.261-.163.59-.076.731.088.142-.037.933-.277 1.758l-.436 1.5 1.014.868c.557.477 1.093.872 1.19.877.098.005.707.516 1.352 1.135 2.533 2.426 3.327 3.042 3.585 2.784.167-.167.322-.055.44.318.245.77.362.604 1.063-1.503zm-4.83-3.11c-.74-.739-.739-.825.035-3.437.348-1.171.842-2.86 1.099-3.75.622-2.16 1.17-2.872 2.04-2.653.966.242 1.126 1.24.478 2.973-.295.788-.484 1.432-.42 1.432.063 0-.115.506-.396 1.125-.28.618-.513 1.414-.516 1.767-.008.848-1.08 3.202-1.442 3.166-.156-.015-.551-.296-.879-.623zm-8.486 3.694c.286-.364.67-.662.855-.662.185 0 .474-.303.642-.674.416-.91.393-.997-.222-.837-.29.076-.529.024-.529-.117 0-.14-.124-.178-.276-.084-.152.093-.42.053-.595-.09-.53-.431-3.569-.628-3.813-.247-.116.181-.895.79-1.732 1.354-.837.563-1.521 1.06-1.521 1.105 0 .045.387.081.86.08.473 0 1.217.06 1.653.134.437.074 1.317.2 1.957.28.64.079 1.226.206 1.301.282.32.32.934.093 1.42-.524zm29.935-14.028c-.68-.652-1.38-1.186-1.555-1.186-.454 0-.988-.72-.782-1.053.096-.156.077-.266-.043-.245-.572.1-.88-.064-.88-.466 0-.242-.08-.361-.177-.264-.097.097-.395-.02-.661-.261-.267-.241-.485-.346-.485-.233 0 .113-.177.058-.394-.121-.216-.18-.317-.451-.223-.603.095-.154.043-.197-.12-.096-.159.098-.524-.073-.81-.38-.387-.415-.849-.561-1.801-.57-.705-.007-1.4-.082-1.546-.167-.146-.086-.622-.18-1.059-.21-.436-.03-1.686-.131-2.778-.224-1.091-.093-2.362-.158-2.824-.144-.462.013-.916-.098-1.008-.248-.092-.149-.488-.27-.88-.268l-.712.003.794.629c.437.346 1.127.94 1.535 1.32.408.38.835.69.95.69.113 0 .732.507 1.375 1.125.642.618 1.392 1.243 1.667 1.389.274.146.483.354.463.463-.02.11.2.436.49.726.549.548 1.51.714 5.366.927 1.131.063 2.226.207 2.432.322.207.114 1.395.236 2.64.27l2.265.062zm.71 19.32c0-.219.046-.398.103-.398.057 0 .173.179.256.397.084.219.037.397-.104.397-.14 0-.256-.178-.256-.397zm.714-.578c-.072-.12.184-.446.57-.727l.7-.511-.527.643c-.29.354-.545.68-.569.727-.023.046-.101-.014-.174-.132zm3.122-.349c.09-.145.216-.264.28-.264.064 0 .116.119.116.264 0 .146-.126.265-.28.265-.154 0-.206-.12-.116-.265zm4.56-.562c.179-.18.392-.262.474-.18.081.081-.066.229-.327.328-.377.144-.407.114-.148-.148zm2.308-.514c-.096-.155-.118-.339-.048-.408.069-.07.196.058.282.282.18.466.027.548-.234.126zm-3.032-.247a.265.265 0 01.53 0 .265.265 0 01-.53 0zm-.794-.81c0-.153.12-.206.265-.116.145.09.264.216.264.28 0 .065-.119.117-.264.117-.146 0-.265-.126-.265-.28zm-.926-.248c-.09-.146-.037-.265.117-.265s.28.12.28.265c0 .145-.052.265-.117.265-.064 0-.19-.12-.28-.265zm-2.381-.265c.09-.145.216-.264.28-.264.064 0 .117.119.117.264 0 .146-.126.265-.28.265-.154 0-.207-.12-.117-.265zm3.836 0c0-.145.127-.264.28-.264.155 0 .207.119.117.264-.09.146-.216.265-.28.265-.064 0-.117-.12-.117-.265zm-.873-.168c-.088-.087.019-.338.237-.556.514-.514.692-.336.258.258-.184.252-.407.386-.495.298zm-1.11-.625c-.09-.146-.038-.265.116-.265s.28.12.28.265c0 .145-.053.264-.117.264s-.19-.119-.28-.264zm4.1.164c0-.055.208-.263.463-.463.42-.329.43-.32.1.1-.346.44-.563.581-.563.363zm-3.307-.694c-.09-.145-.038-.264.117-.264.154 0 .28.119.28.264 0 .146-.053.265-.117.265s-.19-.119-.28-.265zm2.513 0c0-.145.126-.264.28-.264.155 0 .207.119.117.264-.09.146-.216.265-.28.265-.064 0-.117-.119-.117-.265zm-6.593-.418c.012-.309.075-.371.16-.16.076.19.067.419-.021.507-.088.088-.15-.069-.14-.347zm2.625.154c0-.146.119-.265.264-.265a.265.265 0 010 .53.265.265 0 01-.264-.265zm2.86.084c.191-.077.42-.067.508.02.087.088-.069.151-.348.14-.308-.013-.37-.076-.16-.16zm-.85-.307c-.092-.149-.038-.35.12-.447.406-.251.669.093.33.433-.19.19-.339.194-.45.014zm2.752-.042c0-.145.126-.264.28-.264.154 0 .207.119.117.264-.09.146-.216.265-.28.265-.064 0-.117-.12-.117-.265zm57.529-.616c-.281-.185-.809-.314-1.173-.287-.363.027-.877-.064-1.142-.204-.264-.139-.978-.296-1.587-.35a22.456 22.456 0 01-2.43-.394c-.728-.163-1.59-.291-1.918-.284-.328.007-.596-.114-.596-.268 0-.154-.267-.246-.595-.204-.327.043-.72 0-.874-.097-.154-.095-.75-.231-1.323-.302-.574-.07-1.38-.256-1.789-.413-.41-.157-1.07-.285-1.468-.285-.398 0-.853-.13-1.012-.288-.194-.194-.342-.2-.455-.015-.111.18-.475.143-1.073-.107-.499-.208-1.08-.312-1.29-.23-.213.08-.465.02-.561-.137-.096-.156-.467-.21-.824-.12-.357.09-.812.027-1.011-.139-.2-.165-.794-.317-1.32-.337-.526-.02-.957-.148-.957-.286 0-.138-.31-.172-.69-.077a1.67 1.67 0 01-1.302-.23c-.44-.288-.643-.314-.717-.092-.078.235-.292.237-.88.008-.427-.165-1.312-.368-1.967-.45-.655-.08-1.512-.384-1.904-.674-.404-.297-.781-.416-.87-.273-.185.3-2.244.063-2.704-.31-.176-.141-.444-.18-.596-.087-.152.094-.276.044-.276-.11s-.333-.28-.74-.28c-.408 0-.871-.13-1.03-.287-.198-.2-.34-.203-.458-.01-.117.188-.393.193-.86.015-.38-.144-.745-.207-.812-.139-.068.067-.438 0-.823-.149-.386-.149-1.118-.32-1.627-.382-1.267-.152-2.463-.403-2.762-.58-.137-.082-.634-.175-1.104-.206-.47-.031-1.01-.153-1.198-.27-.19-.116-.719-.22-1.177-.23-.458-.012-1.027-.182-1.265-.379-.237-.197-.431-.286-.431-.197 0 .088-.566-.059-1.257-.328-.691-.268-1.395-.439-1.563-.379-.168.06-.493-.158-.721-.484-.229-.326-.494-.515-.59-.42-.28.28-2.553-1.871-2.956-2.797a25.44 25.44 0 00-.62-1.321c-.136-.261-.184-.578-.106-.705.079-.128.018-.273-.136-.325-.263-.087-.562-1.777-.623-3.524-.015-.436-.11-.856-.21-.931-.316-.24-.573-1.973-.847-5.708-.043-.596-.159-1.213-.257-1.371-.097-.158-.056-.363.092-.454.182-.112.174-.345-.021-.71-.16-.3-.335-1.275-.39-2.168-.054-.892-.167-2.039-.252-2.548a28.14 28.14 0 01-.24-2.117c-.047-.655-.222-2.084-.389-3.175-.738-4.822-.833-5.518-.984-7.144a70.843 70.843 0 01-.196-2.58c-.02-.472-.103-.86-.183-.86s-.149-.446-.154-.992c-.013-1.38-.269-3.395-.63-4.96a25.93 25.93 0 01-.414-2.25c-.06-.509-.23-1.938-.38-3.174-.15-1.237-.332-2.785-.405-3.44a36.01 36.01 0 00-.28-1.984c-.08-.437-.15-1.032-.156-1.323-.006-.291-.184-1.52-.396-2.73-.212-1.21-.423-2.698-.47-3.307-.046-.609-.167-1.31-.268-1.557-.102-.248-.108-.576-.014-.728.095-.153.081-.424-.03-.603a2.086 2.086 0 01-.246-.728 3.805 3.805 0 00-.239-.864c-.12-.285-.078-.464.107-.464.207 0 .224-.147.053-.466-.138-.257-.253-.763-.256-1.125a8.203 8.203 0 00-.143-1.319 35.314 35.314 0 01-.288-1.72c-.083-.582-.218-1.274-.301-1.538-.083-.265-.19-.86-.237-1.323-.1-.97-.397-3.181-.557-4.15-.06-.364-.152-1.316-.203-2.117-.052-.8-.177-1.872-.278-2.381a24.628 24.628 0 01-.293-2.25 95.2 95.2 0 00-.246-2.513 49.072 49.072 0 01-.206-2.976c-.038-.982-.158-1.786-.267-1.786-.109 0-.198.119-.198.264 0 .146-.175.265-.388.265-.213 0-.515.238-.67.53-.156.29-.458.528-.671.528-.213 0-.388.12-.388.265 0 .146-.178.265-.397.265-.218 0-.397.1-.397.222 0 .213-1.428.98-1.48.794-.014-.05-.193.04-.397.2-.768.598-2.835.958-4.518.785-2.167-.222-2.413-.267-2.804-.508-.179-.111-.326-.131-.326-.045 0 .087-.267.01-.595-.17-.327-.18-.743-.352-.924-.382-.404-.068-2.185-1.722-2.185-2.03 0-.124-.297-.615-.661-1.092-.364-.477-.662-1.176-.662-1.554 0-.378-.103-.751-.23-.83-.258-.159-.195-2.51.1-3.725.48-1.975 1.05-3.417 1.625-4.099.342-.407.622-.82.622-.917 0-.32 2.242-2.789 2.534-2.789.156 0 .564-.298.906-.661.341-.364.764-.662.94-.662.174 0 .463-.175.64-.39.44-.528 3.286-1.95 4.88-2.435.92-.28 1.194-.463.935-.623-.208-.128-.496-.118-.666.023-.165.137-.854.325-1.53.418-.677.093-1.23.281-1.23.42 0 .137-.15.197-.331.132-.182-.065-.655.045-1.05.245-.396.2-.813.34-.927.313-.113-.028-.65.17-1.193.44-.956.476-1.002.476-1.52.007-.295-.266-.536-.744-.536-1.063 0-.55.73-1.455 1.173-1.455.113 0 .804-.301 1.536-.668.756-.38 1.543-.601 1.824-.512.293.093.494.03.494-.156 0-.192.257-.264.662-.187.363.07.661.024.661-.101 0-.126.536-.228 1.19-.228.701 0 1.191-.122 1.191-.296 0-.165.234-.234.53-.157.44.115.529.008.529-.63 0-.423-.09-.78-.199-.791-.109-.012-.555-.1-.992-.195-.847-.185-3.435-.174-6.874.028-1.738.102-2.169.048-2.439-.307-.59-.776-.407-1.53.458-1.89.441-.182.877-.257.968-.166.091.091.336.024.544-.148.424-.352 6.335-.459 7.529-.136l.715.193.023-2.581c.022-2.362.148-4.434.27-4.434.028 0 .1-.577.16-1.283.061-.706.23-1.507.377-1.78.146-.273.323-1.184.392-2.024.07-.84.267-1.799.44-2.13.265-.51.18-.927-.548-2.708-.473-1.158-.793-2.214-.712-2.346.082-.133-.022-.307-.231-.387-.21-.08-.456-.599-.547-1.152-.091-.554-.29-1.263-.442-1.576-.152-.313-.223-.73-.157-.926.067-.196-.035-.476-.225-.621-.19-.146-.4-.681-.469-1.19-.068-.51-.42-2.578-.782-4.596-.362-2.018-.6-3.822-.528-4.008.071-.187.028-.402-.096-.478-.26-.16-.242-3.322.03-5.488.2-1.58.983-3.158 1.57-3.158.198 0 .758-.198 1.243-.44 1.19-.594 7.386-.63 8.105-.048.192.156.366.155.463-.004.146-.235.815-.178 1.743.15.219.077.93.175 1.58.217.65.042 1.221.193 1.27.337.047.143.301.205.564.136.262-.069 1 .026 1.64.21.64.185 1.46.368 1.82.407.362.039.779.23.927.423.148.194.55.371.894.394.344.023.846.241 1.116.486.289.262.72.384 1.048.298.35-.091.747.043 1.067.364.28.28.54.482.576.448.21-.194 2.58.96 2.58 1.258 0 .459.94.432 2.065-.06.482-.21 1.167-.413 1.522-.451.356-.038.726-.148.823-.245.097-.097.446-.176.777-.176s.677-.12.767-.267c.091-.147.503-.242.916-.21.412.03.921-.086 1.131-.26.21-.174.46-.238.556-.143.096.096.174.036.174-.134s-.179-.309-.397-.309c-.218 0-.397-.126-.397-.28 0-.154-.11-.212-.245-.128-.136.083-.323-.091-.417-.387-.094-.296-.77-.842-1.5-1.212-.732-.371-1.264-.74-1.184-.82.08-.08-.355-.56-.966-1.066a97.323 97.323 0 01-2.7-2.361c-.873-.793-1.883-1.588-2.246-1.767-.363-.18-.7-.562-.75-.849-.05-.287-.29-.676-.531-.865-.243-.188-.456-.456-.474-.595-.018-.14-.062-.283-.096-.32-.151-.158-.306-2.033-.275-3.322.02-.847.239-1.77.55-2.324.283-.505.515-1.104.515-1.332 0-.228.247-.76.548-1.182.3-.423.472-.769.381-.769-.09 0 .05-.37.313-.82.547-.94 3.821-3.478 4.647-3.604.304-.046.683-.193.843-.326.438-.363 14.213-.106 14.446.27.132.214.335.222.697.028.281-.15.667-.177.857-.06.19.118.558.158.818.09.26-.068.724.01 1.03.174.416.223.556.22.556-.009 0-.208.277-.247.86-.12.473.102 1.574.242 2.447.31l2.91.227c2.048.159 9.84.458 11.907.457 1.018 0 1.927.12 2.019.267.108.174.325.179.62.014.471-.264 1.726-.144 1.726.165 0 .097.555.144 1.233.104.678-.04 1.397.065 1.599.232.245.203.453.216.632.037.337-.337 2.945-.107 3.237.286.157.211.257.2.353-.037.16-.395 1.05-.44 1.281-.065.09.146.473.188.85.094.457-.115.625-.078.507.113-.2.324.839.284 1.383-.052.378-.234 2.155.03 2.154.32 0 .102.923.168 2.05.146 1.129-.022 2.17.051 2.316.163.146.111 1.307.188 2.58.172 1.273-.017 2.315.046 2.315.141 0 .095.744.136 1.653.09.909-.044 1.75-.02 1.868.053.119.074 1.072.179 2.118.234 2.202.117 4.018.282 4.018.364 0 .07 1.015.237 2.25.368 1.824.195 4.563 1.014 5.026 1.504.073.077.655.37 1.294.653.851.375 1.268.763 1.56 1.448.218.514.45.786.513.604.065-.182.236-.33.382-.33.318 0 2.072 1.767 2.072 2.087 0 .125.417.582.926 1.017.51.435.926.908.926 1.051 0 .412.997 1.205 1.288 1.025.145-.089.341-.035.437.12.12.194.277.197.503.009.23-.191.48-.163.83.093.306.224.84.311 1.373.224.566-.091 1.033-.004 1.33.251.413.355 1.18.72 1.52.725.36.005 1.648.826 2.16 1.376.318.341.954.918 1.413 1.282 1.374 1.088 2.243 1.935 2.243 2.187 0 .13.18.376.401.546.22.17.77.786 1.222 1.368.77.992.825 1.216.892 3.572.107 3.782.107 3.784.458 3.901.513.172 4.623 4.334 4.45 4.508-.086.085.203.306.642.49.44.185.799.47.799.635 0 .345 1.527 1.883 2.506 2.524.365.24.599.54.52.67-.08.129.159.373.53.543.373.17.677.397.677.507 0 .11.397.608.882 1.108.485.5.958 1.106 1.051 1.348.093.242.288.409.433.371.418-.108 2.636 2.466 2.479 2.877-.094.244-.008.317.251.217.247-.095.733.247 1.312.923.505.59 1.026 1.078 1.158 1.083.131.005.656.484 1.165 1.066.51.58 1.683 1.84 2.609 2.798 1.913 1.98 3.798 4.552 3.587 4.893-.078.126-.04.23.082.23.353 0 .348 1.152-.006 1.377-.229.145-.232.203-.013.206.316.004.302 3.322-.016 3.639-.086.087-.157.503-.157.926 0 .423-.174.942-.386 1.154-.212.212-.322.551-.244.754.077.202-.063.679-.312 1.059-.249.38-.38.763-.293.85.087.088-.075.458-.361.821-.287.364-.52.876-.52 1.138 0 .261-.239.551-.53.643-.291.093-.53.359-.53.592 0 .232-.072.35-.161.26-.09-.088-.536.189-.992.617-.457.428-.976.778-1.153.78-.177 0-.814.257-1.415.57-.829.432-1.14.49-1.294.242-.15-.242-.246-.212-.371.114-.093.243-.318.388-.5.323s-.553-.004-.825.136c-.939.484-8.037.655-15.567.376-3.458-.129-3.634-.11-3.795.395-.21.663-.13.742.828.802.424.027.92.16 1.1.295.18.136.736.17 1.236.077.54-.102.979-.057 1.081.11.097.155.623.225 1.185.158.557-.067 1.087-.048 1.178.043.09.091.427.205.748.254.32.05.689.196.819.326s.375.183.544.118c.312-.12.932.383 1.86 1.51.406.494.503.982.463 2.348-.028.95-.058 2.053-.068 2.453-.009.4-.106.728-.215.728-.11 0-.165.438-.122.974.042.535-.05 1.127-.206 1.314-.155.187-.228.492-.163.68.066.186.02.607-.1.934-.122.33-.118.595.01.595.254 0 .228 3.156-.03 3.574-.187.302-.467 2.451-.62 4.76-.058.874-.22 2.065-.359 2.647-.298 1.245-.553 4.384-.695 8.537-.055 1.64-.174 3.098-.263 3.242-.089.145-.167.768-.174 1.385-.007.618-.131 1.27-.277 1.45-.146.18-.193.519-.103.752.09.233.076.562-.03.731-.107.169-.218.664-.248 1.1-.03.437-.119 1.568-.196 2.514a90.867 90.867 0 00-.197 3.109c-.031.764-.137 1.389-.237 1.389-.1 0-.152.655-.116 1.455.035.8-.01 1.455-.103 1.456-.092 0-.188.922-.214 2.05-.04 1.78-.219 3.903-.328 3.903-.02 0-.088 1.012-.153 2.249-.064 1.236-.198 2.844-.296 3.571-.1.728-.17 1.541-.156 1.808.013.267-.078.753-.202 1.08-.126.33-.126.76 0 .962.13.211.114.5-.038.683-.145.175-.317 1.25-.383 2.39-.066 1.14-.186 2.37-.267 2.735-.08.363-.189 1.554-.24 2.646-.05 1.09-.165 2.282-.254 2.645-.15.61-.266 1.639-.54 4.763l-.23 2.6c-.069.774-.195 1.479-.282 1.565-.086.086-.156.97-.156 1.964 0 .995-.09 1.808-.199 1.808-.109 0-.207.387-.219.86-.118 4.91-.223 6.467-.453 6.758-.187.237-.176.437.035.649.376.375.407.822.042.597-.383-.237-.326.758.066 1.156.265.27.252.32-.066.252-.218-.047-.4.093-.404.312a1.782 1.782 0 01-.238.766c-.127.204-.257.825-.288 1.382-.032.556-.278 1.342-.548 1.747-.27.404-.457.892-.416 1.083.058.277-.045.286-.497.044-.518-.278-.553-.253-.384.28.12.377.088.524-.089.415a.323.323 0 00-.443.103c-.093.15-.267.213-.388.139-.12-.075-.291.055-.38.287-.1.258-.329.36-.59.26-.33-.127-.393-.04-.282.384.12.462.08.497-.253.22-.315-.261-.438-.262-.599-.003-.11.18-.459.347-.773.37-.315.024-.572.15-.572.28 0 .13-.165.173-.366.096-.202-.077-.619.036-.926.251-.308.216-.56.323-.56.238 0-.085-.35.027-.777.248-.427.22-.964.33-1.193.242-.305-.117-.373-.044-.252.27.126.328.054.386-.308.247-.377-.144-.435-.084-.288.3.16.415.127.432-.239.128-.349-.29-.46-.29-.638-.004-.118.192-.347.266-.509.166-.161-.1-.296-.026-.298.165-.003.283-.044.283-.222.003-.173-.274-.287-.26-.562.072a.795.795 0 01-.877.246c-.437-.138-.498-.08-.343.325.15.396.122.428-.146.163-.481-.478-.726-.406-.576.169.072.274.002.578-.154.675-.172.106-.226.023-.137-.208.08-.211.032-.455-.108-.542-.14-.086-.32.012-.399.218-.092.24-.355.32-.733.22-.487-.127-.558-.07-.407.323.158.412.125.429-.24.126-.334-.277-.467-.282-.626-.024-.112.18-.31.302-.443.271-.132-.031-.578.082-.99.253-.413.17-.86.241-.992.159-.134-.082-.243-.01-.243.161 0 .181-.221.253-.529.173-.291-.076-.53-.03-.53.101 0 .132-.23.24-.513.24-.282 0-.584.114-.67.253-.086.14-.35.179-.588.088-.314-.12-.372-.07-.212.188.16.26.1.31-.222.186-.297-.114-.44-.032-.44.252 0 .362-.062.37-.44.058-.327-.27-.467-.282-.546-.048-.059.174-.297.243-.53.154-.279-.107-.358-.058-.233.144.123.2.047.252-.222.149-.277-.106-.417.002-.431.334-.012.278-.079.348-.154.16-.163-.401-.884-.443-.884-.05 0 .154-.114.21-.253.123-.302-.186-1.37.372-1.696.885-.187.296-.268.299-.443.017-.173-.28-.29-.282-.618-.009-.223.185-.527.262-.675.17-.147-.09-.54.01-.871.226-.867.563-3.082 1.27-3.386 1.082-.143-.088-.26-.04-.26.105 0 .146-.238.22-.529.163-.29-.056-.529.016-.529.16 0 .143-.149.236-.33.207-.183-.03-.57.036-.86.146l-1.241.464c-.392.145-.837.188-.99.093-.167-.103-.215-.009-.12.24.087.225.026.41-.135.41-.16 0-.293-.112-.293-.249s-.319-.083-.708.119c-.39.202-.807.307-.926.233-.12-.074-.367-.041-.549.072-.181.114-.892.23-1.58.26-1.428.061-1.882.26-1.614.708.129.215.06.209-.222-.019-.299-.242-.759-.267-1.704-.094-1.495.274-6.858.243-7.141-.04-.105-.106-.33-.077-.498.063-.201.167-.484.138-.818-.081zm4.882-3.137c.138.223.45.123 1.09-.348.492-.364 1.051-.661 1.241-.661.19 0 .346-.183.346-.405 0-.223.17-.471.38-.551.209-.08.318-.308.242-.505-.076-.198-.017-.575.13-.838.2-.356.158-.601-.16-.954-.398-.439-.397-.461.018-.302.526.202.59-.156.117-.664-.182-.196-.2-.284-.039-.194.405.226.44-1.73.37-20.59-.014-3.784.026-8.1.089-9.591.077-1.84.021-2.712-.173-2.712-.191 0-.183-.104.025-.312.227-.227.233-.405.02-.661-.212-.255-.21-.35.006-.35.33 0 .407-.861.103-1.165-.27-.27-.263-12.33.007-12.33.12 0 .123-.148.005-.33-.206-.32-.346-3.03-.282-5.49.072-2.791-.016-18.26-.13-22.81-.085-3.381-.034-4.982.159-5.046.199-.067.194-.48-.016-1.397-.225-.984-.222-1.35.011-1.495.233-.145.228-.323-.022-.726-.182-.293-.33-.764-.33-1.046 0-.435-.162-.502-1.059-.438-.582.042-1.058.003-1.058-.086s-.745-.176-1.654-.195c-2.464-.05-3.847-.252-4.304-.631-.304-.253-.566-.267-1.03-.056-.352.16-.72.183-.851.053-.127-.127-1.064-.306-2.083-.398-1.019-.093-2.03-.235-2.25-.316-.217-.081-.872-.185-1.454-.232-2.15-.171-3.187-.314-3.642-.502-.257-.106-.703-.131-.992-.056-.289.076-.592.03-.674-.103-.082-.132-.44-.167-.797-.078-.37.093-.822.02-1.05-.17-.307-.254-.556-.263-1.055-.035-.464.21-.654.214-.654.01 0-.158-.175-.22-.388-.138-.214.082-.448.054-.52-.063-.208-.337-1.837-.295-2.059.053-.141.223-.2.199-.204-.082-.003-.246-.256-.397-.665-.397-.364 0-.662.09-.662.198 0 .11-.176.199-.392.199-.215 0-.466.297-.557.661-.092.364-.269.662-.393.662-.125 0-.58.344-1.01.765-.43.42-.94.83-1.133.91-.265.108-.226.244.159.554.28.226.413.502.294.612-.118.11-.268.053-.333-.13-.065-.181-.287-.33-.493-.33-.463 0-.499.705-.044.868.182.065.232.222.112.35-.122.13-.332.03-.476-.228-.142-.253-.371-.46-.51-.46-.392 0-.295.57.187 1.103.24.266.313.484.16.484-.152 0-.345-.179-.429-.397-.17-.445-.847-.533-1.089-.142-.087.14.077.49.364.776.477.477.484.55.09.87-.24.195-.35.215-.247.045.258-.431-.708-1.55-1.12-1.297-.237.147-.25.285-.042.492.485.485.319.821-.181.369-.587-.531-1.207-.21-.956.495.147.417.116.449-.177.178-.514-.477-.865-.407-.66.132.141.371.11.398-.157.132-.492-.489-1.111-.418-.91.104.139.363.1.38-.237.1-.222-.184-.403-.22-.403-.08s-.357.233-.794.207c-.436-.026-.794.034-.794.132 0 .288-1.58.113-1.903-.21-.184-.184-.458-.206-.731-.06-.24.128-.598.134-.795.012-.198-.122-.519-.16-.714-.086-.195.075-.354.016-.354-.132 0-.147-.217-.211-.482-.142-.265.07-.637-.06-.826-.29-.19-.228-.55-.414-.8-.414-.673 0-2.71-2.559-3.258-4.092-.307-.857-.48-2.112-.489-3.517-.009-1.592-.096-2.131-.32-1.99-.35.219-1.235.122-1.63-.18-.146-.11-.68-.168-1.187-.128-.506.04-1.28-.078-1.72-.261-.44-.184-1.278-.334-1.863-.334a12.87 12.87 0 01-2.116-.214 19.611 19.611 0 00-1.978-.283 20.35 20.35 0 01-1.852-.246 41.286 41.286 0 00-1.72-.284c-1.86-.255-2.381-.337-2.381-.378 0-.024-.238-.089-.53-.144-1.67-.316-2.124-.323-2.31-.037-.147.227-.258.233-.401.02-.11-.162-.586-.35-1.059-.418-.84-.12-.86-.1-.86.874 0 .548.13 1.077.288 1.175.19.117.198.267.026.439-.162.162-.173.568-.03 1.066.126.443.164.912.083 1.043-.081.131-.004.412.172.624.243.292.244.385.007.385-.184 0-.227.136-.105.331.115.182.237.867.271 1.521.106 2.005.274 3.257.595 4.445.17.626.238 1.36.151 1.632-.086.271-.023.576.14.677.168.104.227.464.135.828-.089.355-.07.788.04.963.112.176.226.617.254.98.027.364.121 1.079.208 1.588.088.51.199 1.802.248 2.872.048 1.07.213 2.023.366 2.117.153.095.275.47.271.833-.004.363.06 1.077.143 1.586.082.51.21 1.768.284 2.796.074 1.029.248 2.17.387 2.536.14.367.234 1.4.21 2.298-.023.897.039 1.631.14 1.631.188 0 .207.129.318 2.116.036.655.145 1.37.241 1.588.097.218.14.96.096 1.648-.044.687.037 1.29.18 1.337.144.048.297.557.34 1.13.044.575.259 2.235.478 3.69.514 3.417.715 4.983.85 6.615.241 2.95.307 3.528.456 4.002.086.273.223 1.389.305 2.48.142 1.91.232 2.647.529 4.366.075.436.18 1.28.232 1.876.053.596.162 1.31.244 1.588.158.538.433 2.831.6 5.002.057.728.176 2.097.266 3.043.09.946.18 2.047.201 2.447.02.4.128.728.238.728.11 0 .156.592.102 1.315-.053.724-.024 1.389.065 1.478.089.089.181.42.206.735.068.887.263 1.85.478 2.358.107.254.212.76.233 1.124.021.364.116.663.21.663.096 0 .298.357.45.794.152.436.402.793.555.793.153 0 .279.158.279.35 0 .377 1.023 1.356 1.455 1.393.673.057 1.984.457 1.984.606 0 .09.546.165 1.212.165.88 0 1.312.136 1.575.496.213.292.534.43.778.337.522-.2 3.05.366 3.05.683 0 .13.116.163.259.075.142-.088.53-.013.86.166.33.18.993.295 1.474.256.48-.04 1.044.07 1.254.245.21.174 1.008.315 1.773.314.765-.002 1.51.087 1.656.197.427.324 1.746.614 3.307.727 2.329.17 2.381.178 2.381.413 0 .123.125.146.276.052.152-.093.42-.054.596.088.175.142.66.256 1.077.254.416-.002.833.1.926.228.092.127.704.272 1.359.323.654.05 1.251.19 1.326.311.075.121.67.28 1.323.351.653.073 1.187.151 1.187.175 0 .024.72.086 1.6.139.88.052 1.93.22 2.332.374a5.032 5.032 0 001.49.278c.417 0 .915.149 1.108.33.192.183.885.323 1.54.312.655-.011 1.314.071 1.464.183.15.112 1.035.326 1.964.476.93.15 1.76.367 1.843.483.084.115.807.234 1.606.264.803.03 1.573.205 1.72.392.146.186.653.326 1.126.312.473-.015.86.054.86.152s.387.184.86.192c1.092.016 4.075.276 5.026.438.4.068.794.015.876-.118.267-.432.635-.253.456.222-.154.413-.122.422.293.083.35-.284.515-.301.66-.066zm-.498-1.01c-.219-.14-.278-.256-.133-.256.146 0 .444.116.662.257.218.14.278.256.132.256-.145 0-.443-.115-.661-.256zm3.175-2.645c0-.146.126-.265.28-.265.154 0 .206.12.116.265-.09.145-.216.265-.28.265-.064 0-.116-.12-.116-.265zm-.925-1.32c-.092-.15.014-.194.25-.104.458.176.542.366.161.366-.137 0-.322-.118-.41-.262zm-8.03-6.17c-.445-.537-.603-2.278-.693-7.635-.046-2.716-.16-5.064-.256-5.218-.331-.536.6-1.83 1.451-2.017.45-.1.864-.133.922-.076.238.239.4 2.488.53 7.355.077 2.837.19 5.304.251 5.481.062.178-.002.393-.141.479-.14.086-.253.443-.253.793 0 .953-1.239 1.526-1.81.838zm-10.698-1.628c-.49-.358-1.333-3.053-.954-3.053.12 0 .165-.149.1-.33-.17-.485-.457-4.272-.777-10.253-.151-2.827-.322-5.65-.536-8.864-.048-.727-.158-1.68-.243-2.116-.085-.437-.21-2.009-.28-3.493-.182-3.95-.373-6.286-.553-6.756-.088-.227-.03-.493.128-.59a.338.338 0 00.11-.465c-.371-.6-.602-3.843-.694-9.73-.037-2.402-.179-4.225-.341-4.398-.153-.163-.257-1.056-.232-1.984.025-.929-.02-1.799-.098-1.934-.079-.135-.175-1.385-.213-2.778-.038-1.393-.086-2.533-.106-2.533-.02 0-.077-1.13-.128-2.513-.05-1.383-.11-2.514-.133-2.514-.023 0-.052-1-.065-2.222-.02-1.872.054-2.278.467-2.58 1.171-.856 2.18.005 2.215 1.892.01.582.073 1.951.138 3.042.065 1.092.184 3.473.265 5.292.165 3.708.289 5.993.545 10.054.096 1.528.221 3.612.278 4.63.057 1.02.164 2.626.238 3.572.253 3.235.44 6.482.528 9.128.047 1.456.173 2.855.279 3.11.106.254.125.637.043.85-.082.214-.04.457.094.54.147.09.147.402-.001.792-.155.407-.15.702.015.803.143.088.249.599.235 1.134-.013.535.039 1.569.115 2.296.076.728.196 2.752.267 4.498.072 1.747.148 3.175.17 3.175.023 0 .077 1.012.12 2.25.045 1.236.161 3.082.26 4.1.28 2.917.345 6.81.124 7.538-.111.366-.213.56-.225.434-.013-.127-.172-.107-.354.044-.233.193-.471.173-.8-.068zm-12.665-1.909c-.506-.132-.818-1.65-.437-2.124.141-.176.165-.468.053-.65-.113-.181-.241-.99-.287-1.797-.416-7.418-.623-10.416-.76-11.059-.08-.37-.001-.597.208-.6.215-.002.237-.073.062-.198-.15-.107-.286-.492-.3-.855-.037-.88-.312-4.5-.494-6.483-.08-.873-.195-2.837-.254-4.365-.108-2.783-.213-4.013-.553-6.483-.1-.727-.2-2.573-.221-4.1-.021-1.529-.106-2.898-.187-3.043-.082-.146-.129-1.075-.104-2.064.024-.99-.048-1.856-.16-1.926-.113-.07-.157-.5-.1-.956.058-.456-.02-1.063-.173-1.349-.204-.381-.19-.574.053-.724.212-.131.252-.378.112-.694-.12-.27-.231-1.323-.247-2.342-.016-1.019-.094-1.971-.175-2.116-.08-.146-.12-.741-.09-1.323s-.01-1.173-.092-1.312c-.082-.14-.174-.794-.205-1.455s-.115-2.035-.186-3.054c-.14-2.014-.246-4.57-.21-5.087.042-.597 1.256-1.197 1.817-.897.422.226.56.787.83 3.392.177 1.717.343 3.925.369 4.907.026.982.107 1.786.18 1.786.074 0 .14.863.146 1.918.015 2.649.344 7.327.537 7.638.087.141.014.43-.162.642-.25.302-.249.385.008.385.213 0 .28.249.193.71-.075.39 0 .925.165 1.19.226.362.223.606-.012.982-.172.276-.248.566-.168.645.08.08.194 1.194.255 2.476.06 1.283.172 2.808.246 3.39.075.582.171 1.842.215 2.8.044.957.169 1.885.278 2.061.11.177.059.49-.112.695-.18.218-.217.517-.089.716.122.189.237.76.257 1.269.019.509.116 1.7.215 2.646.099.945.23 2.79.294 4.1.062 1.31.174 3.037.248 3.837.074.8.188 2.586.253 3.969.066 1.382.13 2.513.142 2.513.026 0 .208 2.26.395 4.888.067.943.192 2.033.277 2.423.086.39.046.777-.089.86-.148.091-.127.592.05 1.26.216.808.217 1.135.004 1.206-.161.054-.24.374-.175.713.082.428-.03.666-.37.784-.267.094-.605.215-.75.27-.146.054-.46.048-.7-.015zm-5.32-1.336c-.4-.201-.735-.449-.746-.55l-.241-2.3c-.21-1.99-.37-4.194-.647-8.864-.065-1.092-.138-1.985-.163-1.985-.025 0-.086-.654-.137-1.455-.094-1.487-.32-3.572-.388-3.572-.02 0-.075-.893-.12-1.984-.112-2.647-.278-4.773-.676-8.674-.384-3.763-.234-4.42 1.052-4.61.85-.124 1.423.269 1.306.895-.036.193.012.827.107 1.409.095.582.25 2.427.342 4.1.093 1.674.209 3.11.257 3.19.048.08.169 1.39.269 2.91.315 4.783.551 7.6.765 9.108.061.432-.01.933-.159 1.112a.591.591 0 00-.05.669c.246.38.28.785.447 5.405.064 1.765.193 3.559.286 3.984.248 1.13-.488 1.724-1.503 1.212zm-10.886-2.784c-.214-.335-.456-1.64-.553-2.977-.094-1.31-.21-2.679-.257-3.043-.18-1.384-.477-4.949-.518-6.218-.023-.728-.108-1.443-.187-1.588-.08-.145-.127-.836-.105-1.535.022-.7-.06-1.332-.18-1.407-.121-.075-.135-.275-.03-.444.254-.411.305-1.243.077-1.243-.1 0-.186-.328-.19-.728-.005-.4-.075-1.56-.156-2.58a261.83 261.83 0 01-.295-4.365c-.081-1.382-.213-2.795-.292-3.139-.08-.344-.197-1.594-.26-2.778a71.832 71.832 0 00-.253-3.343 170.39 170.39 0 01-.533-5.672 73.775 73.775 0 00-.406-3.66c-.143-1.003-.198-1.924-.123-2.045.075-.121.014-.543-.136-.937-.181-.476-.184-.822-.008-1.033.154-.186.166-.42.029-.564-.13-.134-.31-1.495-.403-3.023-.092-1.528-.272-3.909-.4-5.291-.129-1.383-.239-2.693-.245-2.91-.006-.22-.056-1.588-.111-3.044-.108-2.84.181-3.836 1.116-3.836.664 0 1.178.673 1.008 1.321-.076.292-.049.531.06.531.11 0 .211.37.224.821.013.451.083.88.155.953.073.073.027.41-.102.75-.16.422-.135.649.08.72.24.08.237.275-.015.829-.181.398-.21.65-.063.558.156-.096.283.198.305.711.12 2.7.165 3.435.319 5.241.093 1.092.24 2.64.326 3.44.086.8.184 2.175.217 3.055.033.88.15 1.744.258 1.92.11.177.124.557.032.846-.091.288-.071.674.045.857.117.184.222.631.235.995.042 1.186.441 5.94.545 6.482.055.291.166 1.541.246 2.778.08 1.237.198 2.666.262 3.175.123.986.447 5.598.5 7.144.018.51.124 1.072.237 1.251.112.18.075.566-.083.86-.157.294-.177.535-.045.535.133 0 .322.684.42 1.521.185 1.574.2 1.942.131 3.506-.022.51.039 1.462.134 2.117.096.654.213 2.158.26 3.34.046 1.183.158 2.27.249 2.417.09.146.177 1.084.192 2.083.047 3.105.195 5.692.333 5.83.202.202-.93 1.41-1.321 1.41-.189 0-.515-.267-.725-.594zm-8.702-.098c-.104-.104-.189-.467-.189-.806 0-.34-.098-.618-.218-.618s-.25-.684-.288-1.521c-.08-1.71-.19-2.844-.278-2.844-.032 0-.114-1.012-.182-2.25-.126-2.31-.247-3.571-.343-3.571-.03 0-.091-.834-.137-1.852-.046-1.019-.2-2.346-.343-2.95-.143-.604-.163-1.255-.044-1.447.118-.191.106-.48-.027-.64-.134-.161-.244-.641-.245-1.068a18.202 18.202 0 00-.111-1.7 860.199 860.199 0 01-.595-5.292c-.071-.655-.181-1.786-.244-2.514-.064-.727-.19-1.62-.28-1.984-.09-.364-.2-1.078-.241-1.588a54.448 54.448 0 00-.256-2.249 45.193 45.193 0 01-.229-1.984c-.027-.364-.12-.78-.206-.926-.246-.418-.227-3.085.026-3.558.302-.564 1.7-.658 2.128-.142.185.223.38.968.433 1.655.111 1.438.305 3.103.362 3.103.069 0 .234 1.292.371 2.91.074.874.2 2.005.277 2.514.079.51.206 1.76.284 2.778.078 1.02.21 2.388.296 3.043.085.655.191 1.846.237 2.646.045.8.106 1.455.134 1.455.134 0 .25 1.498.24 3.109-.006.982.095 1.786.225 1.786s.237.327.238.728c.002.741.245 3.58.471 5.49.207 1.755.445 5.681.489 8.07l.04 2.248-.803.08c-.442.042-.888-.007-.992-.111zm48.164-10.33c-.4-.21-.737-.585-.748-.832a7.482 7.482 0 00-.131-.977c-.06-.291-.169-2.544-.24-5.006-.072-2.462-.193-4.671-.268-4.909-.076-.238-.192-2.39-.259-4.784-.067-2.393-.145-4.411-.173-4.484-.029-.073-.082-1.501-.12-3.175-.068-3.145-.35-9.62-.528-12.17-.224-3.198-.27-3.585-.468-3.903-.113-.182-.088-.33.055-.33.15 0 .212-.534.147-1.258-.062-.69-.164-2.535-.227-4.097-.062-1.563-.183-2.953-.268-3.09-.085-.138-.033-.325.114-.417.148-.091.27-.533.27-.981 0-.946.606-1.497 1.466-1.333.794.152.946.721 1.074 4.031.207 5.35.386 9.14.494 10.451.378 4.61.47 6.145.526 8.864.035 1.673.094 3.102.132 3.175.037.073.056 1.048.042 2.168-.015 1.156.092 2.11.249 2.207.188.116.182.283-.02.526-.195.235-.211.521-.047.837.136.264.217 2.266.178 4.448-.04 2.215.04 4.105.179 4.276.158.194.155.366-.008.467-.149.092-.172.466-.056.883.111.399.184 2.272.162 4.164-.022 1.892.057 3.64.176 3.885.268.556-.184 1.813-.638 1.775-.186-.015-.665-.2-1.065-.41zm-32.023-24.465c-.358-.389-.506-1.13-.616-3.083a188.88 188.88 0 00-.245-3.762 735.4 735.4 0 01-.265-3.308c-.09-1.164-.205-2.474-.253-2.91-.048-.437-.16-2.163-.248-3.837-.088-1.673-.223-3.519-.3-4.1-.076-.583-.186-1.952-.244-3.043-.058-1.092-.172-2.461-.253-3.043-.179-1.289.036-1.664 1.071-1.871 1.331-.266 1.562.384 1.838 5.178.071 1.237.18 2.785.242 3.44.062.655.192 2.728.289 4.607.158 3.074.264 4.256.38 4.256.021 0 .076 1.012.12 2.25.045 1.236.161 3.737.259 5.556.097 1.819.082 3.44-.034 3.602-.402.561-1.256.595-1.741.068zm-19.77-11.864c0-.141-.18-.187-.4-.103-.902.346-1.284-.545-1.618-3.765-.24-2.32-.296-2.754-.356-2.821-.033-.037-.1-.662-.149-1.39a44.04 44.04 0 00-.254-2.513c-.26-1.89-.363-2.906-.51-5.027-.076-1.091-.23-2.58-.344-3.307-.305-1.948-.144-2.757.619-3.105.552-.252.74-.21 1.215.263.308.309.583.777.61 1.04.027.263.126 1.015.22 1.67.093.654.234 2.024.312 3.042.078 1.019.215 2.388.304 3.043.09.655.173 1.935.186 2.844.013.91.128 1.654.256 1.654.127 0 .157.297.065.661-.09.364-.053.662.084.662s.25.565.25 1.256c.001.692.073 1.853.161 2.58.201 1.666.205 2.23.018 2.977-.146.582-.668.847-.668.339zm21.696-19.295c0-.13.196-.311.435-.403.363-.14.38-.1.1.237-.382.459-.535.506-.535.166zm9.012-1.466c-.632-.673-.626-1.078.027-1.818.59-.668 1.446-.378 1.623.55.278 1.453-.74 2.236-1.65 1.268zm-5.308.115a.265.265 0 01.53 0c0 .145-.12.265-.265.265a.265.265 0 01-.265-.265zm1.72 0c.09-.146.216-.265.28-.265.065 0 .117.12.117.265 0 .145-.126.265-.28.265-.154 0-.207-.12-.117-.265zm-3.572-.236c0-.13.196-.312.435-.403.363-.14.38-.1.1.236-.381.46-.535.507-.535.167zm2.796-.265c-.08-.13.025-.303.235-.384.255-.098.333-.019.235.237-.17.444-.268.475-.47.147zm1.438.118c0-.101.178-.363.397-.58.218-.22.396-.285.396-.147 0 .138-.178.4-.396.58-.219.182-.397.248-.397.147zm-2.91-.41c0-.146.125-.265.28-.265.154 0 .206.119.116.264-.09.146-.216.265-.28.265-.064 0-.117-.12-.117-.265zm.925-.53c-.09-.145-.037-.265.117-.265s.28.12.28.265c0 .146-.052.265-.116.265-.065 0-.19-.12-.28-.265zm1.72-.132c0-.219.115-.397.256-.397.141 0 .188.178.104.397-.083.218-.199.397-.256.397-.057 0-.104-.179-.104-.397zm1.379-1.614c-.188-.204-.225-.37-.082-.37.275 0 .672.503.516.652-.051.048-.247-.079-.434-.282zm1.532.143c0-.154.119-.207.264-.117.146.09.265.216.265.28 0 .065-.12.117-.265.117-.145 0-.264-.126-.264-.28zm2.645.092c0-.152.209-.44.463-.64.429-.335.434-.323.075.167-.213.29-.422.578-.463.64-.04.06-.075-.015-.075-.167zm-3.572-1.135c.09-.145.217-.264.28-.264.065 0 .117.119.117.264 0 .146-.126.265-.28.265-.154 0-.206-.12-.117-.265zm1.406.084c.191-.076.42-.067.507.02.088.089-.068.151-.347.14-.308-.013-.371-.076-.16-.16zm-.744-.585c0-.13.195-.311.434-.403.363-.139.38-.1.1.237-.38.459-.534.507-.534.166zm3.175-.293a.265.265 0 01.53 0 .265.265 0 01-.53 0zm1.72-.264c-.09-.146-.038-.265.116-.265.155 0 .28.12.28.265 0 .145-.052.264-.116.264s-.19-.119-.28-.264zm-5.424-.545c0-.154.119-.207.264-.117.146.09.265.216.265.28 0 .065-.12.117-.265.117-.145 0-.264-.126-.264-.28zm1.587 0c0-.154.12-.207.265-.117.145.09.264.216.264.28 0 .065-.119.117-.264.117-.146 0-.265-.126-.265-.28zm1.257-.239c-.255-.248-.461-.56-.459-.694.002-.133.092-.113.199.045.106.158.418.41.69.559.274.15.393.332.265.406-.127.075-.44-.068-.695-.316zm-2.05-.54c0-.145.119-.264.264-.264a.265.265 0 010 .53.265.265 0 01-.264-.265zm2.91 0a.265.265 0 01.53 0 .265.265 0 01-.53 0zm-42.844-.758c-.155-.289-.21-.713-.122-.942.088-.229.037-.416-.113-.416-.369 0-.336-3.393.034-3.623.392-.241 1.493-.275 1.348-.04-.064.102-.025.244.087.312.111.07.203 1.239.203 2.598 0 2.34-.031 2.477-.578 2.555a.81.81 0 01-.859-.444zm43.638.23c0-.146.126-.265.28-.265.154 0 .207.12.117.265-.09.145-.216.264-.28.264-.065 0-.117-.119-.117-.264zm-1.588-.25c0-.443.47-.553.626-.146.092.24-.001.396-.237.396-.214 0-.389-.112-.389-.25zm1.059-.544c0-.146.119-.265.264-.265a.265.265 0 010 .53.265.265 0 01-.264-.265zm-1.191-.794c-.09-.145-.037-.264.117-.264s.28.119.28.264c0 .146-.053.265-.117.265s-.19-.12-.28-.265zM77.7 102.3c0-.14.179-.187.397-.104.218.084.397.014.397-.156s.118-.235.262-.146c.168.104.214-.438.128-1.506-.074-.917-.034-1.82.088-2.005.332-.503 1.903-.645 1.903-.173 0 .466.303.484.8.047.207-.182.153-.063-.12.265-.487.583-.487.596.007.614.435.016.444.043.065.198-.393.161-.4.264-.062.974.207.436.32.589.252.339-.069-.25-.008-.527.135-.615.142-.088.226-.044.187.097-.13.461.179.43.772-.077.479-.411.529-.593.287-1.047-.263-.493-.248-.512.146-.187.38.314.508.278.96-.265.287-.344.526-.775.531-.957.005-.182.2-.33.434-.33.332 0 .386-.162.248-.728-.166-.675-.151-.691.195-.225.412.555.884.175.624-.502-.093-.244-.01-.32.241-.224.211.081.384.01.384-.156 0-.353 2.085-2.4 2.444-2.4.133 0 .586-.327 1.007-.727 1.182-1.124 1.53-1.389 1.83-1.389.15 0 .275-.119.275-.264 0-.146.238-.265.529-.265.291 0 .53-.124.53-.276 0-.152.148-.252.33-.222.182.03.688-.096 1.124-.278.437-.183 1.032-.362 1.323-.398.949-.119 1.72-.443 1.72-.724 0-.152.199-.199.442-.106.244.094.539.017.657-.17.12-.19.218-.214.22-.056.003.177.61.264 1.605.23 1.069-.035 1.722.069 1.965.312.2.2.493.365.648.365.156 0 .284.12.284.265 0 .145.278.264.617.264.34 0 .688.07.774.157.086.086.79.213 1.566.282 2.522.226 2.763.262 3.08.457.171.106.907.197 1.635.203.728.006 1.324.101 1.324.213 0 .111.297.145.661.076.364-.07.662-.023.662.103 0 .253 1.955.444 4.3.418 1.869-.02 2.579-.116 2.579-.348 0-.16.647-.332 2.249-.6a6.8 6.8 0 001.19-.361c.364-.15.756-.217.872-.149.115.068.382-.019.592-.193.21-.174.547-.253.75-.176.202.078.498.011.657-.148.16-.16.561-.323.892-.365.332-.041.9-.11 1.265-.153.363-.042.748-.212.855-.377.107-.165.851-.382 1.654-.482.803-.1 1.46-.306 1.46-.456 0-.15.183-.204.407-.118.224.086.61.052.86-.077.714-.368 4.565-1.47 6.257-1.79.282-.053.569-.153.638-.221.216-.217.247-1.836.04-2.112-.11-.146-.265-.622-.345-1.059-.081-.436-.523-1.984-.983-3.44-.46-1.455-.83-2.88-.825-3.167.006-.287-.148-.703-.342-.926-.195-.222-.551-1.119-.791-1.992-.445-1.615-.936-2.967-1.681-4.63-.229-.51-.458-1.162-.51-1.45-.052-.287-.21-.639-.352-.78-.141-.141-.257-.461-.257-.711 0-.25-.131-.498-.29-.551-.16-.054-.323-.496-.361-.984-.039-.487-.265-.995-.503-1.129-.239-.133-.434-.412-.434-.619 0-.355-.66-1.983-1.483-3.653-.203-.412-.369-.914-.369-1.115 0-.202-.222-.485-.494-.63-.272-.146-.566-.626-.654-1.067-.089-.44-.402-1.3-.697-1.911-.295-.61-.536-1.249-.536-1.418 0-.17-.311-.645-.692-1.055-.38-.41-.712-.886-.737-1.057-.025-.171-.25-.623-.499-1.003-.25-.38-.453-.869-.453-1.085a.802.802 0 00-.33-.605c-.435-.278-.993-1.289-.993-1.798 0-.222-.248-.61-.551-.863-.303-.254-.734-.91-.958-1.46-.224-.55-.626-1.118-.894-1.261-.268-.144-.424-.429-.345-.634.079-.205-.094-.61-.384-.9-.29-.29-.953-1.191-1.472-2.004-.52-.813-1.044-1.478-1.165-1.478-.12 0-.419-.42-.664-.934-.245-.514-.625-1.003-.844-1.087-.22-.084-.595-.568-.836-1.074-.24-.507-.654-1.002-.92-1.1-.266-.098-.874-.832-1.351-1.63-.584-.976-1.04-1.452-1.394-1.453-.399-.002-.525-.182-.525-.745 0-.432-.194-.852-.463-1.003-.255-.143-.463-.426-.463-.63 0-.604-1.038-2.175-1.742-2.637-.36-.236-.585-.545-.498-.686.087-.14-.207-.62-.653-1.067-.446-.446-.811-.984-.811-1.194 0-.21-.315-.503-.699-.649-.384-.146-.626-.337-.538-.425.251-.25-.328-1.148-.742-1.148-.204 0-.883-.655-1.508-1.456-.625-.8-1.284-1.455-1.465-1.455-.18 0-.536-.327-.79-.727-.255-.4-.585-.807-.734-.903a12.04 12.04 0 01-.907-.728c-.35-.304-.796-.552-.992-.552-.196 0-.357-.113-.357-.251s-.297-.572-.661-.965c-.364-.392-.662-.638-.662-.545 0 .313-2.593-1.424-2.754-1.845-.088-.23-.326-.354-.53-.276-.202.078-.442.067-.533-.024-.09-.09-.42-.204-.733-.251-.312-.048-.724-.217-.916-.376-.49-.407-1.11-.098-1.416.706-.143.376-.367.618-.497.537-.13-.08-.306.13-.391.468-.085.338-.461.946-.837 1.35-.375.406-.625.795-.554.865.07.07-.102.537-.382 1.037-.281.5-.51 1.084-.51 1.298 0 .214-.127.389-.281.389-.154 0-.204.122-.111.273.093.15-.068.673-.356 1.163-.289.489-.58 1.294-.646 1.788-.067.495-.252 1.132-.41 1.417-.418.746-1.146 3.494-1.294 4.88-.07.654-.235 1.39-.367 1.637-.132.247-.24.793-.24 1.213 0 1.004-1.06 2.035-1.837 1.789-.93-.296-1.412-1.297-1.207-2.508l.18-1.065-2.206.14c-1.213.077-2.623.192-3.132.256-.51.064-1.248.153-1.641.198-.393.045-.793.16-.89.257-.096.096-1.054.316-2.129.49-1.075.173-1.955.423-1.955.555 0 .132-.148.21-.33.173-.182-.037-.57.055-.86.204-.291.15-.708.256-.926.238a1.25 1.25 0 00-.734.218c-.186.14-.41.18-.498.092-.088-.088-.413-.017-.721.16-.309.176-.68.326-.825.333-.146.007-.535.162-.866.344-.33.182-.73.25-.89.153-.158-.098-.364-.066-.457.072-.252.374-2.415 1.173-2.7.997-.136-.084-.247.03-.247.255 0 .224-.315.486-.7.583-.384.096-.914.39-1.177.653-.731.731-2.356.21-2.356-.754 0-.592 1.793-2.175 3.095-2.733 1.145-.49 1.608-1.22.61-.96-.292.077-.53.051-.53-.057 0-.107-.268-.175-.595-.15-.616.048-1.516-.338-1.838-.787-.101-.142-.264-.177-.362-.08-.098.099-.353.005-.565-.208-.213-.212-.51-.31-.66-.218-.15.093-.377.005-.504-.196-.195-.308-.231-.308-.235 0-.003.292-.08.299-.4.033-.219-.181-.397-.242-.397-.134 0 .107-.308-.006-.683-.253-.376-.246-.869-.376-1.096-.289-.227.087-.693-.025-1.037-.25-.343-.225-.624-.35-.624-.277 0 .072-.327.007-.728-.147-.4-.153-1.26-.28-1.913-.28-.652-.001-1.306-.081-1.455-.178-.148-.097-.627-.193-1.063-.214-.437-.02-1.24-.157-1.786-.303s-.992-.188-.992-.095c0 .15-1.48.194-1.654.05-.184-.153-2.58-.118-2.58.037 0 .1-.208.247-.463.327-.382.121-.455.434-.42 1.782.077 2.906.386 6.141.731 7.632.185.8.306 1.663.268 1.917-.038.254.04.53.172.611.133.082.241.402.241.71 0 .309.114.927.253 1.374.14.447.562 1.884.939 3.193 1.128 3.915 1.483 4.548 1.813 3.234.19-.756 1.514-2.215 1.956-2.154.182.025.517.06.744.078.226.018.338.152.249.298-.09.145-.038.264.116.264s.28.17.28.376c0 .366-.155.72-1.296 2.967-.306.602-.556 1.456-.556 1.897 0 .44-.137.847-.305.903-.355.119-1.008 2.14-1.014 3.14-.002.376-.085.765-.185.865-.1.1-.221.447-.269.772l-.222 1.516a29.69 29.69 0 00-.195 1.72c-.032.436-.14.919-.24 1.072-.1.153-.145.987-.098 1.852.046.865-.03 1.715-.168 1.887-.157.197-.158.493-.002.794.138.264.207.744.154 1.067-.062.383.088.686.43.87.346.184.527.19.527.014 0-.177.247-.172.727.014.4.155.95.326 1.221.381 1.102.222 1.444 1.783.448 2.043-.256.067-1.098.06-1.87-.013-1.251-.12-1.386-.085-1.23.321.096.251.175.552.175.67 0 .116.555.295 1.235.397 2.451.368 3.344 1.724 1.477 2.243-.546.151-1.2.276-1.456.277-.543.002-.58.161-.146.627.174.186.592.286.928.222 1.247-.238 2.031 1.433 1.106 2.358-.274.274-.498.551-.498.616 0 .265 2.538 2.516 2.844 2.522.182.003.33.118.33.255s.654.702 1.453 1.256c.798.555 1.453 1.177 1.455 1.383.002.207.08.299.172.206.177-.177 1.69.568 1.987.98.095.13.354.167.576.081.222-.085.551.022.73.238.18.217.483.334.674.26.192-.073.447.044.568.26.121.217.852.494 1.624.616.771.122 1.479.332 1.572.466.262.377 2.091.851 2.685.696.292-.076.683-.012.869.142.186.154.572.243.858.198.286-.046.634-.017.774.064.275.16 1.284.343 2.128.386.29.015.595.124.677.242.081.118 1.015.228 2.075.244 1.06.016 2.23.11 2.599.21.527.14.835.016 1.43-.58.418-.417.76-.906.76-1.086 0-.18.535-.729 1.19-1.22.655-.49 1.19-.986 1.19-1.101 0-.116.477-.453 1.059-.75s1.058-.64 1.058-.764c0-.122.526-.424 1.17-.67.643-.245 1.313-.619 1.487-.83.175-.21.523-.382.774-.382.25 0 .664-.23.919-.512.254-.28.63-.446.836-.367.206.079.802-.06 1.324-.307.521-.248 1.175-.391 1.453-.319.277.073.504.037.504-.079 0-.28 1.194-.59 2.54-.66.597-.032 1.192-.111 1.323-.177.23-.115 2.83-.056 4.982.112.572.045 1.088.226 1.146.402.059.175.311.32.561.32 1.017 0 1.435 1.204.68 1.958-.269.27-.7.364-1.257.278-2.245-.348-5.299-.378-5.688-.057-.325.268-.427.268-.516.001-.062-.182-.223-.263-.359-.18-.135.084-.571.204-.97.268-1.203.192-3.59.917-4.323 1.313-.38.205-.774.29-.875.19-.1-.102-.266-.054-.368.105-.1.159-.75.545-1.44.858-.692.314-1.257.691-1.257.84 0 .148-.149.25-.33.226-.85-.11-1.213.071-1.366.681-.092.364-.354.662-.584.662-.23 0-.782.387-1.226.86-.445.473-.91.83-1.032.794-.124-.037-.225.047-.225.186s-.304.557-.675.928c-.372.372-.598.802-.503.956.095.154-.052.34-.328.411-.622.163-2.62 4.39-2.312 4.89.088.142.023.423-.144.624-.46.555-.54 4.565-.11 5.593.4.957 1.253 1.916 2.152 2.419.74.415.948.42.699.016-.21-.34-.172-2.433.058-3.191.174-.574 1.313-.616 1.86-.069.217.217.401.874.41 1.46.008.637.222 1.328.531 1.722.528.67 1.008.862 1.008.401zm4.355-4.788c-.272-.44-.028-.5.352-.088.188.204.224.37.082.37-.143 0-.338-.127-.434-.282zm.672-.527c0-.154.12-.207.265-.117.145.09.264.216.264.28 0 .065-.119.117-.264.117-.146 0-.265-.126-.265-.28zm3.594-4.39c-.22-.57-.1-.653.306-.212.18.196.223.421.094.5-.129.08-.309-.05-.4-.288zm.758-.645a.448.448 0 01.06-.525c.14-.14.237-.023.237.288 0 .6-.048.64-.297.237zm2.947-2.263c-.14-.363-.101-.38.236-.1.459.381.507.534.167.534-.13 0-.312-.195-.403-.434zm1.068.027c-.255-.665-.18-.837.132-.3.155.265.225.538.157.606-.068.068-.198-.07-.289-.306zm1.158-.667c0-.154.12-.206.265-.116.145.09.264.216.264.28 0 .064-.119.117-.264.117-.146 0-.265-.127-.265-.28zm.794-.24c0-.141.179-.188.397-.104.218.084.397.199.397.256 0 .057-.179.104-.397.104-.218 0-.397-.115-.397-.256zM47.846 73.9c-.607-.73-.648-1.884-.086-2.393 1.156-1.046 2.81.348 2.261 1.906-.274.78-1.673 1.093-2.175.487zm61.029-1.35c-.39-.203-.761-.318-.825-.254-.127.127-3.79-.394-4.42-.629-.218-.081-.962-.128-1.653-.104-.691.024-1.257-.06-1.257-.187s-.279-.178-.62-.113c-.664.127-1.497-.502-1.497-1.13 0-.205.294-.565.652-.8.806-.528 4.618-.373 7.286.296.946.237 1.928.446 2.183.464.254.018.463.134.463.257s.132.142.293.042c.312-.193 1.559 1.082 1.559 1.594 0 .432-.565.938-1.045.936-.226-.001-.73-.168-1.12-.372zm-42.002-2.16c-.975-.516-2.062-3.013-1.711-3.928.095-.247.472-.418.923-.418.603 0 .903.224 1.44 1.075.438.693.839 1.045 1.128.989.378-.073.435-.352.358-1.746-.11-1.993.175-2.434 1.57-2.434 1.202 0 1.566.485 1.45 1.935-.052.661.082 1.163.415 1.546l.493.568.529-.61c.29-.335.529-.934.529-1.33 0-1.61 1.666-1.633 2.111-.03.373 1.342.336 2.034-.127 2.418-.218.182-.396.539-.396.795 0 .977-2.724 1.55-4 .841-.63-.35-.739-.337-1.234.159-.631.63-2.441.72-3.478.17zm-14.175-2.078c-.825-.251-1.285-.65-2.087-1.807-.99-1.426-1.033-1.578-1.102-3.881-.04-1.319.036-2.465.17-2.547.132-.082.241-.358.241-.613 0-.256.365-.814.811-1.242.748-.716.963-.777 2.77-.777 1.907 0 1.986.026 2.896.964.883.909 1.48 2.504 1.52 4.063.044 1.681-.174 3.492-.46 3.837-.182.218-.409.653-.504.966-.154.508-.81.842-2.006 1.022a5.347 5.347 0 00-.794.198c-.218.076-.873-.007-1.455-.183zm47.867-.923c-.266-.267-.07-1.143.353-1.58.709-.733 2.388-1.026 5.57-.975 2.236.037 3.056.152 3.592.503 1.06.695.87 1.724-.364 1.958-.665.126-9.033.212-9.15.094zm-11.134-2.895c-.984-.51-1.91-1.616-1.746-2.088.072-.208-.037-.273-.293-.174-.42.16-.436.122-.916-2.147-.31-1.468-.112-3.153.511-4.35.614-1.178 1.424-1.978 1.78-1.758.138.085.402-.026.586-.248.313-.378.892-.377 2.371.002.218.056.465.11.547.122.562.075 2.093 1.931 2.418 2.93.564 1.73.448 4.855-.207 5.578-.28.31-.48.61-.443.668.18.283.03.634-.272.634-.186 0-.542.238-.79.529-.262.305-.781.529-1.229.529-.426 0-.933.046-1.127.103-.194.056-.73-.092-1.19-.33zm10.391-.72c-.359-.936-.123-1.434 1.067-2.253.675-.464 1.419-.865 1.653-.891.235-.026.606-.127.824-.225.218-.098.885-.22 1.482-.272.596-.052 1.196-.163 1.331-.247.136-.083.836-.221 1.557-.306.72-.085 1.522-.221 1.782-.304.71-.225 2.279.387 2.619 1.022.225.42.224.587-.004.663-.167.056-.225.229-.13.384.107.173.05.205-.148.083-.188-.116-.465-.006-.662.265-.232.317-.536.414-.955.304-.338-.088-1.16-.046-1.825.094-.666.14-1.568.302-2.005.36a9.57 9.57 0 00-1.587.388c-1.676.592-4.218 1.353-4.521 1.353-.175 0-.39-.188-.478-.418zM33.87 91.847c.27-.27.348-.714.252-1.435-.118-.875-.03-1.155.541-1.726.375-.375.777-.68.892-.677.538.01.907.516.929 1.27.014.487.133.756.293.658.162-.1.203.006.104.265-.091.237-.052.502.087.588.14.086.253.043.253-.095 0-.139.268-.324.595-.412.328-.088.893-.574 1.257-1.08.364-.505.784-.922.934-.926.15-.004.444-.246.654-.537.21-.29.53-.53.711-.53.186 0 .263-.174.177-.399-.11-.286-.032-.353.273-.236.283.108.426.02.426-.262 0-.234.166-.425.369-.425.202 0 .44-.186.527-.414.087-.227.28-.339.427-.247.148.09.34-.02.426-.247.087-.226.256-.352.374-.279.119.074.395-.046.615-.266.22-.22.527-.4.683-.4a.278.278 0 00.283-.269c0-.148.304-.214.676-.147 1.041.189 1.132-.548.174-1.423-.601-.549-.887-.663-1.11-.442-.223.221-.255.179-.124-.165.106-.279.052-.463-.135-.463-.53 0-4.264-4.013-4.725-5.078-.24-.554-.577-1.008-.75-1.008-.171 0-.372-.149-.446-.33-.103-.255-.186-.258-.36-.015-.123.174-.46.281-.746.24-.287-.043-.909.14-1.382.406-.474.266-.861.413-.861.326 0-.087-.301.039-.67.28-.367.24-.771.374-.898.296-.126-.078-.3.042-.386.266-.086.225-.515.533-.953.686-.439.153-.798.45-.798.66 0 .211-.175.348-.39.306-.452-.09-3.05 2.095-3.05 2.566 0 .174-.237.532-.528.795-.291.264-.53.61-.531.769-.001.16-.19.647-.42 1.083-.463.881-.733 4.805-.346 5.044.13.08.238.315.238.52 0 .404 1.83 2.353 2.025 2.157.066-.066.129-.401.139-.745.01-.344.134-1.02.276-1.5.229-.779.349-.866 1.09-.794.598.058.852.23.903.61.273 2.038.667 3.286 1.073 3.393.246.064.469.131.495.148.026.017.223-.145.438-.36zm5.997-6.768c0-.154.119-.207.264-.117.146.09.265.216.265.28 0 .064-.12.117-.265.117-.145 0-.264-.126-.264-.28zm5.556-2.086c0-.137.118-.322.262-.41.15-.093.194.013.104.249-.176.458-.366.542-.366.161zm118.702-10.466c-.063-.165-.511-.272-.996-.238-.485.034-1.004-.015-1.152-.108-.148-.092-.686-.2-1.196-.24l-2.513-.193a49.12 49.12 0 01-2.646-.273c-2.04-.295-2.514-.3-2.518-.022-.002.154-.109.114-.237-.09a.568.568 0 00-.658-.206c-.233.09-.423.068-.423-.048 0-.115-.626-.218-1.39-.228-.764-.01-1.567-.09-1.785-.177-.219-.087-1.29-.212-2.382-.279-1.091-.067-2.68-.194-3.53-.282-1.236-.128-1.503-.09-1.327.186.12.19.22.465.223.61.002.146.242.285.533.31 2.227.19 3.446.411 3.595.653.12.194.23.197.344.01.1-.159.47-.194.893-.083.399.105 1.23.178 1.849.163.618-.015 1.124.04 1.124.121 0 .082.328.156.728.165.4.01 1.442.118 2.315.241.873.124 1.915.223 2.315.22.4-.002.728.068.728.156s.566.185 1.257.214c2.841.12 3.77.221 3.77.41 0 .11.527.137 1.17.06.762-.092 1.24-.03 1.367.176.23.372.726-.75.542-1.228zm-125.388-.822c-.088-.088-.316-.097-.507-.02-.211.084-.149.146.16.16.278.01.435-.052.347-.14zm131.04-1.835c0-.038-.428-.322-.952-.631-.524-.31-1.014-.796-1.089-1.082-.11-.423-.326-.504-1.16-.438-.564.044-1.172-.01-1.35-.12-.18-.111-.479-.075-.665.08-.231.192-.446.196-.67.013-.183-.148-.833-.239-1.447-.203-.613.037-1.716-.028-2.45-.144-1.338-.212-4.203-.467-7.415-.662-1.848-.112-2.705-.201-4.365-.455-1.443-.22-4.895-.5-7.167-.579-1.848-.065-1.873-.057-1.754.566.154.808.26.863 1.953 1.032.776.078 2.066.21 2.867.292.8.082 1.901.134 2.447.115.546-.02.992.079.992.218 0 .14.59.208 1.323.154.728-.054 1.323 0 1.323.123 0 .122.483.197 1.074.167.59-.03 1.128.034 1.196.143.067.11.375.15.684.09.309-.06.664-.044.79.033.125.078.971.19 1.88.248l3.41.222c.966.062 1.978.18 2.248.26.27.08 1.258.214 2.194.296.936.082 1.73.177 1.765.212.087.087 4.338.136 4.338.05zm23.254-6.767c.158-.453.228-.92.154-1.04-.073-.118-.007-.294.149-.39.198-.122.197-.276-.005-.52-.21-.251-.188-.443.079-.71.387-.387.41-1.858.042-2.717-.14-.327-.112-.55.079-.613.166-.055-.078-.485-.548-.966a41.888 41.888 0 01-1.773-1.972c-.751-.898-1.05-1.08-1.587-.965-.57.122-.595.101-.184-.148.45-.273.44-.328-.166-.934-.445-.445-.797-.586-1.14-.458-.418.157-.444.123-.166-.219.409-.504.114-.855-.377-.448-.199.165-.438.223-.531.13-.094-.094-.031-.17.138-.17.54 0 .333-.843-.366-1.491-.759-.703-1.078-.779-1.251-.295-.065.182-.22.235-.345.118-.125-.117-.052-.325.162-.463.342-.22.34-.282-.008-.51-.218-.144-.29-.263-.16-.265.13-.002-.084-.302-.476-.666-.797-.738-1.115-.82-1.29-.33-.065.181-.215.24-.333.129-.119-.11.014-.375.294-.587.477-.361.48-.386.031-.394-.263-.005-.416-.11-.34-.233.077-.124-.174-.497-.557-.83-.567-.494-.786-.55-1.181-.302-.267.166-.486.195-.486.064s.184-.31.41-.396c.33-.126.253-.31-.397-.945-.444-.434-.807-.852-.807-.93 0-.077-.238-.379-.529-.67-.29-.29-.529-.47-.529-.397 0 .073-.238-.106-.529-.397-.291-.29-.53-.648-.53-.793a.266.266 0 00-.266-.265c-.146 0-.528-.301-.848-.669-.32-.368-.722-.615-.894-.549-.192.074-.265-.062-.189-.353.072-.275-.051-.54-.294-.633-.265-.101-.419-.018-.419.228a.397.397 0 01-.403.389c-.352 0-.349-.083.03-.662.382-.582.385-.661.029-.661-.223 0-.455-.15-.517-.331-.086-.258-.208-.25-.55.032-.249.205-.44.243-.44.089 0-.152.148-.328.33-.393.207-.073-.05-.491-.688-1.119-.732-.719-1.077-.908-1.224-.67-.145.235-.257.246-.386.039-.1-.161-.055-.293.1-.293.495 0 .297-.839-.231-.977-.304-.08-.453-.284-.369-.504.087-.226-.028-.371-.29-.371a.687.687 0 01-.593-.412.426.426 0 00-.55-.262c-.26.1-.344.026-.251-.217.192-.5-.314-.956-.842-.759-.358.134-.375.093-.102-.243.423-.522.106-.85-.409-.422-.333.276-.365.238-.211-.246.138-.435.052-.612-.36-.743-.296-.094-.541-.312-.544-.484-.002-.173-.538-.829-1.19-1.459-.653-.63-1.187-1.255-1.187-1.389 0-.134-.178-.243-.397-.243-.218 0-.396-.113-.396-.25 0-.345-2.505-2.925-2.84-2.925-.15 0-.336-.239-.412-.53-.076-.29-.335-.529-.576-.529-.24 0-.368-.11-.285-.246.084-.136.018-.33-.145-.43-.165-.102-.58.144-.93.552-.349.404-.633.636-.633.513 0-.122.252-.49.56-.818l.56-.596-1.354-1.376c-.745-.756-1.354-1.478-1.354-1.603 0-.126-.115-.23-.255-.23-.36 0-2.105-1.784-1.923-1.966.082-.082 0-.15-.182-.15-.183 0-1.364-1.065-2.624-2.366-1.26-1.302-2.467-2.403-2.682-2.448-.215-.044-.594-.327-.842-.629-.248-.301-.957-.7-1.575-.884-.618-.185-1.395-.515-1.726-.732-.332-.217-.71-.328-.841-.247-.132.08-.643.027-1.137-.12-.806-.24-2.609-.437-5.66-.616-.582-.034-1.328-.209-1.659-.388-.33-.179-.697-.266-.816-.192-.456.281-1.89.415-1.89.176 0-.139-.545-.2-1.218-.137-.67.063-1.355.029-1.522-.076-.166-.104-1.136-.207-2.155-.228-2.749-.058-8.082-.458-10.583-.793-.81-.109-6.507-.432-7.337-.416-.252.005-.528-.105-.614-.244a.293.293 0 00-.401-.1c-.46.284-1.294.354-1.438.121-.079-.127-.376-.187-.66-.132-.284.055-.857.002-1.274-.118-.426-.122-.947-.11-1.194.028-.279.156-.635.139-.986-.05-.404-.215-.645-.215-.906.003-.246.204-.41.21-.528.018-.095-.152-.64-.277-1.214-.277s-1.043-.103-1.043-.228c0-.126-.328-.19-.728-.142-.4.048-1.144.086-1.653.085-.51-.002-2.206-.002-3.77-.002-1.565 0-2.845-.097-2.845-.216 0-.12-.863-.234-1.918-.256a57.59 57.59 0 01-3.241-.158c-.728-.066-2.216-.174-3.308-.24-1.091-.065-1.984-.137-1.984-.158 0-.021-1.072-.077-2.381-.123-1.31-.047-2.696-.168-3.08-.271-.406-.108-.77-.07-.87.09-.112.181-.393.19-.822.028-.408-.155-1.156-.152-2.002.009-.744.14-1.463.187-1.6.102-.137-.084-.392-.04-.568.1-.175.139-.772.399-1.326.577-1.535.495-2.94 2.042-3.64 4.006-.33.93-.71 1.834-.842 2.009-.147.193-.133.502.036.793.153.263.281.348.286.19.015-.56 1.546-1.124 3.529-1.305.7-.063 1.376-.18 1.503-.258a.269.269 0 01.37.082c.076.124.501.172.944.107.443-.065.806-.012.806.117 0 .13 1.66.252 3.69.271 2.03.02 3.825.118 3.99.22.164.1 1.092.22 2.063.266l5.092.242 3.325.16.373-.733c.564-1.112 2.954-3.356 3.608-3.39.318-.015.735-.155.926-.308.416-.335 2.92.227 3.074.689.053.16.271.29.484.29.395 0 1.973.735 2.214 1.03.073.09.47.337.883.55.413.212 1.044.659 1.403.991.358.333.77.605.915.605.145 0 .557.294.916.653.483.483 1.016.683 2.039.767.762.062 1.385.13 1.385.152 0 .066 4.392.351 5.887.383.764.016 1.389.091 1.389.166 0 .076.685.148 1.521.161 1.67.026 6.02.28 6.02.352 0 .025.952.101 2.116.17 2.527.148 4.077.283 4.167.363.037.032.78.093 1.654.136.873.044 1.647.106 1.72.14.073.032.49.088.926.124.436.035.853.091.926.124.073.033.701.093 1.396.132.696.04 1.337.144 1.424.232.088.088.375.044.638-.096.265-.142.542-.154.62-.027.079.127.443.173.81.103.422-.081.668-.008.668.198 0 .204.214.27.57.177.317-.082 1.048.08 1.638.366.587.284 1.176.515 1.31.515.5 0 2.832 1.198 2.832 1.456 0 .147.35.423.78.612.549.243.73.471.615.772-.122.32-.052.384.279.257.299-.114.443-.034.443.247 0 .256.148.36.383.27.232-.089.448.057.547.369.09.283.275.515.41.515.136 0 .247.175.247.389 0 .255.153.33.443.219.336-.13.402-.063.273.273-.093.243-.05.442.095.442.146 0 .615.357 1.041.794.427.437.9.794 1.05.794.15 0 .273.192.273.428 0 .291.162.385.51.294.357-.093.467-.024.368.234-.084.219.03.367.285.367.234 0 .429.089.433.198.005.11.306.537.67.951.546.62.732.695 1.057.426.323-.269.365-.254.236.083-.193.502.916 1.847 1.377 1.67.191-.073.273.02.195.223-.14.365.58.781.954.55.119-.073.15.119.07.426-.126.482-.059.538.487.4.35-.088.486-.091.304-.008-.525.241-.384.637.226.637.387 0 .511.122.406.397-.103.269.013.397.36.397s.463.128.36.397c-.098.257.006.397.298.397.247 0 .51.23.583.51.087.333.278.456.548.352.273-.104.35-.053.223.151-.105.17-.069.31.08.31.15 0 .209.166.13.37-.091.238.025.356.324.33.256-.021.593.209.748.511.155.303.446.496.647.43.223-.075.293-.005.18.178-.249.403.556 1.18 1.032.998.249-.096.327-.015.23.239-.082.21-.016.383.145.383.16 0 .293.125.293.278 0 .314 1.67 2.103 1.964 2.103.265 0 .946.708.946.983 0 .124.357.437.794.695.436.258.794.648.794.866 0 .22.119.324.264.234.146-.09.265.023.265.25 0 .226.17.412.379.412.208 0 .455.24.548.533.093.293.28.465.415.381.135-.083.245.034.245.26 0 .228.15.384.331.347.185-.037.296.138.253.397-.043.255.08.463.274.463.193 0 .567.366.83.812.281.475.63.755.838.675.23-.088.305 0 .21.246-.09.237.016.384.279.384.234 0 .425.178.425.397 0 .218.178.397.397.397.218 0 .397.178.397.396 0 .224.236.397.54.397.369 0 .516.148.463.463-.052.314.07.439.381.387.32-.054.412.047.303.33-.086.224-.019.408.149.408.168 0 .581.298.919.661.337.364.734.662.882.662.148 0 .336.253.417.563.093.355.29.51.53.417.275-.105.345-.003.25.362-.091.348.003.51.294.51.235 0 .428.186.428.415 0 .288.154.365.507.253.424-.134.482-.061.351.445-.145.562-.12.578.337.21.33-.265.424-.281.285-.05-.138.23.158.696.875 1.379.597.567 1.084 1.155 1.084 1.306 0 .151.17.275.378.275s.609.294.891.653c.282.359.589.577.68.485.093-.092.168.09.168.406 0 .315.128.573.285.573.37 0 1.832 1.461 1.832 1.832 0 .156.178.285.397.285.218 0 .397.186.397.414 0 .289.154.366.507.254.42-.133.48-.06.355.42-.105.4-.056.523.154.392.182-.112.306-.021.306.224 0 .227.18.412.397.412.219 0 .397.12.397.265 0 .578.494.217.765-.56zm-1.426-3.409c-.09-.145-.037-.264.117-.264s.28.119.28.264c0 .146-.052.265-.116.265-.065 0-.19-.12-.28-.265zm-3.44-3.704c.09-.145.217-.265.28-.265.065 0 .118.12.118.265 0 .146-.126.265-.28.265-.155 0-.207-.12-.117-.265zm.662-.53a.265.265 0 01.53 0 .265.265 0 01-.53 0zm-.794-.793a.265.265 0 01.53 0 .265.265 0 01-.53 0zm-2.91-1.323c0-.145.126-.264.28-.264.154 0 .207.119.117.264-.09.146-.216.265-.28.265-.064 0-.117-.12-.117-.265zm-2.381-.529c0-.145.126-.265.28-.265.154 0 .207.12.117.265-.09.146-.216.265-.28.265-.065 0-.117-.12-.117-.265zm1.587-.28c0-.154.12-.207.265-.117.145.09.264.216.264.28 0 .065-.119.117-.264.117-.146 0-.265-.126-.265-.28zm1.588 0c0-.154.119-.207.264-.117.146.09.265.216.265.28 0 .065-.12.117-.265.117-.145 0-.264-.126-.264-.28zm-3.82-.591c.1-.261.248-.408.33-.327.08.082 0 .295-.182.475-.26.26-.291.229-.148-.148zm.777-.716c-.09-.146-.037-.265.117-.265s.28.12.28.265c0 .145-.053.264-.117.264s-.19-.119-.28-.264zm1.588 0c-.09-.146-.038-.265.116-.265s.28.12.28.265c0 .145-.052.264-.116.264s-.19-.119-.28-.264zm1.455 0c0-.146.126-.265.28-.265.154 0 .207.12.117.265-.09.145-.216.264-.28.264-.065 0-.117-.119-.117-.264zm-.662-.53c-.09-.145-.037-.264.117-.264s.28.119.28.264c0 .146-.052.265-.116.265-.065 0-.19-.12-.28-.265zm-1.455-.264a.265.265 0 01.53 0 .265.265 0 01-.53 0zm2.778 0c.09-.146.216-.265.28-.265.065 0 .117.12.117.265 0 .145-.126.264-.28.264-.154 0-.207-.119-.117-.264zm-5.16-.53a.265.265 0 01.53 0 .265.265 0 01-.53 0zm4.631 0c.09-.145.216-.264.28-.264.064 0 .117.12.117.265 0 .145-.126.264-.28.264-.154 0-.207-.119-.117-.264zm-2.91-.264c.09-.145.216-.264.28-.264.064 0 .117.119.117.264 0 .146-.127.265-.28.265-.155 0-.207-.12-.117-.265zm-.794-.53c-.09-.145-.037-.264.117-.264s.28.12.28.265c0 .145-.053.265-.117.265s-.19-.12-.28-.265zm1.455 0c0-.145.126-.264.28-.264.154 0 .207.12.117.265-.09.145-.216.265-.28.265-.064 0-.117-.12-.117-.265zm-1.984-.793c.09-.145.216-.264.28-.264.064 0 .117.119.117.264 0 .146-.126.265-.28.265-.155 0-.207-.12-.117-.265zm-2.514-.529c0-.146.126-.265.28-.265.155 0 .207.12.117.265-.09.146-.216.265-.28.265-.064 0-.117-.12-.117-.265zm4.498 0c0-.146.126-.265.28-.265.154 0 .207.12.117.265-.09.146-.216.265-.28.265-.064 0-.117-.12-.117-.265zm-1.323-.28c0-.154.12-.207.265-.117.145.09.264.216.264.28 0 .065-.119.117-.264.117-.146 0-.265-.126-.265-.28zm-3.969-.514c0-.145.186-.264.413-.264.227 0 .339.119.249.264-.09.146-.276.265-.413.265-.137 0-.249-.12-.249-.265zm1.72 0c-.09-.145-.037-.264.117-.264s.28.119.28.264c0 .146-.052.265-.117.265-.064 0-.19-.12-.28-.265zm1.455 0c0-.145.127-.264.28-.264.155 0 .207.119.117.264-.09.146-.216.265-.28.265-.064 0-.117-.12-.117-.265zm-.661-.529c-.09-.145-.037-.264.117-.264s.28.119.28.264c0 .146-.053.265-.117.265s-.19-.12-.28-.265zm-1.455-.264c0-.146.119-.265.264-.265a.265.265 0 010 .53.265.265 0 01-.264-.265zm2.778 0c.09-.146.216-.265.28-.265.064 0 .117.119.117.265 0 .145-.126.264-.28.264-.155 0-.207-.119-.117-.264zm-.662-.53c0-.145.127-.264.28-.264.155 0 .207.119.117.264-.09.146-.216.265-.28.265-.064 0-.117-.12-.117-.265zm-2.91-.264a.265.265 0 01.53 0 .265.265 0 01-.53 0zm1.455 0c.09-.146.216-.265.28-.265.065 0 .117.12.117.265 0 .145-.126.264-.28.264-.154 0-.207-.119-.117-.264zm-5.027-.265c-.09-.145-.037-.264.117-.264s.28.119.28.264c0 .146-.052.265-.117.265-.064 0-.19-.12-.28-.265zm1.323-.264c.09-.146.216-.265.28-.265.064 0 .117.12.117.265 0 .145-.126.264-.28.264-.154 0-.207-.119-.117-.264zm3.043 0c0-.146.126-.265.28-.265.154 0 .207.12.117.265-.09.145-.216.264-.28.264-.065 0-.117-.119-.117-.264zm-5.16-.53c-.09-.145-.037-.264.117-.264s.28.119.28.264c0 .146-.052.265-.116.265-.065 0-.19-.12-.28-.265zm3.043-.264a.265.265 0 01.53 0 .265.265 0 01-.53 0zm1.323-.016c0-.154.12-.206.265-.116.145.09.264.216.264.28 0 .064-.119.116-.264.116-.146 0-.265-.126-.265-.28zm-5.142-.326c.1-.261.247-.408.328-.327.082.082 0 .295-.18.475-.262.26-.292.229-.148-.148zm.776-.981c.09-.146.276-.265.413-.265.137 0 .249.12.249.265 0 .145-.186.265-.413.265-.226 0-.339-.12-.249-.265zm2.779-.28c0-.154.119-.207.264-.117.146.09.265.216.265.28 0 .064-.12.117-.265.117-.145 0-.264-.126-.264-.28zm1.322.176c0-.057.185-.175.411-.262.236-.09.342-.046.249.104-.155.252-.66.372-.66.158zm-6.35-.425c0-.146.127-.265.28-.265.155 0 .207.12.117.265-.09.145-.216.264-.28.264-.064 0-.117-.119-.117-.264zm1.47.022a.296.296 0 01.095-.405.296.296 0 01.406.096.295.295 0 01-.096.405.296.296 0 01-.405-.096zm1.838-.287c.09-.145.216-.264.28-.264.064 0 .117.119.117.264 0 .146-.126.265-.28.265-.155 0-.207-.12-.117-.265zm2.513 0c0-.145.126-.264.28-.264.155 0 .207.119.117.264-.09.146-.216.265-.28.265-.064 0-.117-.12-.117-.265zm-1.455-.264c-.09-.146-.037-.265.117-.265s.28.12.28.265c0 .145-.053.264-.117.264s-.19-.119-.28-.264zm-3.572-.265a.265.265 0 01.53 0 .265.265 0 01-.53 0zm1.588-.28c0-.154.119-.207.264-.117.146.09.265.216.265.28 0 .065-.12.117-.265.117-.145 0-.264-.126-.264-.28zm1.323-.265c0-.154.119-.206.264-.116.146.09.265.216.265.28 0 .064-.12.116-.265.116-.145 0-.264-.126-.264-.28zm-5.077-.165c.19-.076.42-.067.507.021.088.088-.068.15-.347.139-.308-.013-.371-.075-.16-.16zm1.372-.084a.265.265 0 01.53 0 .265.265 0 01-.53 0zm4.498-.264c0-.146.126-.265.28-.265.155 0 .207.12.117.265-.09.145-.216.264-.28.264-.064 0-.117-.119-.117-.264zm-3.572-.53c-.09-.145.023-.264.25-.264.226 0 .412.119.412.265 0 .145-.112.264-.249.264s-.323-.119-.413-.264zm1.477-.154c.012-.308.075-.37.16-.16.076.191.066.42-.021.507-.088.088-.15-.068-.14-.347zm-5.313-.375c0-.145.126-.264.28-.264.154 0 .207.119.117.264-.09.146-.216.265-.28.265-.064 0-.117-.12-.117-.265zm1.538-.18c.19-.077.42-.067.507.02.088.088-.068.151-.347.14-.308-.013-.371-.076-.16-.16zm1.637-.1c0-.154.12-.206.265-.117.145.09.264.216.264.28 0 .065-.119.117-.264.117-.146 0-.265-.126-.265-.28zm1.455.016c-.09-.146-.037-.265.117-.265s.28.12.28.265c0 .145-.052.264-.117.264-.064 0-.19-.119-.28-.264zm-5.424-.545c0-.154.12-.207.265-.117.145.09.264.216.264.28 0 .065-.119.117-.264.117-.146 0-.265-.126-.265-.28zm1.588.016c0-.146.119-.265.264-.265a.265.265 0 010 .53.265.265 0 01-.264-.265zm1.587-.148c0-.227.121-.338.27-.247.147.092.2.277.116.413-.227.367-.386.298-.386-.166zm1.455-.117c.09-.146.217-.265.28-.265.065 0 .117.12.117.265 0 .146-.126.265-.28.265-.154 0-.206-.12-.117-.265zm-2.248-.53c0-.145.119-.264.264-.264a.265.265 0 010 .53.265.265 0 01-.264-.265zm1.608-.154c.013-.308.075-.37.16-.16.076.192.067.42-.021.508-.088.088-.15-.069-.14-.348zm-5.71-.11c-.09-.145-.037-.264.117-.264s.28.119.28.264c0 .146-.052.265-.116.265-.065 0-.19-.12-.28-.265zm1.985-.529c0-.145.119-.265.264-.265a.265.265 0 010 .53.265.265 0 01-.264-.265zm1.587 0c0-.145.12-.265.265-.265.145 0 .265.12.265.265a.265.265 0 01-.53 0zm1.456 0c-.09-.145-.038-.265.116-.265s.28.12.28.265c0 .146-.052.265-.116.265s-.19-.12-.28-.265zm-2.25-.81c0-.153.12-.206.265-.116.146.09.265.216.265.28 0 .064-.12.117-.265.117-.145 0-.264-.126-.264-.28zm1.456.016c.09-.145.216-.264.28-.264.064 0 .117.119.117.264 0 .146-.126.265-.28.265-.155 0-.207-.12-.117-.265zm1.323 0c.09-.145.275-.264.412-.264.137 0 .25.119.25.264 0 .146-.186.265-.413.265-.227 0-.34-.12-.25-.265zm-6.615-.264c-.09-.146-.037-.265.117-.265s.28.12.28.265c0 .145-.052.264-.117.264-.064 0-.19-.119-.28-.264zm3.043-.265c0-.145.119-.264.264-.264.146 0 .265.119.265.264a.265.265 0 01-.53 0zm1.506.096c-.211-.212.028-.625.362-.625.136 0 .249.179.249.397 0 .409-.313.526-.61.228zm1.404-.096c0-.145.126-.264.28-.264.155 0 .207.119.117.264-.09.146-.216.265-.28.265-.064 0-.117-.12-.117-.265zm-3.572-.794c.09-.145.216-.264.28-.264.065 0 .117.119.117.264 0 .146-.126.265-.28.265-.154 0-.207-.12-.117-.265zm1.588 0c-.09-.145-.037-.264.117-.264s.28.119.28.264c0 .146-.053.265-.117.265s-.19-.12-.28-.265zm-2.514-.529c0-.145.179-.264.397-.264.219 0 .397.119.397.264 0 .146-.178.265-.397.265-.218 0-.397-.12-.397-.265zm1.235-.328c-.267-.28-.414-.58-.328-.667.087-.086.393.096.681.405.288.31.436.61.328.667-.108.057-.414-.125-.68-.405zm1.94.064c0-.146.126-.265.28-.265.155 0 .207.12.117.265-.09.145-.216.264-.28.264-.064 0-.117-.119-.117-.264zm-3.704-.545c0-.154.12-.207.265-.117.145.09.264.216.264.28 0 .065-.119.117-.264.117-.146 0-.265-.126-.265-.28zm-3.307-.778c.09-.146.216-.265.28-.265.064 0 .117.12.117.265 0 .145-.126.264-.28.264-.155 0-.207-.119-.117-.264zm.794-.53c.09-.145.216-.264.28-.264.064 0 .117.119.117.265 0 .145-.127.264-.28.264-.155 0-.207-.119-.117-.264zm1.19 0a.265.265 0 01.53 0 .265.265 0 01-.53 0zm1.455 0c-.09-.145-.037-.264.117-.264s.28.119.28.265c0 .145-.052.264-.116.264-.065 0-.19-.119-.28-.264zm.662-.529c0-.145.126-.264.28-.264.154 0 .207.119.117.264-.09.146-.216.265-.28.265-.065 0-.117-.12-.117-.265zm-4.763-.793c0-.146.127-.265.28-.265.155 0 .207.12.117.265-.09.145-.216.264-.28.264-.064 0-.117-.119-.117-.264zm-.661-.794c-.09-.146-.037-.265.117-.265s.28.12.28.265c0 .145-.053.264-.117.264s-.19-.119-.28-.264zm4.46-.132c.218-.219.48-.397.58-.397.102 0 .036.178-.145.397-.181.218-.443.396-.58.396-.139 0-.073-.178.145-.396zm-6.048-1.191c-.09-.146-.037-.265.117-.265s.28.12.28.265c0 .145-.052.265-.116.265-.065 0-.19-.12-.28-.265zm3.572-.5c0-.29.767-.938.925-.78.065.065-.117.318-.403.564-.287.245-.522.343-.522.217zm-4.365-.294c-.09-.145-.038-.264.116-.264.155 0 .28.119.28.264 0 .146-.052.265-.116.265s-.19-.12-.28-.265zm1.455 0a.265.265 0 01.53 0 .265.265 0 01-.53 0zm-3.704-.81c0-.153.119-.206.264-.116.146.09.265.216.265.28 0 .065-.12.117-.265.117-.145 0-.264-.126-.264-.28zm1.72.016c.09-.145.216-.264.28-.264.064 0 .116.119.116.264 0 .146-.126.265-.28.265-.154 0-.206-.119-.116-.265zm2.116-.529c.09-.145.216-.264.28-.264.065 0 .117.119.117.264 0 .146-.126.265-.28.265-.154 0-.207-.12-.117-.265zm-.661-.529c0-.145.126-.264.28-.264.154 0 .207.119.117.264-.09.146-.216.265-.28.265-.065 0-.117-.12-.117-.265zm-2.778-.264c-.09-.146-.038-.265.116-.265s.28.119.28.265c0 .145-.052.264-.116.264s-.19-.119-.28-.264zm1.455 0c0-.146.119-.265.264-.265a.265.265 0 010 .53.265.265 0 01-.264-.265zm2.646.156c0-.05.178-.24.397-.421.228-.19.396-.216.396-.06 0 .147-.178.336-.396.42-.219.084-.397.111-.397.06zm-1.985-.686c-.09-.145-.037-.264.117-.264s.28.119.28.264c0 .146-.052.265-.116.265-.065 0-.19-.12-.28-.265zm1.456-.132c.18-.218.442-.397.58-.397.138 0 .072.179-.146.397-.218.218-.48.397-.58.397-.101 0-.036-.179.146-.397zm-4.366-1.455c-.09-.146-.037-.265.117-.265s.28.12.28.265c0 .145-.053.264-.117.264s-.19-.119-.28-.264zm-1.505-.18c.191-.077.42-.068.507.02.088.088-.068.15-.347.139-.308-.013-.371-.075-.16-.16zm2.487-.72c.187-.203.383-.33.433-.282.157.15-.24.653-.515.653-.143 0-.106-.167.082-.37zm1.531.106a.265.265 0 01.53 0 .265.265 0 01-.53 0zm-6.217-1.323c-.09-.145-.038-.264.116-.264.155 0 .28.119.28.264 0 .146-.052.265-.116.265s-.19-.12-.28-.265zm1.455 0a.265.265 0 01.53 0 .265.265 0 01-.53 0zm1.323.165c0-.055.181-.25.403-.434.337-.28.375-.264.236.1-.142.37-.64.63-.64.334zm-3.44-.974c0-.154.12-.207.265-.117.145.09.264.216.264.28 0 .065-.119.117-.264.117-.146 0-.265-.126-.265-.28zm1.588 0c0-.154.119-.207.264-.117.146.09.265.216.265.28 0 .065-.12.117-.265.117-.145 0-.264-.126-.264-.28zm2.91.015c0-.145.126-.264.28-.264.155 0 .207.119.117.264-.09.146-.216.265-.28.265-.064 0-.117-.12-.117-.265zm-.397-1.058c.09-.145.216-.264.28-.264.065 0 .117.119.117.264 0 .146-.126.265-.28.265-.154 0-.207-.12-.117-.265zm-5.556-.264c-.09-.146-.037-.265.117-.265s.28.119.28.265c0 .145-.053.264-.117.264s-.19-.119-.28-.264zm1.455 0a.265.265 0 01.53 0 .265.265 0 01-.53 0zm2.91.156c0-.05.18-.24.398-.421.228-.19.396-.216.396-.06 0 .147-.178.336-.396.42-.219.084-.397.111-.397.06zm-.793-.654c0-.146.119-.339.265-.429.145-.09.264-.044.264.102 0 .145-.119.338-.264.428-.146.09-.265.044-.265-.101zm-2.646-.312c0-.154.12-.206.265-.117.145.09.264.216.264.28 0 .065-.119.117-.264.117-.146 0-.265-.126-.265-.28zm-1.884-1.07c.328-.305.669-.482.758-.393.089.089-.068.335-.348.547-.78.59-1.085.475-.41-.153zm1.09.292a.265.265 0 01.53 0 .265.265 0 01-.53 0zm2.117-.364c0-.055.181-.25.403-.435.337-.28.376-.263.236.1-.142.371-.639.631-.639.335zm-3.572-.694c-.09-.146.03-.265.265-.265.235 0 .354.12.264.265-.09.145-.209.264-.264.264-.056 0-.175-.119-.265-.264zm1.588 0c-.09-.146-.038-.265.116-.265s.28.12.28.265c0 .145-.052.264-.116.264s-.19-.119-.28-.264zm1.19 0c0-.146.126-.265.28-.265.155 0 .207.12.117.265-.09.145-.216.264-.28.264-.064 0-.117-.119-.117-.264zm-5.027-.794c0-.146.126-.265.28-.265.155 0 .207.12.117.265-.09.145-.216.265-.28.265-.064 0-.117-.12-.117-.265zm2.91 0c0-.146.127-.265.28-.265.155 0 .207.12.117.265-.09.145-.216.265-.28.265-.064 0-.116-.12-.116-.265zm-2.116-.81c0-.154.119-.206.265-.116.145.09.264.216.264.28 0 .064-.119.117-.264.117-.146 0-.265-.126-.265-.28zm1.587.016c0-.145.127-.264.28-.264.155 0 .207.119.117.264-.09.146-.216.265-.28.265-.064 0-.117-.12-.117-.265zm1.853-.264c0-.146.126-.265.28-.265.154 0 .206.12.116.265-.09.145-.216.264-.28.264-.064 0-.116-.119-.116-.264zm-1.059-.217c0-.32.502-.693.686-.51.066.068-.06.273-.283.457-.251.208-.403.228-.403.053zm-.525-.765c.008-.396.46-.926.597-.7.075.124-.029.38-.232.568-.203.187-.367.247-.365.132zm17.48 10.81c-.194-.361-.2-.59-.017-.703.317-.196-.767-1.68-1.243-1.702-.173-.008-.386-.243-.474-.52-.088-.279-.445-.693-.794-.921-.348-.228-1.148-.938-1.778-1.577-1.124-1.14-3.098-2.403-3.355-2.146-.14.14 1.451 1.948 2.059 2.337.205.132 1 .878 1.769 1.658.767.78 1.523 1.418 1.678 1.418.155 0 .281.173.281.384 0 .211.155.48.344.596.19.116.62.605.955 1.086.648.929 1.057.993.574.09zm-95.271.226a.265.265 0 00-.265-.265.265.265 0 00-.265.265.265.265 0 00.53 0zM47.406 195.16c-.09-.146-.037-.265.117-.265s.28.12.28.265c0 .145-.052.265-.116.265-.065 0-.19-.12-.28-.265zm1.456 0c0-.146.119-.265.264-.265a.265.265 0 010 .53.265.265 0 01-.264-.265zm81.756-1.043c0-.137.118-.321.261-.41.15-.093.195.013.104.249-.175.458-.365.542-.365.161zm11.377-.81a.265.265 0 01.53 0 .265.265 0 01-.53 0zm2.402-.683c.013-.308.075-.37.16-.16.076.192.067.42-.021.508-.088.088-.15-.069-.139-.348zm-.947-.639c.09-.146.216-.265.28-.265.065 0 .117.12.117.265 0 .145-.126.265-.28.265-.154 0-.207-.12-.117-.265zm-1.19-.265c0-.145.126-.264.28-.264.154 0 .206.119.116.264-.09.146-.216.265-.28.265-.064 0-.116-.12-.116-.265zm5.577-.419c.012-.308.075-.37.16-.16.076.192.067.42-.021.508-.088.088-.15-.069-.14-.348zm-8.488-.125c0-.155.12-.207.265-.117.145.09.264.216.264.28 0 .064-.119.117-.264.117-.146 0-.265-.126-.265-.28zm11.245.015c.09-.145.216-.264.28-.264.064 0 .117.119.117.264 0 .146-.126.265-.28.265-.155 0-.207-.12-.117-.265zm6.218 0c0-.145.126-.264.28-.264.154 0 .206.119.116.264-.09.146-.216.265-.28.265-.064 0-.116-.12-.116-.265zm-12.171-.264c0-.146.119-.265.264-.265a.265.265 0 010 .53.265.265 0 01-.264-.265zm-.926-.265c.09-.145.216-.265.28-.265.064 0 .117.12.117.265 0 .146-.126.265-.28.265-.155 0-.207-.12-.117-.265zm7.54 0c0-.145.126-.265.28-.265.155 0 .207.12.117.265-.09.146-.216.265-.28.265-.064 0-.117-.12-.117-.265zm-3.535-.397c.084-.218.2-.397.256-.397.058 0 .104.179.104.397 0 .218-.115.397-.256.397-.14 0-.188-.179-.104-.397zm1.286-.132c.09-.146.216-.265.28-.265.065 0 .117.12.117.265 0 .145-.126.264-.28.264-.154 0-.207-.119-.117-.264zm-1.99-.403c-.183-.222-.283-.455-.22-.518.063-.062.26.12.437.404.384.615.256.682-.216.114zm2.537-.313c-.144-.377-.114-.408.148-.148.18.179.262.393.18.474-.081.081-.23-.065-.328-.326zm6.75-.232c.013-.308.076-.371.16-.16.077.19.067.42-.02.507-.089.088-.151-.068-.14-.347zm-6.106-.375c0-.146.126-.265.28-.265.154 0 .207.12.117.265-.09.145-.216.265-.28.265-.064 0-.117-.12-.117-.265zm18.389-.265c.09-.145.216-.264.28-.264.064 0 .116.119.116.264 0 .146-.126.265-.28.265-.154 0-.206-.12-.116-.265zm-12.304-.264a.265.265 0 01.53 0 .265.265 0 01-.53 0zm-1.687-.407c-.255-.666-.18-.837.132-.301.155.266.225.539.157.607-.068.068-.198-.07-.289-.306zm2.636-.028c-.243-.633-.054-.682.32-.082.178.284.216.517.085.517s-.314-.196-.405-.435zm2.905.093c.1-.261.247-.408.329-.327.081.082 0 .295-.181.475-.261.26-.292.229-.148-.148zm-8.33-.342c.012-.308.075-.37.16-.16.076.191.066.42-.022.508-.088.087-.15-.069-.139-.348zm14.795.139c0-.154.12-.207.265-.117.145.09.264.216.264.28 0 .065-.119.117-.264.117-.146 0-.265-.126-.265-.28zm-6.879-.778a.265.265 0 01.53 0 .265.265 0 01-.53 0zm1.852-.28c0-.154.12-.207.265-.117.145.09.264.216.264.28 0 .064-.119.117-.264.117-.146 0-.265-.126-.265-.28zm8.6.015c-.09-.145-.038-.264.116-.264s.28.119.28.264c0 .146-.053.265-.117.265s-.19-.12-.28-.265zm3.968 0c.09-.145.216-.264.28-.264.064 0 .117.119.117.264 0 .146-.126.265-.28.265-.155 0-.207-.12-.117-.265zm-11.642-.529c-.09-.145-.037-.264.117-.264s.28.119.28.264c0 .146-.052.265-.117.265-.064 0-.19-.12-.28-.265zm1.323 0c-.09-.145.012-.264.227-.264s.444-.15.509-.331c.065-.182.208-.247.318-.145.11.102.015.37-.21.595-.48.48-.622.504-.844.145zm-4.101-.529c0-.146.126-.265.28-.265.154 0 .207.12.117.265-.09.145-.216.265-.28.265-.064 0-.117-.12-.117-.265zm-1.852-.28c0-.154.119-.207.265-.117.145.09.264.216.264.28 0 .064-.119.117-.264.117-.146 0-.265-.126-.265-.28zm16.16-.139c.013-.308.076-.37.16-.16.077.191.067.42-.02.507-.089.088-.151-.068-.14-.347zm-12.191-.11c0-.146.119-.265.264-.265a.265.265 0 010 .53.265.265 0 01-.264-.265zm-3.175-.28c0-.155.119-.207.264-.117.146.09.265.216.265.28 0 .064-.12.117-.265.117-.145 0-.264-.126-.264-.28zm9.392-.25c-.09-.145-.037-.264.117-.264s.28.12.28.265c0 .145-.052.264-.116.264-.065 0-.19-.119-.28-.264zm2.514-.015c0-.154.119-.207.265-.117.145.09.264.216.264.28 0 .065-.119.117-.264.117-.146 0-.265-.126-.265-.28zm5.953.016c-.09-.146-.037-.265.117-.265s.28.12.28.265c0 .145-.053.264-.117.264s-.19-.119-.28-.264zm1.323 0c.09-.146.216-.265.28-.265.064 0 .117.12.117.265 0 .145-.126.264-.28.264-.154 0-.207-.119-.117-.264zm.98-.277c-.178-.284-.216-.517-.084-.517.237 0 .646.795.49.952-.046.045-.228-.15-.406-.435zm-19.369-.004c0-.154.12-.207.265-.117.146.09.265.216.265.28 0 .065-.12.117-.265.117-.145 0-.265-.126-.265-.28zm4.978.1c.19-.077.42-.068.507.02.088.088-.068.15-.347.14-.308-.013-.371-.076-.16-.16zm2.316-.271c-.144-.378-.114-.408.148-.149.18.18.262.393.18.475-.081.081-.23-.066-.328-.326zm-6.5-.078c0-.145.126-.265.28-.265.155 0 .207.12.117.265-.09.146-.216.265-.28.265-.064 0-.117-.12-.117-.265zm17.077.018c-.084-.135-.031-.32.117-.412.148-.092.269.02.269.246 0 .465-.16.533-.386.166zm-12.182-.283c.09-.145.216-.264.28-.264.064 0 .117.119.117.264 0 .146-.126.265-.28.265-.154 0-.207-.119-.117-.265zm3.704 0c.09-.145.216-.264.28-.264.065 0 .117.119.117.264 0 .146-.126.265-.28.265-.154 0-.207-.119-.117-.265zm1.19 0a.265.265 0 01.53 0 .265.265 0 01-.53 0zm6.35-.529c0-.145.127-.264.281-.264.154 0 .207.119.117.264-.09.146-.216.265-.28.265-.065 0-.117-.12-.117-.265zm-11.905-.28c0-.154.119-.206.264-.117.146.09.265.216.265.28 0 .065-.12.117-.265.117-.145 0-.264-.126-.264-.28zm5.295-.035c-.002-.246.115-.52.26-.61.336-.208.336.143 0 .66-.22.343-.256.336-.26-.05zm7.14-.494c0-.154.119-.207.265-.117.145.09.264.216.264.28 0 .065-.119.117-.264.117-.146 0-.265-.126-.265-.28zm-11.377-.249c-.21-.13-.294-.324-.186-.431.107-.107.334-.056.503.114.4.4.177.622-.317.317zm9.701-.176a.729.729 0 01-.176-.45c0-.166.123-.15.313.04.172.172.252.374.176.45-.075.075-.216.057-.313-.04zm3.677-.166c.1-.261.248-.408.33-.326.08.081 0 .295-.182.474-.26.26-.291.229-.148-.148zm7.789.062c0-.154.119-.207.264-.117.146.09.265.216.265.28 0 .064-.12.117-.265.117-.145 0-.264-.126-.264-.28zm-20.204-.381c-.084-.219-.05-.397.075-.397.126 0 .297.178.38.397.084.218.05.396-.075.396-.126 0-.297-.178-.38-.396zm1.418.132a.265.265 0 01.53 0 .265.265 0 01-.53 0zm8.237-.165c-.204-.23-.261-.508-.132-.638.13-.13.363.053.535.42.344.727.144.836-.403.218zm-7.433-.364c.004-.218.182-.628.395-.91.5-.66.497-.416-.007.55-.217.416-.392.578-.388.36zm2.636 0c0-.145.126-.265.28-.265.154 0 .207.12.117.265-.09.146-.216.265-.28.265-.065 0-.117-.12-.117-.265zm6.764-.187c-.144-.377-.114-.407.148-.148.18.18.262.393.18.474-.081.082-.23-.065-.328-.326zm8.978-.607c-.09-.145-.037-.264.117-.264s.28.119.28.264c0 .146-.052.265-.116.265-.065 0-.19-.12-.28-.265zm-9.392-.397c0-.218.115-.396.256-.396.14 0 .188.178.104.396-.084.219-.2.397-.256.397-.058 0-.104-.178-.104-.397zm-3.44-.412c0-.154.12-.207.265-.117.145.09.264.216.264.28 0 .065-.119.117-.264.117-.146 0-.265-.126-.265-.28zm8.07-.514c-.09-.145-.037-.264.117-.264s.28.119.28.264c0 .146-.053.265-.117.265s-.19-.12-.28-.265zm3.44-.264c-.09-.146-.038-.265.116-.265s.28.12.28.265c0 .145-.052.264-.116.264-.065 0-.19-.119-.28-.264zm-15.214-1.339c0-.154.119-.206.265-.116.145.09.264.216.264.28 0 .064-.119.116-.264.116-.146 0-.265-.126-.265-.28zm15.081 0c0-.154.12-.206.265-.116.145.09.264.216.264.28 0 .064-.119.116-.264.116-.146 0-.265-.126-.265-.28zm4.647-.062c.1-.26.248-.407.33-.326.08.082 0 .295-.181.474-.262.26-.292.23-.149-.148zm-7.436-.204c-.096-.155-.117-.34-.048-.409.07-.069.196.058.283.283.179.466.026.548-.235.126zm3.318-.38c0-.218.12-.396.265-.396.145 0 .265.178.265.396 0 .219-.12.397-.265.397-.146 0-.265-.178-.265-.397zm3.705-.38c0-.138.117-.323.261-.411.15-.093.194.013.104.249-.176.458-.365.542-.365.161zm1.893-.281c0-.364.06-.513.134-.33.073.181.073.479 0 .66-.074.183-.134.034-.134-.33zm-21.605 0c.09-.146.216-.265.28-.265.064 0 .117.12.117.265 0 .146-.126.265-.28.265-.154 0-.207-.12-.117-.265zm10.451 0a.265.265 0 01.53 0 .265.265 0 01-.53 0zm1.588-.016c0-.154.119-.206.264-.116.146.09.265.216.265.28 0 .064-.12.117-.265.117-.145 0-.264-.126-.264-.28zm1.852.016c0-.146.119-.265.264-.265a.265.265 0 010 .53.265.265 0 01-.264-.265zm2.91 0a.265.265 0 01.53 0 .265.265 0 01-.53 0zm-16.007-.53c-.09-.145-.038-.264.117-.264.154 0 .28.12.28.265 0 .145-.053.264-.117.264s-.19-.119-.28-.264zm1.455.147c0-.101.179-.363.397-.58.218-.22.397-.285.397-.147 0 .138-.179.4-.397.58-.218.182-.397.248-.397.147zm9.405-.477c.099-.327.288-.712.422-.854.133-.142.108.126-.056.596-.335.96-.645 1.18-.366.258zm12.026-.214c0-.154.12-.207.265-.117.145.09.264.216.264.28 0 .065-.119.117-.264.117-.146 0-.265-.126-.265-.28zm-22.225-.183c0-.112.238-.352.53-.534.29-.181.529-.239.529-.127 0 .112-.239.352-.53.534-.29.181-.529.239-.529.127zm3.704-.066c0-.145.12-.265.265-.265a.265.265 0 010 .53.265.265 0 01-.265-.265zm9.186-.341c-.32-.394-.41-.818-.3-1.404.089-.474.037-.915-.118-1.01-.345-.214-1.36.627-1.36 1.126 0 .3-.075.308-.396.042-.334-.277-.398-.23-.401.298-.003.505-.055.55-.265.23-.228-.348-.29-.349-.51-.007-.138.214-.335.304-.439.2-.104-.103-.348-.055-.544.107-.272.226-.355.194-.355-.135 0-.508-.3-.553-.74-.112-.247.247-.318.218-.318-.132 0-.247.126-.45.28-.45.154 0 .21-.113.124-.252-.277-.45.163-1.576.68-1.74.277-.088.504-.27.504-.404 0-.353.863-1.308 1.183-1.308.15 0 .606-.42 1.015-.932.41-.512.847-.868.974-.79.127.08.304.024.394-.122.252-.406 1.434-.211 1.911.316.393.434.387.543-.074 1.4-.275.51-.758 1.207-1.074 1.547-.315.34-.493.749-.394.908.22.358 1.067.258 1.323-.156.104-.168.421-.35.706-.404.539-.103 1.117-.325 2.9-1.115.581-.258 1.177-.44 1.322-.403.146.036.49.11.763.165.672.133.744.231.852 1.152.075.648-.052.878-.695 1.258-.433.256-.788.614-.788.797 0 .187-.174.264-.4.178-.3-.116-.354-.032-.215.339.163.434.132.45-.261.13-.324-.264-.447-.276-.447-.045 0 .176-.148.269-.33.208-.182-.062-.476.077-.653.308-.213.278-.326.308-.331.09-.015-.6-.538-.344-.542.264-.002.355-.082.473-.198.29-.193-.302-1.598-.318-2.076-.022-.137.084-.455-.1-.707-.41zm5.763.341c.09-.145.216-.265.28-.265.065 0 .117.12.117.265 0 .146-.126.265-.28.265-.154 0-.207-.12-.117-.265zm-7.011-.53c0-.145.126-.264.28-.264.154 0 .207.12.117.265-.09.145-.216.264-.28.264-.065 0-.117-.119-.117-.264zm-12.17-.264c0-.145.125-.264.28-.264.153 0 .206.119.116.264-.09.146-.216.265-.28.265-.064 0-.117-.12-.117-.265zm19.578-.015c0-.154.12-.207.265-.117.145.09.264.216.264.28 0 .064-.119.117-.264.117-.146 0-.265-.126-.265-.28zM43.102 172.79c-1.786-1.877-2.057-3.538-.658-4.024.844-.293 1.92.073 1.92.653 0 .205.105.307.234.227.674-.416 1.484 1.96 1.082 3.176-.377 1.143-1.472 1.13-2.578-.032zm131.701.13c0-.155.12-.207.265-.117.145.09.264.216.264.28 0 .064-.119.117-.264.117-.146 0-.265-.127-.265-.28zm-4.294-1.088c.153-.154.435-.227.626-.164.198.066.078.186-.28.28-.44.115-.543.08-.346-.116zm1.648-1.558c0-.155.12-.207.265-.117.146.09.265.216.265.28 0 .064-.12.117-.265.117-.145 0-.265-.126-.265-.28zm-134.155-4.5c-.534-.75-.55-.882-.207-1.785.31-.82.51-.99 1.25-1.06 1.7-.165 2.8 1.877 1.763 3.275-.322.433-.464.463-.914.188-.335-.205-.592-.23-.693-.066-.273.441-.6.291-1.199-.551zm-26.314-47.872c-.09-.146-.478-.265-.861-.265-.384 0-1.002-.289-1.374-.642-.372-.354-.843-.681-1.047-.728-.204-.047-.71-.43-1.124-.852-.415-.422-.754-.666-.754-.543s-.394-.16-.877-.627c-.483-.468-.945-.783-1.028-.7-.083.083-.373-.13-.644-.472-.271-.343-.9-.855-1.396-1.138-.497-.284-1.298-.904-1.78-1.379-.756-.742-.864-1.008-.778-1.903.103-1.072.842-2.125 4.585-6.532.327-.385.595-.841.595-1.013 0-.172.298-.592.662-.933.364-.342.662-.75.663-.906.001-.157.401-.557.89-.89.726-.494 1.09-.571 2.003-.425.654.104 1.243.382 1.423.67.17.27.416.492.55.492.132 0 .686.447 1.231.992 1.549 1.552 2.64 2.463 3.325 2.775.347.158.63.438.63.624 0 .185.239.412.53.504.29.092.529.279.529.415 0 .135.09.228.198.205.444-.094 1.125.39 1.125.8 0 .242.259.556.575.7.316.144.61.44.651.658.393 2.05.39 2.082-.155 2.374-.321.172-.542.556-.542.943 0 .358-.123.652-.274.652-.15 0-.519.416-.82.926-.3.509-.635.87-.744.802-.11-.067-.366.197-.57.588-.35.672-1.007 1.494-2.235 2.798-.298.317-.617.77-.708 1.01-.092.237-.55.624-1.02.858-.996.497-1.212.521-1.434.162zm1.182-4.168c.005-.181.102-.33.216-.33s.402-.33.64-.732c.238-.403.799-1.116 1.247-1.585.449-.47.816-1.103.816-1.407 0-.323.136-.508.328-.444.542.18 1.131-.584.824-1.07-.458-.727-.781-.627-1.305.402-.28.55-.628 1.087-.773 1.194-.146.107-.166.196-.045.198.121.002-.274.479-.878 1.059-.66.635-1.02 1.18-.904 1.368.131.212.052.258-.247.144-.318-.122-.44-.025-.44.352 0 .576-.421.71-.596.19-.086-.254-.22-.24-.58.056-.416.343-.508.333-.82-.092-.197-.271-.501-.402-.698-.301-.192.098-.144.01.105-.195.287-.235.361-.465.203-.624-.159-.158.186-.708.935-1.49.653-.68 1.186-1.42 1.186-1.644 0-.223.157-.406.349-.406.191 0 .615-.476.943-1.059.327-.582.706-1.058.842-1.058s.248-.179.248-.397c0-.218-.103-.397-.23-.397-.203 0-1.266-.931-4.23-3.707l-.887-.83-.435.58c-.24.32-.644.805-.899 1.078-.255.274-.463.677-.463.895a.406.406 0 01-.412.397c-.227 0-.34.119-.25.264.09.146.04.265-.11.265-.152 0-.525.49-.83 1.089-.306.598-.766 1.143-1.023 1.21-.257.067-.627.53-.822 1.028-.196.499-.46.906-.587.906-.127 0-.152.128-.056.283.096.155.341.219.545.14.203-.078.37-.018.37.134 0 .151.179.453.397.672.218.218.397.334.397.258 0-.076.312.151.695.505.382.355.786.588.898.518.112-.069.275.06.362.288.112.293.333.359.753.225.529-.168.555-.14.234.246-.329.397-.23.55.299.467.11-.017.198.095.198.249s.107.214.237.134c.13-.081.305.031.389.248.083.218.466.396.85.396.5 0 .656.108.55.383-.104.273-.016.337.303.223.247-.089.362-.065.255.053-.107.118.007.362.254.542.364.266.56.246 1.046-.106.329-.238.601-.582.606-.764zm-4.754-3.212c0-.142-.238-.333-.53-.426-.815-.258-.658-1.285.331-2.162.473-.42 1.028-1.085 1.233-1.478.494-.948 1.288-1.783 1.695-1.783.18 0 .54.248.8.551.454.53.454.598-.001 1.698-.261.63-.558 1.095-.66 1.031-.103-.063-.4.244-.659.684-.26.439-.536.798-.616.798-.079 0-.47.302-.869.672-.398.37-.725.556-.725.415zm9.868-50.101c-.32-.423-.872-2.347-.872-3.041 0-.293-.182-.683-.403-.867-.222-.183-.342-.526-.268-.76.162-.51-.824-2.234-1.158-2.027-.128.079-.299-.03-.38-.241-.227-.59-2.653-1.723-3.318-1.549-.348.091-.77-.024-1.064-.29-.268-.243-.637-.407-.82-.364-.184.042-.434-.278-.557-.712-.19-.678-.12-.872.5-1.38.396-.326.868-.54 1.047-.478.18.063.448-.112.595-.388.148-.275.537-.585.864-.687.526-.164 1.352-.924 2.19-2.012.617-.804 1.097-2.587 1.075-4.001-.013-.83.041-1.51.12-1.51.08 0 .139-.618.133-1.374-.01-1.228.066-1.419.714-1.786.866-.491 1.637-.153 1.689.742.018.311.063.596.1.632.075.075.234 1.009.37 2.183.317 2.738 1.98 5.447 4.2 6.837.405.254.846.393.981.31.135-.084.667.024 1.183.24.786.328.938.523.938 1.205 0 .639-.157.879-.728 1.115-.4.165-.817.281-.926.258-.109-.024-.198.076-.198.222 0 .145-.175.264-.388.264-.546 0-2.094 1.61-2.506 2.606-.19.459-.463.834-.607.834-.143 0-.19.278-.105.618.085.342-.003.835-.198 1.101-.245.335-.314 1.02-.227 2.235.12 1.694.101 1.764-.58 2.074-.886.404-1.084.403-1.396-.009zm.707-8.74c.176-.552.661-1.255 1.078-1.563.908-.671.742-1.192-.658-2.057-.544-.336-1.051-.938-1.247-1.479-.181-.501-.41-.912-.509-.912-.211 0-.935.834-.839.967.191.264-.008.688-.692 1.472-.99 1.135-1.296 2.06-.68 2.06.467 0 2.761 2.284 2.761 2.75 0 .503.461-.223.786-1.239z" />
</svg>