<svg width="0" height="0" class="hidden">
    <symbol id="9562781_yeah_rock and roll_cool_rock_done_icon.min" version="1.1" xml:space="preserve"
        xmlns="http://www.w3.org/2000/svg" viewBox="0 0 76.3 81.002">
        <g id="prefix__Layer_2_00000080180990768764634210000015267283339781200810_">
            <g id="prefix__Layer_1-2">
                <path
                    d="M72.593 54.241a7.21 7.21 0 00-2.169-.914c-.099-.025-.19-.03-.287-.05.393-1.329.685-2.685.874-4.057.927-6.745.76-11.618-2.765-16.089-.266-1.196-.827-3.72-1.687-7.672l6.787-7.554a3.502 3.502 0 00-.969-5.435l3.474-6.173a3.5 3.5 0 00-3.693-5.157l-10.48 1.824a3.5 3.5 0 00-2.331 1.532 9.127 9.127 0 00-4.428-3.306 6.759 6.759 0 00-2.624-.539 8.13 8.13 0 00-6.383 2.818c-2.565 2.995-3.279 7.993-2.178 15.273a12.159 12.159 0 00-6.603-.35c-.868.195-1.722.447-2.557.755-2.713-5.168-6.345-10.434-10.32-11.706a6.664 6.664 0 00-2.585-.543 7.322 7.322 0 00-6.402 3.675 11.77 11.77 0 00-1.462 6.141 3.448 3.448 0 00-4.35.474l-6.65 6.661a3.257 3.257 0 00-.455.575l-.17.17a3.501 3.501 0 00-.86 3.521L4.54 38.363A3.5 3.5 0 008.2 40.8l2.735 6.398a3.482 3.482 0 001.08 1.385 5.368 5.368 0 00-3.107-.352 7.483 7.483 0 00-5.88 5.209c-1.466 4.405.14 10.126 2.675 13.817-.453 2.242-.768 5.696.569 8.112A5.37 5.37 0 008.75 77.7c1.218.963 3.474 1.91 6.873.185a10.47 10.47 0 003.29-2.723c.327.244.675.459 1.041.64a6.653 6.653 0 002.167 1.12 18.791 18.791 0 007.57.8c.516.346 1.093.59 1.7.717a5.896 5.896 0 005.34-1.512 5.167 5.167 0 001.859 1.401 5.257 5.257 0 003.736 1.114 7.729 7.729 0 001.699-.335c.226.152.462.287.707.406a6.063 6.063 0 003.684 1.288 4.717 4.717 0 003.865-1.81c.39.319.818.583 1.277.788a6.017 6.017 0 003.687 1.222 4.641 4.641 0 003.819-1.882 6.226 6.226 0 008.943-2.725 6.207 6.207 0 00.403-3.994 11.806 11.806 0 004.098-5.972c.934-2.598 3.384-9.423-1.916-12.188z"
                    opacity=".5" fill="#231f20"></path>
                <path
                    d="M71.435 53.59a7.21 7.21 0 00-2.17-.914c-.098-.026-.189-.03-.286-.051.393-1.328.685-2.684.874-4.057.926-6.744.76-11.617-2.765-16.088-.267-1.196-.827-3.721-1.688-7.672l6.787-7.555a3.502 3.502 0 00-.968-5.434l3.473-6.173A3.5 3.5 0 0071 .488L60.52 2.313a3.5 3.5 0 00-2.332 1.532A9.127 9.127 0 0053.761.539 6.759 6.759 0 0051.137 0a8.13 8.13 0 00-6.383 2.818c-2.566 2.995-3.28 7.992-2.179 15.272a12.159 12.159 0 00-6.602-.35c-.868.195-1.722.448-2.557.756-2.714-5.168-6.346-10.434-10.32-11.707a6.664 6.664 0 00-2.585-.542 7.322 7.322 0 00-6.403 3.674 11.77 11.77 0 00-1.461 6.142 3.448 3.448 0 00-4.351.473l-6.65 6.662a3.258 3.258 0 00-.455.575l-.169.169a3.501 3.501 0 00-.86 3.522l3.22 10.248a3.5 3.5 0 003.659 2.435l2.734 6.398a3.482 3.482 0 001.081 1.385 5.368 5.368 0 00-3.107-.352 7.483 7.483 0 00-5.88 5.21c-1.467 4.404.139 10.126 2.675 13.817-.453 2.241-.769 5.695.568 8.111a5.37 5.37 0 002.48 2.334c1.219.962 3.474 1.91 6.874.184a10.47 10.47 0 003.289-2.723c.327.245.676.46 1.042.641a6.652 6.652 0 002.167 1.12 18.79 18.79 0 007.57.8c.516.346 1.093.59 1.7.717a5.895 5.895 0 005.34-1.513 5.167 5.167 0 001.859 1.402 5.257 5.257 0 003.736 1.114 7.729 7.729 0 001.698-.335c.226.151.462.287.707.406a6.063 6.063 0 003.685 1.287 4.717 4.717 0 003.865-1.809c.389.318.818.583 1.276.788a6.017 6.017 0 003.688 1.222 4.641 4.641 0 003.819-1.882 6.226 6.226 0 008.943-2.725 6.207 6.207 0 00.402-3.994 11.806 11.806 0 004.098-5.972c.934-2.599 3.384-9.424-1.915-12.188z"
                    fill="#fff"></path>
                <path
                    d="M4.124 25.671l6.65-6.662 1.187 12.892 3.003-3.168-1.97 16.437-3.832-11.168-1.816 1.917zM63.857 34.068s-.997-4.414-3.044-13.903c-2.034-9.43-5.235-16.441-9.045-16.441-5.598 0-6.233 6.77-5.071 14.265 1.162 7.496 1.77 8.463 1.77 8.463s-4.552-6.55-11.094-5.074a14.362 14.362 0 00-5.324 2.285S25.977 9.97 21.14 9.97s-5.748 7.455-2.297 13.863c3.451 6.407 4.957 8.019 4.957 8.019s-6.817 17.147-.031 26.623c5.955 8.315 15.51 9.884 24.697 8.315a21.907 21.907 0 0017.918-18.698c.938-6.82.535-10.54-2.528-14.024z">
                </path>
                <path
                    d="M63.227 33.845c3.063 3.484 3.465 7.203 2.528 14.023a21.907 21.907 0 01-17.918 18.699c-9.188 1.568-18.743 0-24.698-8.316-6.785-9.476.031-26.623.031-26.623s-1.505-1.612-4.956-8.02S15.675 9.747 20.51 9.747 31.418 23.44 31.418 23.44a14.362 14.362 0 015.325-2.285c6.542-1.475 11.094 5.074 11.094 5.074s-.609-.967-1.77-8.462S45.54 3.5 51.136 3.5c3.811 0 7.012 7.012 9.046 16.442 2.046 9.488 3.044 13.903 3.044 13.903z">
                </path>
                <path
                    d="M31.418 23.44c-3.435 2.72-4.679 7.07-2.807 12.39 2.734 7.773 6.593 8.138 8.132 7.203 1.477-.898 3.882-5.682 2.36-12.573M63.227 33.845c-4.514-2.297-10.47-1.33-15.39 0-1.718.464-6.037 2.583-6.037 5.404 0 7.006 11.738 7.012 11.738 7.012-6.77.966-8.215 8.251-8.215 8.251">
                </path>
                <path d="M47.837 26.228c.771.91 1.388 1.942 1.824 3.053" fill="none" stroke="#22093a"
                    stroke-linecap="round" stroke-linejoin="round"></path>
                <path d="M3.5 26.414l6.65-6.662 1.187 12.893 3.003-3.169-1.346 15.694-4.456-10.424-1.816 1.916z"></path>
                <path d="M61.835 5.761l9.806-1.832-6.805 12.097 4.748-1.112-11.735 13.062 3.25-11.841-3.483.553z">
                </path>
                <path d="M61.118 5.761l9.905-1.716-6.905 11.981 4.572-.916-10.841 12.866 2.533-11.841-2.766.553z">
                </path>
                <path
                    d="M5.891 27.401l.707 2.563M61.907 10.352c-.57 1.92-.962 3.321-.962 3.321M62.712 7.692c-.17.548-.089.285-.245.802M61.372 19.996l-.12.911M11.61 37.773l.285 1.191M19.206 14.095c-.988 1.287-1.045 4.819 1.803 9.604M22.787 43.118a21.062 21.062 0 00.614 8.533M23.401 39.468a33.072 33.072 0 00-.312 1.542M30.125 33.85c.114.496.265.982.454 1.454M32.988 24.78c-1.783 1.311-3.258 2.849-3.26 5.697M47.837 8.84a18.888 18.888 0 000 7.054">
                </path>
                <path
                    d="M57.457 56.713c-2.138-.202-3.607 2.192-4.29 7.77a23.836 23.836 0 00-1.965-.215c.499-4.864-.018-7.524-2.443-7.754-2.329-.22-3.867 2.63-4.457 9.335-.59 6.704-.05 10.735 3.033 10.802 1.51.033 2.347-2.63 2.992-6.26.343.022.702.033 1.09.024.494-.013.946-.047 1.375-.096.016 4.107.885 6.48 3.24 6.531 2.028.044 2.843-4.772 3.609-10.268.865-6.21.572-9.608-2.184-9.869z">
                </path>
                <path
                    d="M40.88 75.304c2.214-.184 3.75-1.938 4.09-4.403.37-2.667 1.682-15.5-5.001-16.351-3.479-.443-6.431 3.117-8.23 7.413-1.95 4.662-3.492 11.826-.777 12.402 4.36.926 7.308-11.542 7.308-11.542s-1.704 12.839 2.61 12.48z">
                </path>
                <path
                    d="M33.126 56.333c-.849-1.846-8.931-2.826-11.43 1.537-1.63 2.848-4.813 13.527.272 15.049s9.636.734 9.906-2.101c.27-2.835-6.393-3.462-6.393-3.462s5.754.126 6.234-2.795c.48-2.92-5.607-2.378-5.607-2.378s9.294-.898 7.018-5.85z">
                </path>
                <path
                    d="M19.56 52.901c-4.443-.294-5.717 9.99-5.717 9.99s-.183-11.957-4.407-11.206c-5.532.984-3.846 10.664-.002 14.772-.611 1.552-2.314 10.578 3.45 7.656 3.134-1.59 7.246-9.382 8.018-11.28 1.517-3.731 3.13-9.636-1.342-9.932zM68.82 56.319c-1.526-.396-2.96.31-5.456 6.538-2.229 5.56-.032 6.39.552 6.542s3.936 1.337 6.14-4.804 1.023-7.69-1.237-8.276z">
                </path>
                <circle cx="63.153" cy="73.144" r="2.762"></circle>
                <path
                    d="M56.383 56.052c-2.137-.202-3.606 2.192-4.29 7.77a23.835 23.835 0 00-1.965-.216c.5-4.863-.017-7.523-2.442-7.753-2.33-.22-3.868 2.63-4.458 9.335s-.049 10.735 3.034 10.802c1.509.033 2.346-2.63 2.992-6.26.343.022.702.033 1.09.024.493-.013.946-.047 1.374-.096.017 4.107.885 6.48 3.241 6.531 2.027.044 2.843-4.772 3.608-10.268.865-6.21.573-9.608-2.184-9.869z">
                </path>
                <path
                    d="M38.895 53.889c-3.478-.443-6.43 3.117-8.228 7.413-1.951 4.661-3.494 11.826-.779 12.402 2.025.43 3.744-2.028 5.006-4.785l2.042.54c.205 2.82.925 5.345 2.87 5.184 2.215-.184 3.75-1.938 4.092-4.403.368-2.667 1.681-15.5-5.003-16.351zm-1.698 8.273s-.26 1.974-.32 4.351l-.94-.18a44.145 44.145 0 001.26-4.17z">
                </path>
                <path
                    d="M32.052 55.672c-.848-1.846-8.93-2.826-11.429 1.537-1.63 2.848-4.813 13.527.271 15.049s9.637.734 9.906-2.101-6.392-3.462-6.392-3.462 5.754.126 6.233-2.795-5.607-2.378-5.607-2.378 9.294-.898 7.018-5.85z">
                </path>
                <path
                    d="M18.487 52.24c-4.443-.294-5.717 9.99-5.717 9.99s-.183-11.957-4.407-11.206c-5.533.984-3.846 10.664-.002 14.772-.612 1.552-2.314 10.578 3.449 7.656 3.135-1.59 7.247-9.382 8.018-11.28 1.518-3.731 3.131-9.636-1.341-9.932zM68.386 56.064c-1.525-.396-3.6-.096-6.096 6.132-2.228 5.56-.032 6.39.553 6.542s3.935 1.337 6.14-4.804 1.663-7.283-.597-7.87z">
                </path>
                <circle cx="62.08" cy="72.483" r="2.762"></circle>
                <path
                    d="M8.23 52.977c-1.063.456-2.164 2.24-1.177 6.38M9.544 71.609c.168.874 1.8.317 3.016-1.164M28.664 56.097c.995.047 1.813.377 1.688 1.475M25.965 56.319c.37-.119.752-.193 1.139-.222M39.009 55.841c-.987-.206-2.791-.206-4.633 2.984M47.477 57.572c.589.095 1.216.797 1.083 3.684M56.344 57.762c.608.095 1.159.607.95 2.45M63.11 65.43c-.097.41-.156.826-.177 1.246M67.872 57.667c-.664-.057-1.76-.183-3.342 3.512a29.74 29.74 0 00-.844 2.195M61.887 71.29a1.209 1.209 0 00-.702 1.92">
                </path>
                <path d="M62.391 47.386a25.79 25.79 0 01-2.395 7.372M62.856 43.397a18.033 18.033 0 01-.163 2.1"></path>
            </g>
        </g>
    </symbol>
    <symbol id="9562794_ok_hand_gesture_yes_okay_icon.min" version="1.1" xml:space="preserve"
        xmlns="http://www.w3.org/2000/svg" viewBox="0 0 70.151 75.669">
        <g id="prefix__Layer_2_00000085229774773510653280000005005917250105545902_">
            <g id="prefix__Layer_1-2">
                <path
                    d="M69.3 31.982a9.082 9.082 0 00-3.237-4.855 7.546 7.546 0 00-4.32-1.665c-.076-.244-.158-.49-.248-.735C59.247 17.5 52.201 10.981 44.2 12.545a12.46 12.46 0 00-5.373 2.514c-1.655-4.93-6.192-13.786-12.34-14.13-3.856-.205-5.936 1.469-7.02 2.918a9.587 9.587 0 00-1.696 5.617 6.46 6.46 0 00-5.013 2.51c-2.166 2.674-2.095 6.358-1.584 9.146a6.284 6.284 0 00-1.227.917A6.092 6.092 0 008.1 26.659c.019.974.218 1.936.587 2.837a15.44 15.44 0 002.463 4.456 25.22 25.22 0 013.561 6.507c.322 1.05.688 2.536 1.041 4.098-1.163-.3-2.37-.39-3.565-.267-7.032.78-11.394 6.742-11.112 15.186.19 5.642 2.5 8.85 4.505 10.58a11.104 11.104 0 009.358 3.683 12.18 12.18 0 005.254-1.824c.312.522.704.993 1.16 1.396a5.123 5.123 0 002.857 2.114 6.108 6.108 0 004.88-.645 7.705 7.705 0 002.229-2.081l.04.038a6.518 6.518 0 003.89 2.704 6.812 6.812 0 004.845-.769 6.418 6.418 0 003.438.998 6.342 6.342 0 006.254-5.265c9.48-3.328 13.234-10.27 15.125-13.768 1.607-2.972 7.394-16.625 4.388-24.655z"
                    opacity=".5" fill="#231f20"></path>
                <path
                    d="M68.236 31.07a9.082 9.082 0 00-3.237-4.855 7.546 7.546 0 00-4.32-1.665c-.075-.245-.158-.49-.247-.735-2.248-7.227-9.295-13.746-17.296-12.182a12.46 12.46 0 00-5.372 2.513C36.109 9.217 31.572.361 25.424.017c-3.856-.206-5.936 1.469-7.021 2.918a9.587 9.587 0 00-1.696 5.616 6.46 6.46 0 00-5.013 2.51C9.53 13.737 9.6 17.42 10.112 20.21a6.284 6.284 0 00-1.228.916 6.092 6.092 0 00-1.846 4.622c.02.974.218 1.936.587 2.838a15.44 15.44 0 002.463 4.455 25.219 25.219 0 013.562 6.508c.321 1.05.687 2.536 1.04 4.098-1.163-.3-2.37-.391-3.565-.268C4.092 44.158-.269 50.12.013 58.563c.19 5.643 2.5 8.85 4.505 10.581a11.104 11.104 0 009.357 3.683 12.18 12.18 0 005.254-1.824c.313.522.705.993 1.161 1.396a5.123 5.123 0 002.857 2.114 6.108 6.108 0 004.879-.645 7.705 7.705 0 002.23-2.082l.04.039a6.518 6.518 0 003.889 2.704 6.812 6.812 0 004.845-.77 6.418 6.418 0 003.438.998 6.342 6.342 0 006.255-5.264c9.48-3.328 13.233-10.27 15.125-13.768 1.606-2.972 7.393-16.626 4.388-24.655z"
                    fill="#fff"></path>
                <path
                    d="M63.162 29.778c-5.308-3.948-6.057 5.14-9.367 8.962-3.47 4.006-7.235 2.986-9.026-1.714-1.727-4.53-1.618-10.364 3.283-9.65 3.765.55 5.007 8.754 8.104 5.912 5.35-4.908-2.601-19.32-12.097-17.465a10.285 10.285 0 00-7.83 6.238l.116-.776a22.22 22.22 0 00-.82 2.742c-.057.192-.032.122.072-.32 1.42-6.04-5.14-19.162-10.117-19.44-8.042-.449-4.012 10.909-4.012 10.909s-.132-.14-.351-.343l-.09-.104.013.033c-1.122-1.02-4.225-3.395-6.374-.741-2.486 3.068.003 9.415.003 9.415s-3.934-.237-3.88 3.01c.054 3.246 3.928 5.328 6.29 12.298 1.136 3.35 2.871 12.626 2.871 12.626 1.602 6.557 8.528 18.47 22.997 15.997 11.3-1.932 15.336-8.715 17.82-13.308 2.382-4.407 8.046-20.078 2.395-24.281z">
                </path>
                <path
                    d="M19.696 50.614c1.601 6.557 8.528 18.47 22.996 15.997 11.301-1.932 15.337-8.715 17.82-13.308 2.383-4.407 8.046-20.078 2.396-24.281-5.308-3.948-6.057 5.14-9.368 8.962-3.47 4.006-7.234 2.986-9.025-1.714-1.727-4.53-1.618-10.364 3.283-9.65 3.765.55 5.006 8.754 8.104 5.912 5.35-4.908-2.601-19.32-12.097-17.465-6.798 1.328-9.104 10.613-8.463 7.884 1.42-6.04-5.14-19.162-10.116-19.44-8.042-.449-4.013 10.909-4.013 10.909s-4.136-4.446-6.801-1.155c-2.486 3.069.003 9.415.003 9.415s-3.934-.237-3.88 3.01 3.927 5.328 6.29 12.298c1.136 3.35 2.871 12.626 2.871 12.626z"
                    fill="#fcc707" stroke="#22093a" stroke-linecap="round" stroke-linejoin="round"></path>
                <path
                    d="M14.415 22.68c1.517 1.062 3.476 3.961 4.637 5.927 2.065 3.499 3.764 9.92 3.764 9.92M20.774 13.973a24.088 24.088 0 014.391 7.645c2.296 7.347 2.55 9.142 2.994 12.541M36.09 20.53a26.507 26.507 0 00-1.533 10.215">
                </path>
                <path
                    d="M16.92 14.559c-.836-.114-2.505 1.785-1.216 5.468M19.437 40.31a49.7 49.7 0 01.434 2.388M12.505 26.298a13.95 13.95 0 002.44 3.907M45.932 17.103c-1.75-.57-6.47 1.291-8.24 6.684M37.046 25.951a17.96 17.96 0 00-.38 3.152M58.065 33.97c.627-1.924 2.298-4.15 3.38-3.5M44.508 41.008a5.025 5.025 0 006 1.69M23.658 5.9c-2.808 1.298-2.087 4.717-.165 8.073">
                </path>
                <path
                    d="M12.53 47.854c3.716-.413 9.576 2.916 9.58 10.184s-4.53 10.885-8.597 11.307c-3.67.38-8.723-2.17-8.982-9.901-.213-6.335 2.542-10.983 8-11.59z">
                </path>
                <path
                    d="M13.404 53.437c.524-.305 1.355 1.06 1.365 4.425s-.625 5.18-1.199 5.5c-.517.288-1.233-.74-1.28-4.313-.038-2.928.345-5.165 1.114-5.612zM24.622 50.63c-3.293.742-4.186 19.502-.545 20.509 4.285 1.185 5.524-7.444 5.524-7.444s3.224 7.057 5.16 7.38c5.14.863 4.615-5.474-.535-10.972 0 0 8.174-6.407 3.062-9.004-3.54-1.799-7.54 7.207-7.54 7.207s-.523-8.714-5.126-7.676zM45.244 50.424c-1.64-.033-3.67.773-4.693 7.686-.914 6.172 1.512 6.482 2.14 6.494s4.31.404 5.06-6.35-.076-7.781-2.507-7.83z">
                </path>
                <circle cx="42.457" cy="68.382" r="2.876"></circle>
                <path
                    d="M11.509 46.855c3.716-.413 9.575 2.916 9.579 10.183s-4.53 10.886-8.597 11.308c-3.67.38-8.723-2.17-8.982-9.901-.213-6.335 2.542-10.984 8-11.59z">
                </path>
                <path
                    d="M12.382 52.438c.524-.305 1.355 1.06 1.365 4.425s-.625 5.18-1.198 5.5c-.518.288-1.234-.74-1.28-4.313-.039-2.928.344-5.165 1.113-5.612z">
                </path>
                <path
                    d="M23.67 49.56c-3.293.742-4.186 19.502-.545 20.51 4.285 1.184 5.525-7.445 5.525-7.445s3.224 7.057 5.159 7.382c5.14.861 4.615-5.475-.534-10.973 0 0 8.173-6.407 3.062-9.004-3.54-1.8-7.541 7.206-7.541 7.206s-.523-8.713-5.126-7.676zM44.278 49.369c-1.64-.033-3.67.773-4.694 7.686-.913 6.172 1.512 6.481 2.141 6.494s4.31.404 5.06-6.35-.076-7.782-2.507-7.83z">
                </path>
                <circle cx="41.857" cy="67.527" r="2.876"></circle>
                <path
                    d="M10.788 48.907c-2.413 0-5.944 3.49-5.375 9.694M22.794 59.827a26.359 26.359 0 00.312 5.76c.669 3.293 1.65 1.794 1.65 1.794M43.55 51.072c-.48.164-1.89 2.364-2.268 5.335s-.252 3.873 0 4.747M41.157 66.508a1.14 1.14 0 00-.214 1.71M5.698 60.79a6.34 6.34 0 001.025 2.618">
                </path>
            </g>
        </g>
    </symbol>
    <symbol id="9562798_star_pleased_happy_cute_success_icon.min" version="1.1" xml:space="preserve"
        xmlns="http://www.w3.org/2000/svg" viewBox="0 0 81.006 77.415">
        <g id="prefix__Layer_2_00000081617581296249403410000005570550505570376068_">
            <g id="prefix__Layer_1-2">
                <path
                    d="M78.723 44.135c-1.639-.991-5.671-1.776-9.04-1.764a58.717 58.717 0 008.669-16.009 3.5 3.5 0 00-1.976-4.326c-2.695-1.126-8.662-1.606-14.127-1.8 3.891-2.3 7.53-8.452 7.575-8.537 2.221-4.298-.484-6.389-1.05-6.764a4.54 4.54 0 00-5.005.046 9.526 9.526 0 00-1.745 1.438 4.434 4.434 0 00-7.238-4.705c-1.94 1.72-3.228 5.602-2.598 7.839a3.948 3.948 0 003.102 2.867h.001c.225.04.454.06.682.06a4.003 4.003 0 001.823-.454c-1.198 2.066-2.021 4.122-1.907 5.496a3.939 3.939 0 001.271 2.6 225.84 225.84 0 00-2.408-.01c-1.86-9.978-9.606-16.127-10.94-17.122-.52-.479-.832-.733-.832-.733a3.517 3.517 0 00-4.421-.017 35.172 35.172 0 00-10.346 15.925c-.061-1.243-.819-2.587-2.47-4.43.393.139.806.214 1.223.224a3.735 3.735 0 002.278-.768c3.156-2.41.649-8.297.056-9.28a4.388 4.388 0 00-8.343 2.006 9.31 9.31 0 001.238 4.311 29.987 29.987 0 00-5.285-3.91c-4.453-2.396-6.593.022-7.145.82a4.66 4.66 0 00.006 5.147c1.61 2.837 7.719 7.48 11.975 9.173-4.947.358-10.899 1.294-14.998 3.65a3.5 3.5 0 00-1.61 4.036c1.817 6.086 7.647 12.537 11.647 16.423-3.85-2.127-12.532.432-12.628.47-3.11 1.24-3.663 3.654-3.192 5.345v.002a4.426 4.426 0 003.742 3.13c.473.076.951.112 1.43.105 3.006 0 8.012-1.013 10.558-2.687a41.305 41.305 0 00-.975 4.194 3.687 3.687 0 00-1.048-1.17c-3.062-2.223-7.47 1.453-8.209 2.27a4.275 4.275 0 00-.277 5.913 4.163 4.163 0 003.16 1.41 4.843 4.843 0 001.314-.187 9.13 9.13 0 004.49-3.494 42.623 42.623 0 00.24 7.996l.028.29c.05.504.099 1.008.174 1.527a3.5 3.5 0 004.5 2.841 65.11 65.11 0 0016.222-7.991 41.124 41.124 0 00-.344 6.834c.488 4.667 3.562 5.045 4.493 5.05h.018a4.445 4.445 0 004.045-2.743c1.008-2.06 1.42-6.633 1.09-10.365.876.641 1.777 1.247 2.689 1.818-.101.063-.204.123-.3.197-3.012 2.3-.759 7.574-.19 8.517a4.425 4.425 0 003.818 2.357 4.223 4.223 0 001.762-.389 4.285 4.285 0 002.462-3.932 7.694 7.694 0 00-.722-3.103 70.605 70.605 0 009.928 3.686 3.501 3.501 0 004.385-2.916 43.57 43.57 0 00-.582-13.85c.205.364.458.699.751.996a8.64 8.64 0 005.567 2.163 4.817 4.817 0 001.543-.231 3.733 3.733 0 002.549-3.075c.244-1.972-1.13-3.45-2.593-4.427 3.783-.414 4.249-3.249 4.306-3.848a4.363 4.363 0 00-2.266-4.135zm-22.17-38.8l.025-.138.052.014c-.025.042-.052.08-.077.124zm-4.344 66.58c-.013-.045-.023-.087-.037-.132l.08.104c-.015.01-.03.017-.043.028z"
                    opacity=".5" fill="#231f20"></path>
                <path
                    d="M77.906 43.648c-1.64-.991-5.672-1.775-9.04-1.763a58.717 58.717 0 008.669-16.01 3.5 3.5 0 00-1.976-4.325c-2.695-1.127-8.663-1.606-14.128-1.801 3.892-2.3 7.531-8.452 7.575-8.537 2.222-4.298-.484-6.388-1.05-6.763a4.54 4.54 0 00-5.004.046 9.526 9.526 0 00-1.745 1.437A4.463 4.463 0 0058.75.342a4.49 4.49 0 00-4.782.885c-1.94 1.72-3.227 5.603-2.598 7.84a3.948 3.948 0 003.103 2.866c.226.04.454.06.682.06a4.003 4.003 0 001.824-.454c-1.199 2.067-2.022 4.122-1.907 5.496a3.939 3.939 0 001.27 2.6c-.868-.008-1.68-.011-2.407-.01-1.861-9.978-9.607-16.127-10.94-17.122-.521-.479-.833-.733-.833-.733a3.517 3.517 0 00-4.42-.017 35.172 35.172 0 00-10.347 15.925c-.06-1.243-.818-2.586-2.47-4.43.394.14.807.215 1.224.224a3.735 3.735 0 002.277-.768c3.156-2.41.65-8.296.057-9.28A4.388 4.388 0 0020.14 5.43a9.31 9.31 0 001.237 4.312 29.987 29.987 0 00-5.285-3.91c-4.452-2.397-6.593.021-7.144.82a4.66 4.66 0 00.005 5.147c1.611 2.837 7.72 7.478 11.976 9.172-4.948.359-10.899 1.294-14.999 3.65a3.5 3.5 0 00-1.61 4.036c1.817 6.086 7.647 12.538 11.648 16.423-3.85-2.127-12.533.432-12.629.47C.23 46.79-.324 49.205.148 50.896v.002a4.426 4.426 0 003.742 3.13c.473.077.951.112 1.43.105 3.006 0 8.011-1.013 10.557-2.687a41.308 41.308 0 00-.974 4.194 3.687 3.687 0 00-1.048-1.17c-3.063-2.223-7.47 1.454-8.21 2.27a4.275 4.275 0 00-.277 5.913 4.163 4.163 0 003.16 1.41 4.843 4.843 0 001.314-.187 9.13 9.13 0 004.49-3.494 42.623 42.623 0 00.24 7.996l.029.29c.049.505.099 1.009.174 1.528a3.5 3.5 0 004.5 2.84 65.11 65.11 0 0016.222-7.99 41.125 41.125 0 00-.344 6.833c.488 4.668 3.561 5.046 4.493 5.05h.017a4.445 4.445 0 004.045-2.743c1.009-2.06 1.42-6.633 1.09-10.364.877.64 1.777 1.246 2.69 1.817-.102.063-.204.123-.3.197h-.001c-3.012 2.3-.758 7.574-.19 8.517a4.425 4.425 0 003.819 2.357 4.223 4.223 0 001.761-.388 4.285 4.285 0 002.462-3.932 7.694 7.694 0 00-.722-3.104 70.605 70.605 0 009.928 3.687 3.501 3.501 0 004.385-2.916 43.57 43.57 0 00-.582-13.85c.205.363.458.698.752.995a8.64 8.64 0 005.566 2.163 4.817 4.817 0 001.543-.23 3.733 3.733 0 002.55-3.076c.244-1.972-1.131-3.45-2.593-4.427 3.782-.414 4.248-3.249 4.305-3.848a4.363 4.363 0 00-2.265-4.135zm-22.17-38.8l.024-.137c.019.003.035.01.053.013-.025.042-.053.08-.077.124zm-4.345 66.58c-.013-.044-.022-.087-.037-.132l.08.104c-.014.01-.029.017-.043.028z"
                    fill="#fff"></path>
                <path
                    d="M65.162 69.605s-17.489-4.736-24.289-14.47c-6.78 9.658-22.633 14.569-22.633 14.569-2.023-13.865 4.57-23.131 4.57-23.131S11.012 36.75 8.524 28.418c7.141-4.102 21.981-3.323 21.981-3.323C31.508 12.74 40.792 5.238 40.792 5.238s9.576 6.78 10.03 17.922c0 0 18.76-.303 23.39 1.63 0 0-4.28 12.98-13.288 20.32 0 0 5.865 12.289 4.238 24.495z">
                </path>
                <path
                    d="M64.313 68.853s-16.599-4.658-23.398-14.391C34.135 64.12 18.153 68.89 18.153 68.89 16.13 55.026 21.96 45.82 21.96 45.82S10.163 36 7.675 27.667c7.141-4.103 21.981-3.324 21.981-3.324C30.66 11.99 39.943 4.487 39.943 4.487s9.865 8.063 10.319 19.205c7.712-.294 15.435.007 23.1.902 0 0-4.107 13.143-13.114 20.482 0 0 5.692 11.571 4.065 23.777z">
                </path>
                <path
                    d="M30.11 33.068s-1.079 5.796 2.291 6.065 3.1-6.065 3.1-6.065M46.15 33.068s-.232 5.391 2.58 5.391 2.812-6.065 2.812-6.065M39.276 38.138s-.952 4.178 2.323 4.178c2.023 0 1.99-4.178 1.99-4.178">
                </path>
                <circle cx="52.634" cy="42.954" r="3.829"></circle>
                <circle cx="29.776" cy="44.345" r="4.407"></circle>
                <path
                    d="M65.64 7.145c1.784 1.187-5.909 9.347-6.744 9.026-1.084-.418 4.959-10.212 6.744-9.026zM3.52 49.967c-.564-2.021 10.35-2.646 10.764-1.865.536 1.014-10.2 3.886-10.763 1.865zM11.831 8.65c1.643-2.382 12.484 8.196 12.03 9.316-.589 1.454-13.673-6.933-12.03-9.316zM76.687 47.47c-.189 2.015-10.414-.734-10.52-1.573-.137-1.087 10.708-.441 10.52 1.574zM39.664 73.44c-2.4-.012-.222-12.378.757-12.59 1.271-.277 1.642 12.602-.757 12.59zM24.156 4.528c1.714-.792 2.775 4.927 2.147 5.406-.813.621-3.862-4.613-2.147-5.406zM51.11 73.155c-1.435.663-2.322-4.126-1.797-4.526.68-.52 3.233 3.862 1.798 4.526zM57.443 3.542c1.46.609-1.469 4.5-2.119 4.384-.844-.15.66-4.993 2.119-4.384zM7.988 60.34c-1.05-1.182 3.28-3.413 3.815-3.026.694.503-2.766 4.21-3.815 3.027zM71.05 53.986c.465-1.306 4.008 1.078 3.937 1.653-.093.745-4.403-.347-3.937-1.653z">
                </path>
                <path
                    d="M20.334 39.675c.881.87 1.583 1.567 1.583 1.567M11.688 29.065a48.797 48.797 0 005.855 7.864M36.461 11.744c.857-1.213 1.108-1.267 1.108-1.267M31.91 23.703a18.842 18.842 0 012.811-9.208M29.732 60.776c.365-.23.69-.448.96-.645M20.299 65.54a66.251 66.251 0 007.937-3.873M60.113 50.834a20.447 20.447 0 011.123 4.605M58.663 47.713c.163.29.35.637.55 1.038M41.766 9.3a17.397 17.397 0 013.417 5.195M64.843 26.328c.746.048 1.4.09 1.929.117M54.297 26.115a75.866 75.866 0 018.717.099">
                </path>
                <path
                    d="M49.16 58.58a94.019 94.019 0 0010.378 5.973M46.323 56.464c.395.332.825.67 1.282 1.011M62.519 39.451a36.035 36.035 0 003.911-5.05">
                </path>
            </g>
        </g>
    </symbol>
    <symbol id="9562799_nope_hand_thumbs_down_no_icon.min" version="1.1" xml:space="preserve"
        xmlns="http://www.w3.org/2000/svg" viewBox="0 0 71.345 75.653">
        <g id="prefix__Layer_2_00000169542974138985213710000017012423254892142015_">
            <g id="prefix__Layer_1-2">
                <path
                    d="M70.397 6.517a9.003 9.003 0 00-5.603-4.02 13.694 13.694 0 00-10.056.724 10.852 10.852 0 00-.278-.128C50.233.24 42.793 1.026 40.286 1.877a6.202 6.202 0 00-2.705 1.76 12.055 12.055 0 00-1.345-.73 10.703 10.703 0 00-6.324-1.81 11.252 11.252 0 00-6.4 2.323 4.742 4.742 0 00-2.054-1.32c-.559-.299-1.174-.479-1.807-.528A7.372 7.372 0 0012.84 4.89a7.08 7.08 0 00-.575-.27 6.673 6.673 0 00-6.357-.905c-2.369.889-3.894 3.623-4.663 8.357-.08.494-1.873 11.925 2.625 16.063a6.811 6.811 0 005.17 2.25 6.563 6.563 0 005.336-2.698c.221.122.449.232.682.33a6.622 6.622 0 004.95 1.26 5.781 5.781 0 004.048-2.805c.413.26.843.49 1.288.692.057.037.118.069.176.105a31.931 31.931 0 00-6.047 4.416 18.849 18.849 0 00-4.83 17.94 16.022 16.022 0 005.801 10.472 23.237 23.237 0 0011.472 4.954c1.67.29 3.32.683 4.94 1.176.81.253 2.267 1.719 3.553 3.012a34.853 34.853 0 006.358 5.39 6.6 6.6 0 003.477 1.024 6.026 6.026 0 003.662-1.242c2.64-2 3.535-5.821 2.336-9.97a19.07 19.07 0 00-1.966-4.517 21.128 21.128 0 00-2.423-3.692c4.37-1.98 6.608-5.14 6.16-8.995a7.082 7.082 0 00-3.831-5.809c.49-1.566.52-3.239.09-4.822a8.74 8.74 0 00-.574-1.584 7.09 7.09 0 00-1.267-1.848l-.078-.082a7.409 7.409 0 00-1.807-1.394 6.675 6.675 0 00-.266-4.092 9.91 9.91 0 00-.478-1.038 8.42 8.42 0 00-1.372-1.904 8.35 8.35 0 001.413-2.6 6.4 6.4 0 003.73 3.914c.536.4 1.134.707 1.77.912 3.495 1.13 8.348 1.545 11.48-.677a6.262 6.262 0 002.699-5.062 5.133 5.133 0 00-.618-2.577c.36-.57.608-1.202.734-1.864a5.014 5.014 0 00-.264-2.774A5.961 5.961 0 0070.9 11.85a5.705 5.705 0 00-.503-5.334z"
                    opacity=".5" fill="#231f20"></path>
                <path
                    d="M69.572 5.434a9.003 9.003 0 00-5.603-4.02 13.694 13.694 0 00-10.056.724 10.88 10.88 0 00-.278-.128C49.408-.842 41.968-.057 39.461.794a6.202 6.202 0 00-2.705 1.76 12.055 12.055 0 00-1.344-.73 10.703 10.703 0 00-6.325-1.81 11.252 11.252 0 00-6.4 2.323 4.742 4.742 0 00-2.054-1.32C20.074.719 19.46.539 18.827.49a7.372 7.372 0 00-6.813 3.318c-.19-.1-.381-.19-.575-.27a6.673 6.673 0 00-6.357-.905C2.713 3.521 1.188 6.255.42 10.99c-.08.494-1.873 11.925 2.625 16.063a6.811 6.811 0 005.17 2.25 6.563 6.563 0 005.336-2.698c.222.122.449.232.682.33a6.622 6.622 0 004.95 1.26 5.781 5.781 0 004.048-2.805c.413.26.843.49 1.288.692.057.037.118.069.176.105a31.932 31.932 0 00-6.047 4.416 18.849 18.849 0 00-4.83 17.94 16.023 16.023 0 005.802 10.472 23.237 23.237 0 0011.471 4.954c1.67.29 3.32.683 4.94 1.176.81.253 2.267 1.719 3.553 3.012a34.853 34.853 0 006.358 5.39 6.6 6.6 0 003.477 1.024 6.025 6.025 0 003.662-1.242c2.64-2 3.535-5.821 2.336-9.97a19.07 19.07 0 00-1.966-4.517 21.127 21.127 0 00-2.423-3.692c4.37-1.98 6.608-5.14 6.16-8.995a7.082 7.082 0 00-3.831-5.809c.49-1.566.52-3.239.09-4.822a8.74 8.74 0 00-.574-1.584 7.09 7.09 0 00-1.267-1.848 7.409 7.409 0 00-1.885-1.476 6.675 6.675 0 00-.265-4.092 9.91 9.91 0 00-.479-1.038 8.419 8.419 0 00-1.372-1.904 8.35 8.35 0 001.413-2.6 6.4 6.4 0 003.73 3.914c.536.4 1.134.707 1.77.912 3.495 1.13 8.348 1.545 11.48-.677a6.262 6.262 0 002.699-5.062 5.133 5.133 0 00-.617-2.577c.359-.57.607-1.202.733-1.864a5.014 5.014 0 00-.264-2.774 5.961 5.961 0 001.527-2.085 5.705 5.705 0 00-.503-5.334z"
                    fill="#fff"></path>
                <path
                    d="M21.7 34.165c2.377-2.36 8.929-6.555 14.55-7.505 5.545-.936 8.39-2.802 9.96 1.15 1.45 3.65-4.663 7.188-4.663 7.188s7.071-4.18 8.521 1.403c1.325 5.1-4.978 7.637-4.978 7.637s7.932-3.53 8.632 2.52c.664 5.734-9.955 6.984-9.955 6.984 2.927 2.45 6.763 5.469 8.298 10.786 1.471 5.1-1.502 7.957-4.27 6.243-4.706-2.914-7.576-7.786-10.707-8.767-6.476-2.029-9.223-.886-15.329-5.567-5.777-4.43-6.644-15.53-.058-22.072z">
                </path>
                <path
                    d="M21.125 33.086c2.376-2.36 8.927-6.556 14.548-7.505 5.545-.937 8.967-1.723 10.537 2.23 1.45 3.65-5.24 6.108-5.24 6.108s7.648-3.1 9.098 2.482c1.325 5.1-5.555 6.557-5.555 6.557s8.159-2.46 8.86 3.59c.663 5.735-10.182 5.914-10.182 5.914 2.927 2.451 6.763 5.47 8.297 10.787 1.472 5.099-1.502 7.957-4.27 6.242-4.705-2.914-7.575-7.785-10.706-8.766-6.476-2.03-10.247-.356-15.33-5.568s-6.643-15.53-.057-22.071z"
                    fill="#fcc707" stroke="#22093a" stroke-linecap="round" stroke-linejoin="round"></path>
                <path
                    d="M30.746 4.308c3.472-.198 8.748 3.187 8.387 9.937s-4.751 9.883-8.55 10.071c-3.427.17-7.992-2.45-7.846-9.644.12-5.894 2.91-10.074 8.01-10.364z">
                </path>
                <path
                    d="M31.278 9.536c.502-.256 1.206 1.052 1.046 4.18s-.84 4.779-1.388 5.047c-.495.241-1.108-.749-.973-4.07.111-2.721.578-4.78 1.315-5.157zM7.77 6.708C4.499 7.936.98 25.803 8.224 25.802c4.871 0 3.545-9.018 3.545-9.018s2.801 8.595 6.88 7.954c4.676-.735 4.383-20.15.634-20.438-5.05-.39-4.793 8.182-4.793 8.182s-2.66-7.297-6.718-5.774zM42.048 4.907c-2.749.934-2.212 4.209-2.771 10.945-.473 5.688 1.637 6.516 3.62 6.498 3.963-.035 3.311-7.606 3.311-7.606s8.42 2.552 8.461-6.277c.024-4.958-9.796-4.52-12.621-3.56z">
                </path>
                <path
                    d="M46.397 8.499s2.44-.306 2.108.97-2.297 1.206-2.297 1.206l.189-2.176zM66.587 7.245c-2.323-3.84-8.797-3.254-10.879-.018-1.564 2.431-4.555 13.812-.104 15.25s9.52.94 9.603-2.494c.062-2.509-5.565-3.172-5.565-3.172s5.26.74 5.739-1.823-5.089-2.723-5.089-2.723 8.781-.91 6.295-5.02z">
                </path>
                <path
                    d="M29.298 3.51c3.471-.198 8.747 3.187 8.387 9.936s-4.752 9.883-8.55 10.072c-3.427.17-7.993-2.451-7.847-9.645.12-5.894 2.91-10.073 8.01-10.364z">
                </path>
                <path
                    d="M29.83 8.738c.501-.257 1.205 1.052 1.046 4.178s-.84 4.78-1.388 5.048c-.495.242-1.109-.748-.973-4.07.11-2.72.578-4.78 1.315-5.156z">
                </path>
                <path
                    d="M6.322 5.91c-3.273 1.227-4.417 19.247.452 19.093s3.545-9.018 3.545-9.018 2.802 8.595 6.88 7.954c4.676-.735 5.118-19.672 1.37-19.96-5.052-.39-5.529 7.705-5.529 7.705s-2.659-7.297-6.718-5.775zM40.6 4.108c-2.75.935-2.212 4.21-2.772 10.946-.472 5.687 1.638 6.515 3.62 6.498 3.964-.035 3.312-7.607 3.312-7.607s8.42 2.552 8.46-6.277c.024-4.958-9.796-4.52-12.62-3.56z">
                </path>
                <path d="M44.948 7.7s2.44-.305 2.108.971-2.296 1.205-2.296 1.205l.188-2.176z"></path>
                <path
                    d="M65.139 6.446c-.724-2.517-8.797-3.254-10.88-.018-1.564 2.432-4.554 13.812-.104 15.25s9.52.94 9.604-2.494c.061-2.508-5.566-3.172-5.566-3.172s5.261.741 5.74-1.823-5.09-2.722-5.09-2.722 7.623-.405 6.296-5.02z">
                </path>
                <path
                    d="M8.612 8.18c-.4-.33-1.5-.544-1.823 0-.88 1.475-1.367 3.657-1.367 7.714M29.494 5.632c-2.37-.286-5.217 1.564-5.932 5.418M40.06 13.375c0 1.188-.85 5.1.678 5.822M42.145 5.375a2.285 2.285 0 00-1.864 2.342M53.819 16.577s-.606 2.563 1.217 3.247c1.207.427 2.47.676 3.748.74M23.666 54.453c.264.238.53.457.802.66M21.432 36.008c-2.068 2.674-3.585 6.837-1.238 13.152a14.22 14.22 0 001.931 3.602M24.47 33.078c-.282.213-.59.455-.91.727M40.281 26.74c1.862-.08 3.299.053 3.61 1.391M45.711 45.122s3.705-1.12 4.762.683M5.422 17.999c.069 1.042.202 2.08.399 3.106M23.32 13.513a11.58 11.58 0 00.695 4.244">
                </path>
            </g>
        </g>
    </symbol>
    <symbol id="9562801_almost_done_almost done_project_status_icon.min" version="1.1" xml:space="preserve"
        xmlns="http://www.w3.org/2000/svg" viewBox="0 0 81.265 81.775">
        <g id="prefix__Layer_2_00000156550024968066632680000012283242538347350206_">
            <g id="prefix__Layer_1-2">
                <path
                    d="M79.509 10.845c-1.214-2.1-3.607-3.92-6.962-5.286-1.555-.633-5.342-2.176-8.632-1.66a8.956 8.956 0 00-6.137-1.75 8.206 8.206 0 00-3.593.975A9.878 9.878 0 0047.665.4h-.025a9.85 9.85 0 00-6.834 2.599 6.297 6.297 0 00-5.424-2.44 5.415 5.415 0 00-3.296 1.384 5.381 5.381 0 00-3.278-.714 6.43 6.43 0 00-4.671 2.805 6.485 6.485 0 00-10.493 1.935 7.559 7.559 0 00-6.067-.558c-4.13 1.364-6.407 6.01-6.09 12.43.068 1.38.538 8.152 3.302 11.444 2.096 3.62 5.023 3.243 5.898 3.035a5.59 5.59 0 003.899-3.406 5.083 5.083 0 005.209.035c.263-.154.516-.324.757-.51 1.14.156 2.3.081 3.412-.219.367 4.885 2.152 10.84 6.926 14.414-3.09 2.785-5.49 7.262-7.052 13.276-.484.265-.947.568-1.384.905-2.155-1.58-5.537-3.026-10.612-2.795-1.584.071-4.502.808-6.255 4.947-2.18 5.15-1.88 15.684 1.415 19.402.305.34.652.641 1.033.894 1.828 1.959 4.948 2.32 7.227 2.29a17.637 17.637 0 008.257-2.143 10.254 10.254 0 007.537 2.064 11.182 11.182 0 004.048-1.364 5.071 5.071 0 003.852 1.562 6.341 6.341 0 004.74-2.333 6.275 6.275 0 004.902 1.352 5.172 5.172 0 002.055-.8 6.656 6.656 0 003.391 1.261 16.995 16.995 0 008.382-1.127 6.174 6.174 0 009.816-7.2 11.635 11.635 0 002.394-6.61c.33-3.501.772-8.174-2.44-10.183a5.806 5.806 0 00-4.428-1.694h-.029a6.075 6.075 0 00-4.684 2.041c-1.62-1.586-4.386-1.913-7.07-1.492-.778-5.517-3.162-9.873-6.829-12.585 4.14-3.697 6.379-9.79 7.578-15.09a10.98 10.98 0 003.961-.161 5.54 5.54 0 002.385 1.94 6.129 6.129 0 005.55-.24c2.746-1.547 4.286-5.195 5.12-8.211a7.81 7.81 0 004.588-.36 4.887 4.887 0 002.682-3.11 6.583 6.583 0 00-1.511-6.225z"
                    opacity=".5" fill="#231f20"></path>
                <path
                    d="M78.052 10.445c-1.214-2.1-3.607-3.92-6.962-5.286-1.555-.633-5.342-2.176-8.632-1.659a8.956 8.956 0 00-6.137-1.75 8.206 8.206 0 00-3.594.974A9.878 9.878 0 0046.207 0h-.025a9.85 9.85 0 00-6.834 2.6A6.297 6.297 0 0033.925.16a5.415 5.415 0 00-3.296 1.383A5.381 5.381 0 0027.35.83a6.43 6.43 0 00-4.67 2.805A6.485 6.485 0 0012.186 5.57a7.559 7.559 0 00-6.066-.557C1.99 6.375-.287 11.022.03 17.44c.067 1.38.538 8.152 3.302 11.444 2.096 3.62 5.022 3.243 5.897 3.035a5.59 5.59 0 003.9-3.406 5.083 5.083 0 005.209.035c.263-.154.515-.323.757-.509 1.14.155 2.3.08 3.412-.22.366 4.885 2.152 10.84 6.926 14.415-3.09 2.784-5.49 7.26-7.052 13.275-.485.265-.947.568-1.384.906-2.155-1.58-5.537-3.026-10.612-2.795-1.584.07-4.502.807-6.255 4.946-2.18 5.15-1.88 15.684 1.415 19.402.304.341.652.641 1.033.894 1.828 1.959 4.948 2.32 7.227 2.29a17.637 17.637 0 008.256-2.143 10.254 10.254 0 007.537 2.064 11.182 11.182 0 004.048-1.364 5.071 5.071 0 003.853 1.562 6.341 6.341 0 004.74-2.333 6.275 6.275 0 004.901 1.353 5.172 5.172 0 002.056-.8 6.656 6.656 0 003.39 1.26 16.995 16.995 0 008.383-1.127 6.174 6.174 0 009.816-7.2 11.635 11.635 0 002.394-6.61c.33-3.501.772-8.174-2.44-10.183a5.806 5.806 0 00-4.429-1.694h-.028a6.075 6.075 0 00-4.684 2.041c-1.62-1.585-4.386-1.913-7.07-1.492-.778-5.516-3.162-9.873-6.83-12.585 4.141-3.697 6.38-9.79 7.58-15.09a10.98 10.98 0 003.96-.161 5.54 5.54 0 002.385 1.94 6.129 6.129 0 005.55-.24c2.746-1.546 4.286-5.194 5.12-8.21a7.81 7.81 0 004.588-.36 4.887 4.887 0 002.681-3.111 6.583 6.583 0 00-1.51-6.225z"
                    fill="#fff"></path>
                <path
                    d="M70.602 9.596c-6.049-2.463-8.53-1.649-8.815.505-.427 3.235 3.617 4.257 3.617 4.257s-6.405 9.29-2.392 11.026c5.004 2.164 6.64-9.72 6.64-9.72s5.803 2.601 6.549.035c.627-2.157-1.545-4.453-5.599-6.103zM35.032 4.843c-2.038.16-2.385 2.638-3.106 4.501-.824-1.625-1.436-4.013-3.43-3.834-2.304.207-3.662 3.65-4.165 7.536-.545 4.215-.6 9.937 1.955 9.9 2.946-.04 3.33-8.481 3.33-8.481s.223 5.918 2.793 5.726c2.934-.22 2.435-6.008 2.435-6.008s.702 8.172 3.934 7.869c1.477-.139 2.117-2.23 1.961-4.347-.169-2.29-1.276-13.21-5.707-12.862z">
                </path>
                <path
                    d="M47.027 4.695c2.924-.01 7.202 3.071 6.595 8.723s-4.436 8.085-7.634 8.072c-2.886-.012-6.601-2.419-6.155-8.453.367-4.944 2.898-8.328 7.194-8.342z">
                </path>
                <path
                    d="M47.238 9.11c.433-.193.965.937.69 3.556s-.92 3.976-1.393 4.176c-.427.18-.898-.679-.634-3.462.216-2.28.7-3.987 1.337-4.27zM62.426 10.358c.002-1.86-1.09-4.053-5.154-3.915-4.002.136-6.677 5.44-2.658 7.765 3.722 2.154 2.496 4.653.88 3.22-3.106-2.755-6.416 2.895-2.188 5.126s9.012-.229 9.647-2.957c1.203-5.168-2.747-6.15-4.563-7.032 0 0 4.034.633 4.036-2.207zM22.448 19.004c3.737-3.473 5.566.285 5.138 1.792-.311 1.094-2.384 2.432-4.37 3.125s-6.605 2.833-7.76-6.502 1.71-10.808 3.178-10.967c1.763-.19 4.285 1.277 4.053 6.64a688.721 688.721 0 00-.239 5.912z">
                </path>
                <path
                    d="M8.05 9.53c-2.906.96-3.892 4.874-3.692 8.933.217 4.405 1.697 10.627 4.051 10.06 1.76-.424 2.188-3.014 2.143-5.663l1.687-.549c1.242 2.243 2.813 4.109 4.334 3.22 1.675-.977 2.225-2.936 1.566-5.006C17.426 18.287 13.633 7.687 8.05 9.53zm2.314 10.576c-.217-1.928-.54-3.421-.54-3.421s.472 1.453 1.23 3.196l-.69.225z">
                </path>
                <path
                    d="M69.77 8.406c-6.05-2.463-8.531-1.648-8.816.505-.427 3.236 3.617 4.257 3.617 4.257s-6.405 9.291-2.392 11.027c5.004 2.163 6.64-9.721 6.64-9.721s5.803 2.602 6.549.035c.627-2.157-1.545-4.452-5.599-6.103zM34.2 3.654c-2.039.16-2.386 2.638-3.107 4.5-.824-1.625-1.436-4.013-3.43-3.834-2.304.207-3.662 3.651-4.164 7.536-.545 4.215-.601 9.937 1.954 9.901 2.947-.041 3.33-8.482 3.33-8.482s.223 5.918 2.793 5.726c2.935-.22 2.435-6.008 2.435-6.008s.703 8.172 3.934 7.869c1.477-.139 2.118-2.23 1.962-4.347-.17-2.29-1.277-13.21-5.708-12.861z">
                </path>
                <path
                    d="M46.194 3.505c2.924-.009 7.202 3.072 6.595 8.723s-4.436 8.085-7.634 8.072c-2.886-.012-6.601-2.418-6.154-8.453.366-4.944 2.898-8.328 7.193-8.342z">
                </path>
                <path
                    d="M46.405 7.92c.433-.193.965.938.69 3.556s-.92 3.976-1.393 4.176c-.427.18-.898-.678-.634-3.461.216-2.28.701-3.988 1.337-4.27z">
                </path>
                <path
                    d="M61.593 9.168c.002-1.86-1.09-4.053-5.154-3.915-4.002.136-6.677 5.44-2.657 7.766 3.721 2.153 2.495 4.652.88 3.22-3.107-2.755-6.417 2.895-2.19 5.125s9.014-.228 9.649-2.957c1.202-5.167-2.748-6.15-4.563-7.031 0 0 4.033.632 4.035-2.208zM21.615 17.815c3.737-3.473 5.566.284 5.138 1.791-.311 1.095-2.384 2.432-4.37 3.126s-6.605 2.832-7.76-6.503 1.71-10.808 3.178-10.966c1.763-.19 4.286 1.277 4.053 6.64-.177 4.074-.239 5.912-.239 5.912z">
                </path>
                <path
                    d="M7.217 8.34c-2.906.96-3.892 4.874-3.692 8.934.217 4.404 1.697 10.626 4.051 10.059 1.76-.424 2.188-3.013 2.143-5.663l1.687-.549c1.243 2.244 2.813 4.109 4.334 3.22 1.675-.976 2.225-2.936 1.566-5.005C16.593 17.097 12.8 6.497 7.217 8.34zm2.314 10.576c-.217-1.927-.54-3.421-.54-3.421s.473 1.454 1.23 3.196l-.69.225z">
                </path>
                <path
                    d="M6.986 10.79c-1.784 2.187-1.89 5.061-1.054 9.677M17.974 7.22c-.885-.076-2.025 1.543-1.873 4.683M24.683 18.232s.645.494 0 1.368M26.73 8.077s.161-1.333 1.03-1.72M33.591 6.437c0-.468.62-1.34 1.09-1.19M45.816 5.23c-.587.028-3.973.409-4.76 5.097M40.923 12.153a3.603 3.603 0 00.169 2.181M56.407 6.893c-2.24 0-3.741 2.769-2.407 4.124M60.16 15.367c.227.402.72 3.06-1.14 3.972M62.772 22.232c1.063.715 2.127-.24 2.924-2.632">
                </path>
                <path
                    d="M39.481 19.13c-7.149.036-12.934 1.943-12.922 4.26 0 0-1.693 14.91 9.608 17.953a11.6 11.6 0 002.59.397l.018.003a6.948 6.948 0 005.484-1.565c5.51-3.74 7.456-13.068 8.045-16.288h-.016a1.5 1.5 0 00.159-.633c-.012-2.316-5.817-4.164-12.966-4.128z"
                    fill="none" stroke="#22093a" stroke-linecap="round" stroke-linejoin="round"></path>
                <path
                    d="M25.503 60.081c-.1.257-.159.528-.175.803.012 2.316 5.817 4.164 12.966 4.128 7.149-.037 12.934-1.945 12.923-4.261 0 0 1.692-14.91-9.608-17.953-11.763-3.167-15.238 12.605-16.106 17.283z">
                </path>
                <path
                    d="M51.446 24.141c-.805 4.403-4.177 20.38-15.92 17.22-11.15-3.002-9.48-17.713-9.48-17.713s.66 4.233 12.659 4.073 12.741-3.58 12.741-3.58z">
                </path>
                <ellipse cx="38.817" cy="23.583" rx="12.771" ry="4.138" transform="rotate(-.292 38.817 23.582)"
                    fill="#fff" stroke="#22093a" stroke-linecap="round" stroke-linejoin="round"></ellipse>
                <path d="M50.374 60.509s1.67-14.711-9.48-17.713c-11.743-3.16-15.115 12.817-15.92 17.22"></path>
                <path
                    d="M24.833 60.64c-.012-2.286 6.054-9.806 13.107-9.842s12.422 7.425 12.434 9.71-5.697 4.168-12.75 4.204-12.78-1.787-12.791-4.073zM27.829 33.867a40.72 40.72 0 0011.043 2.205 27.154 27.154 0 009.364-1.694s-4.218 8.46-10.137 7.378-8.588-2.82-10.27-7.89z">
                </path>
                <circle cx="37.854" cy="46.415" r="1.323"></circle>
                <circle cx="41.788" cy="48.62" r=".861"></circle>
                <ellipse cx="37.874" cy="33.52" rx="10.475" ry="2.695" transform="rotate(-.292 37.875 33.519)">
                </ellipse>
                <path
                    d="M41.618 32.55c1.63.164 3.243.427 3.138.844-.207.821-5.756 1.018-9.45.824M38.965 32.419c.306.02.563-.039 1.334.018M33.81 54.049c-2.102 1.084-5.283 3.536-6.565 6.052M32.18 32.896a3.225 3.225 0 00-1.377.303">
                </path>
                <path
                    d="M11.482 57.914c-5.5.246-5.12 15.435-2.377 18.531 1.825 2.06 10.446 1.636 13.292-2.237s2.707-16.904-10.915-16.294z">
                </path>
                <path
                    d="M14.901 65.695c-1.313.06-1.223 3.688-.568 4.428.436.492 2.496.39 3.176-.535a2.583 2.583 0 00-2.608-3.893zM27.72 58.49c3.3-.462 8.604 2.355 8.791 8.83s-3.76 9.811-7.372 10.29c-3.26.432-7.825-1.711-8.252-8.593-.35-5.637 1.986-9.848 6.833-10.527z">
                </path>
                <path
                    d="M28.653 64.917c.46-.191 1.231.602 1.316 2.6s-.44 3.087-.944 3.287c-.455.181-1.116-.414-1.238-2.534-.1-1.737.191-3.073.866-3.353zM36.99 60.913c-2.892 1.084-3.903 17.002.399 16.867s3.13-7.967 3.13-7.967 2.476 7.593 6.079 7.026c4.13-.649 4.52-17.377 1.209-17.632-4.462-.343-4.883 6.807-4.883 6.807s-2.35-6.446-5.935-5.101z">
                </path>
                <path
                    d="M60.196 59.373c-1.166-1.58-9.012-.922-10.52 3.701-.984 3.017-1.9 13.755 3.213 14.197s9.268-1.198 8.967-3.935-6.733-2.023-6.733-2.023 5.473-1.011 5.354-3.87-5.777-1.151-5.777-1.151 8.624-2.677 5.496-6.919zM67.239 58.235c-1.53-.006-3.408.776-4.255 7.232-.757 5.765 1.508 6.016 2.093 6.018s4.023.31 4.617-5.994-.19-7.248-2.455-7.256z">
                </path>
                <circle cx="65.262" cy="75.189" r="2.68"></circle>
                <path
                    d="M10.541 57.122c-5.499.247-5.12 15.435-2.377 18.531 1.825 2.06 10.446 1.636 13.292-2.236s2.707-16.905-10.915-16.295z">
                </path>
                <path
                    d="M13.96 64.904c-1.313.059-1.223 3.687-.567 4.427.436.492 2.495.391 3.175-.534a2.583 2.583 0 00-2.607-3.893z">
                </path>
                <path
                    d="M26.779 57.698c3.3-.462 8.604 2.356 8.791 8.83s-3.76 9.812-7.372 10.29c-3.26.433-7.825-1.71-8.252-8.592-.35-5.638 1.986-9.849 6.833-10.528z">
                </path>
                <path
                    d="M27.713 64.125c.46-.19 1.23.603 1.315 2.6s-.44 3.087-.944 3.288c-.454.18-1.116-.415-1.238-2.535-.1-1.737.191-3.072.867-3.353z">
                </path>
                <path
                    d="M36.048 60.121c-2.891 1.085-3.901 17.003.4 16.867s3.131-7.966 3.131-7.966 2.475 7.592 6.078 7.026c4.13-.65 4.52-17.377 1.209-17.632-4.462-.344-4.883 6.806-4.883 6.806s-2.35-6.446-5.935-5.1z">
                </path>
                <path
                    d="M59.255 58.582c-1.165-1.581-9.012-.922-10.52 3.7-.984 3.017-1.9 13.755 3.213 14.197s9.269-1.197 8.967-3.935-6.733-2.023-6.733-2.023 5.474-1.01 5.354-3.87-5.777-1.15-5.777-1.15 8.624-2.677 5.496-6.92zM66.298 57.443c-1.529-.005-3.408.777-4.255 7.233-.757 5.764 1.508 6.016 2.094 6.018.585.002 4.022.31 4.617-5.995s-.19-7.248-2.456-7.256z">
                </path>
                <circle cx="64.321" cy="74.398" r="2.68"></circle>
                <path
                    d="M12.605 58.99c-1.43-.11-2.94.078-3.401 1.556a22.054 22.054 0 00-.87 8.767M25.534 60.038c-1.29.201-3.201 1.692-3.603 5.394M35.36 67.52c.143-2.295.585-4.53 1.685-5.515M35.353 71.59a46.618 46.618 0 01-.048-1.579M53.072 60.353c-1.649.606-3.191 1.62-3.297 7.343M65.659 59.453c-1.482.607-2.332 5.107-2.094 8.326M63.749 73.469a2.075 2.075 0 00-.383 1.72">
                </path>
            </g>
        </g>
    </symbol>
    <symbol id="9562803_busy_work_in progress_deadline_clock_icon.min" version="1.1" xml:space="preserve"
        xmlns="http://www.w3.org/2000/svg" viewBox="0 0 79.66 82.007">
        <g id="prefix__Layer_2_00000060000530228712464420000003215061471740123318_">
            <g id="prefix__Layer_1-2">
                <path
                    d="M74.543 50.264a7.183 7.183 0 00-2.918-.803 6.504 6.504 0 00-5.133 1.957 6.757 6.757 0 00-.452-.463 28.974 28.974 0 001.702-14.016 24.375 24.375 0 00-2.663-8.561c.067-.056.133-.112.198-.17.181.237.377.462.587.673a5.184 5.184 0 002.52 1.928c2.969.99 5.722.287 7.366-1.882 1.969-2.6 1.837-6.689-.217-10.912 1.937-1.917 4.16-4.798 4.126-7.892a6.365 6.365 0 00-2.78-5.154 5.38 5.38 0 00-1.157-.635 5.476 5.476 0 00-3.61-.586 8.186 8.186 0 00-3.703 1.843 6.434 6.434 0 00-1.074-1.006 6.145 6.145 0 00-5.19-2.17 5.573 5.573 0 00-2.841.997C56.73 1.392 52.687.857 47.24 1.822a9.749 9.749 0 00-5.153 2.362 11.489 11.489 0 00-14.834-.736 5.464 5.464 0 00-1.946-.963 5.408 5.408 0 00-2.36-.328c-2.378.197-4.153 1.658-5.31 4.36a5.427 5.427 0 00-2.713-.298 6.27 6.27 0 00-2.364.848 7.824 7.824 0 00-.49-.413A6.209 6.209 0 006.35 4.457c-3.74.599-5.854 4.552-5.142 9.612.552 3.937 2.316 13.338 6.896 17.076a7.99 7.99 0 003.867 2.424 24.092 24.092 0 00-1.284 11.145 28.235 28.235 0 001.742 6.843 16.216 16.216 0 00-3.663 1.413c-5.34 3.006-5.058 10.3-4.252 18.147a12.947 12.947 0 001.66 5.477c2.49 4.718 7.293 5.413 10.344 5.413.832 0 1.533-.051 2.022-.087a15.663 15.663 0 009.39-3.543 11.396 11.396 0 008.419 2.737 9.467 9.467 0 005.36-2.063c.537.441 1.12.826 1.736 1.149a14.454 14.454 0 0012.836.356c.793-.36 1.55-.796 2.26-1.3a6.04 6.04 0 001.898 1.372c1.341.614 3.574 1.03 6.579-.492 5.287-2.682 10.234-13.819 10.279-13.93 1.392-3.422 2.44-8.715.814-12.37a6.71 6.71 0 00-3.568-3.572z"
                    opacity=".5" fill="#231f20"></path>
                <path
                    d="M73.472 49.193a7.183 7.183 0 00-2.918-.802 6.504 6.504 0 00-5.133 1.956 6.755 6.755 0 00-.452-.462 28.974 28.974 0 001.702-14.017 24.375 24.375 0 00-2.663-8.56c.067-.056.133-.113.198-.17.181.236.377.461.587.673a5.184 5.184 0 002.52 1.927c2.969.99 5.722.288 7.366-1.881 1.969-2.6 1.837-6.689-.217-10.912 1.937-1.917 4.16-4.798 4.126-7.893a6.365 6.365 0 00-2.78-5.153 5.38 5.38 0 00-1.157-.636 5.476 5.476 0 00-3.61-.585 8.186 8.186 0 00-3.703 1.843 6.434 6.434 0 00-1.074-1.007 6.145 6.145 0 00-5.19-2.169 5.573 5.573 0 00-2.841.996C55.659.321 51.616-.214 46.17.751a9.749 9.749 0 00-5.153 2.363 11.489 11.489 0 00-14.834-.736 5.464 5.464 0 00-1.946-.964 5.408 5.408 0 00-2.36-.327c-2.378.197-4.153 1.657-5.31 4.36a5.427 5.427 0 00-2.713-.298 6.27 6.27 0 00-2.364.847 7.824 7.824 0 00-.49-.412A6.209 6.209 0 005.28 3.386C1.539 3.986-.575 7.94.137 13c.552 3.936 2.315 13.338 6.896 17.075A7.99 7.99 0 0010.9 32.5a24.092 24.092 0 00-1.284 11.145 28.235 28.235 0 001.742 6.842A16.217 16.217 0 007.695 51.9c-5.34 3.005-5.058 10.299-4.252 18.147a12.947 12.947 0 001.66 5.477c2.49 4.718 7.293 5.413 10.344 5.413.832 0 1.533-.052 2.022-.087a15.663 15.663 0 009.39-3.543 11.396 11.396 0 008.419 2.737 9.467 9.467 0 005.359-2.064c.538.442 1.12.827 1.737 1.15a14.454 14.454 0 0012.836.356c.793-.36 1.55-.797 2.26-1.301a6.04 6.04 0 001.897 1.372c1.342.615 3.575 1.031 6.58-.491 5.287-2.683 10.234-13.82 10.279-13.93 1.391-3.422 2.44-8.715.814-12.37a6.71 6.71 0 00-3.568-3.573z"
                    fill="#fff"></path>
                <path
                    d="M13.134 29.194c2.664-.388 2.922-3.55 3.72-5.97 1.213 1.98 2.206 4.94 4.81 4.533 3.01-.471 4.52-4.946 4.87-9.9.38-5.376-.495-13.404-3.848-13.127-3.866.32-3.206 11.814-3.206 11.814s-.765-7.458-4.124-6.98c-3.836.544-2.72 7.811-2.72 7.811s-1.573-10.26-5.793-9.584c-1.929.31-2.603 3.01-2.23 5.67.405 2.879 2.73 16.576 8.52 15.733z">
                </path>
                <path
                    d="M33.67 4.476c3.722-.358 9.532 3.058 9.428 10.324s-4.691 10.817-8.764 11.179c-3.675.326-8.69-2.299-8.834-10.033C25.38 9.609 28.204 5 33.67 4.476z">
                </path>
                <path
                    d="M34.461 10.07c.529-.296 1.34 1.08 1.3 4.446s-.703 5.17-1.28 5.481c-.522.28-1.223-.757-1.217-4.331.006-2.928.421-5.16 1.197-5.595zM62.296 5.788c-4.656.28-6.882 17.871-3.579 19.37 3.887 1.764 6.35-6.235 6.35-6.235s1.566 6.902 3.353 7.499c4.746 1.584 5.634-4.232 1.57-10.215 0 0 8.232-6.237 3.772-9.464-3.089-2.234-7.75 7.09-7.75 7.09s.806-8.318-3.716-8.045z">
                </path>
                <path
                    d="M47.792 5.146c-4.834.857-5.158 3.831-5.437 9.926-.277 6.063-1.728 9.708 2.912 10.652 2.898.59 4.164-8.402 4.164-8.402s3.412 8.863 7.136 7.434c4.941-1.896-2.367-9.388-2.367-9.388 3.99 0 9.915-13.112-6.408-10.222z">
                </path>
                <path d="M48.991 8.912s2.791-.598 2.535.912-2.535 1.623-2.535 1.623V8.912z"></path>
                <path
                    d="M12.12 28.248c2.665-.388 2.923-3.55 3.722-5.97 1.212 1.98 2.205 4.94 4.809 4.533 3.01-.47 4.52-4.946 4.87-9.9.38-5.376-.003-12.61-3.356-12.333-3.866.32-3.698 11.02-3.698 11.02s-.765-7.457-4.124-6.98c-3.836.544-2.72 7.812-2.72 7.812S10.05 6.169 5.83 6.846c-1.929.309-2.603 3.01-2.23 5.67.405 2.878 2.73 16.576 8.52 15.732z">
                </path>
                <path
                    d="M32.658 3.53c3.721-.357 9.531 3.058 9.427 10.325s-4.691 10.817-8.764 11.178c-3.675.326-8.69-2.298-8.834-10.033-.119-6.337 2.704-10.944 8.17-11.47z">
                </path>
                <path
                    d="M33.448 9.125c.529-.296 1.34 1.08 1.3 4.446s-.703 5.17-1.28 5.48c-.522.281-1.223-.757-1.217-4.33.006-2.929.421-5.16 1.197-5.596z">
                </path>
                <path
                    d="M61.283 4.842c-4.656.281-6.882 17.872-3.579 19.37 3.887 1.764 6.35-6.235 6.35-6.235s2.005 7.174 3.792 7.77c4.746 1.585 5.195-4.503 1.132-10.486 0 0 8.646-5.574 4.186-8.801-3.089-2.234-8.166 6.428-8.166 6.428s.807-8.32-3.715-8.046z">
                </path>
                <path
                    d="M46.779 4.2c-4.834.857-5.158 3.832-5.437 9.927-.277 6.062-.043 10.75 2.912 10.652s4.164-8.402 4.164-8.402 3.412 8.862 7.136 7.433c4.941-1.896-2.367-9.388-2.367-9.388 3.99 0 9.915-13.112-6.408-10.221z">
                </path>
                <path d="M47.978 7.967s2.791-.598 2.535.911-2.535 1.624-2.535 1.624V7.967z"></path>
                <path
                    d="M8.195 21.837c.404.757.884 1.47 1.434 2.129M6.711 8.89c-1.306.069-1.83 2.804-.532 7.477.242.87.488 1.71.762 2.517M21.43 7.35s-.922 2.228-.727 3.013M26.608 12.746c-.673 2.29.084 6.743 2.193 8.666M46.876 6.066c-2.279.677-2.867.962-3.27 4.297M43.503 12.185l-.051.953M61.534 7.028c-.74-.076-1.875 1.044-2.92 6">
                </path>
                <path d="M43.298 55.938l.96 5.54"></path>
                <path d="M41.067 63.18c-15.59 3.809-26.493-7.843-27.98-19.96s7.985-23.714 22.651-25.049"></path>
                <path
                    d="M63.194 36.286c1.652 13.871-7.386 24.917-19.255 26.373-11.87 1.457-23.131-8.256-24.618-20.373-1.377-12.101 7.21-23.069 19.289-24.636 11.87-1.457 23.14 6.514 24.584 18.636z"
                    fill="#e6e7e8" stroke="#22093a" stroke-linecap="round" stroke-linejoin="round"></path>
                <path d="M38.695 20.773l.685 5.581M23.144 41.882l5.581-.685M53.898 38.108l5.58-.685"></path>
                <path
                    d="M42.004 41.145l-2.13 8.18-2.255 2.811-.071-3.506 2.536-7.587zM39.268 39.15l-9.233-6.984-1.891-3.069 3.326 1.111 8.538 7.168z">
                </path>
                <circle cx="41.271" cy="39.338" r="2.334" fill="#fff" stroke="#22093a" stroke-linecap="round"
                    stroke-linejoin="round"></circle>
                <path
                    d="M47.635 21.751s6.134.662 9.21 6.05M58.153 29.998c.295.42.55.866.76 1.334M60.85 41.57a18.094 18.094 0 01-2.235 7.325">
                </path>
                <path
                    d="M10.629 56.21c-3.061 1.723-4.272 5.979-3.437 14.115.705 6.869 5.745 7.352 10.017 7.037 4.782-.352 9.912-2.692 9.392-8.105-.542-5.634-7.978-4.482-7.978-4.482s7.218-1.95 5.959-7.05c-1.231-4.983-10.808-3.286-13.953-1.515z">
                </path>
                <path
                    d="M14.748 59.429s2.834-.907 2.723.685-2.462 1.944-2.462 1.944l-.261-2.63zM15.716 69.163s3.625-.994 3.514.598-3.254 2.032-3.254 2.032l-.26-2.63zM28.42 53.756c-4.935.847-6.038 23.554 6.648 22.797 9.57-.57 10.136-22.928 6.206-23.332-8.177-.84-1.808 15.203-6.288 15.258-2.33.029-.148-15.824-6.566-14.723z">
                </path>
                <path
                    d="M57.38 58.154c.002-2.729-1.598-5.944-7.559-5.742-5.868.2-9.79 7.977-3.897 11.388 5.458 3.158 3.66 6.822 1.291 4.722-4.555-4.04-9.41 4.245-3.21 7.515s13.216-.335 14.147-4.335c1.764-7.578-4.028-9.019-6.69-10.312 0 0 5.914.928 5.918-3.236z">
                </path>
                <path
                    d="M70.914 52.136c-4.777-.317-5.52 11.747-5.52 11.747s-.197-12.854-4.738-12.047c-5.948 1.058-4.135 11.464-.002 15.881-2.842 2.608-2.488 11.372 3.707 8.23 3.37-1.71 7.791-10.085 8.62-12.126 1.632-4.012 2.74-11.367-2.067-11.685z">
                </path>
                <path
                    d="M9.41 54.953c-3.062 1.723-3.323 6.604-2.488 14.74.706 6.869 4.796 6.727 9.068 6.412 4.782-.352 9.912-2.691 9.392-8.105-.542-5.634-7.978-4.482-7.978-4.482s7.218-1.95 5.959-7.05c-1.231-4.983-10.808-3.286-13.954-1.515z">
                </path>
                <path
                    d="M13.529 58.172s2.834-.907 2.723.685S13.79 60.8 13.79 60.8l-.261-2.63zM14.496 67.906s3.626-.994 3.515.598-3.254 2.032-3.254 2.032l-.26-2.63z">
                </path>
                <path
                    d="M27.558 53.483c-4.9 1.037-5.08 22.489 6.29 21.813 9.57-.568 10.741-21.759 6.81-22.163-8.176-.84-2.411 14.034-6.891 14.09-2.33.028-.43-14.963-6.21-13.74z">
                </path>
                <path
                    d="M56.16 56.897c.003-2.729-1.597-5.944-7.558-5.741-5.868.199-9.791 7.977-3.897 11.387 5.458 3.158 3.66 6.822 1.291 4.722-4.556-4.04-9.41 4.245-3.21 7.515s13.216-.335 14.147-4.335c1.764-7.578-4.028-9.019-6.69-10.311 0 0 5.914.927 5.917-3.237z">
                </path>
                <path
                    d="M70.32 51.886c-4.776-.316-6.146 10.74-6.146 10.74s-.196-12.854-4.737-12.047c-5.948 1.058-4.135 11.464-.002 15.881-.658 1.668-2.488 11.372 3.707 8.23 3.37-1.709 7.791-10.085 8.62-12.126 1.632-4.012 3.366-10.36-1.442-10.678z">
                </path>
                <path
                    d="M8.832 69.209c.076.714.202 1.422.377 2.119M12.475 55.872c-1.14.38-3.798.494-3.95 5.468a58.759 58.759 0 00.044 4.735M26.638 65.477s.721 4.443 3.417 6.76M48.962 53.1c-2.089 0-5.469 1.898-5.165 5.354M43.339 68.072a2.673 2.673 0 00-.742 4.164M59.293 52.403c-1.163.29-2.717 2.796-1.519 7.315">
                </path>
            </g>
        </g>
    </symbol>
    <symbol class="Thanks" id="9562813_thanks_thank you_project_status_icon.min" version="1.1" xml:space="preserve"
        xmlns="http://www.w3.org/2000/svg" viewBox="0 0 84.894 64.278">
        <g id="prefix__Layer_2_00000010989078352525465700000005017805148108769425_">
            <g id="prefix__Layer_1-2">
                <path
                    d="M70.977 13.504a75.404 75.404 0 00-15.603-7.98 5.71 5.71 0 00-1.765-2.549 6.572 6.572 0 00-5.709-1.52 5.854 5.854 0 00-2.41 1.212 57.327 57.327 0 00-22.006-.72C7.444 4.64-1.261 15.457.764 30.178 2.24 40.92 11.568 48.26 16.678 51.53l-4.39 7.117a3.563 3.563 0 002.872 5.632c.486 0 .967-.1 1.412-.297l13.07-5.767c3.679 1.05 14.548 3.869 25.382 3.868h.22c.323.333.683.627 1.074.876a5.616 5.616 0 004.208.773 6.54 6.54 0 003.759-2.474c1.075-.21 2.14-.474 3.188-.79 8.717-2.653 15.775-11.092 17.163-20.523.87-5.896.25-17.171-13.66-26.44z"
                    opacity=".5" fill="#231f20"></path>
                <path
                    d="M70.503 12.3A75.404 75.404 0 0054.9 4.32a5.71 5.71 0 00-1.765-2.549 6.572 6.572 0 00-5.709-1.52 5.854 5.854 0 00-2.41 1.212A57.327 57.327 0 0023.01.743C6.97 3.436-1.735 14.253.29 28.974c1.477 10.742 10.805 18.081 15.915 21.35l-4.39 7.118a3.563 3.563 0 002.872 5.632c.486 0 .967-.101 1.412-.298l13.07-5.767c3.679 1.052 14.548 3.87 25.382 3.869h.22c.323.333.683.627 1.074.876a5.616 5.616 0 004.208.773 6.54 6.54 0 003.759-2.474 32.79 32.79 0 003.188-.79C75.717 56.61 82.775 48.17 84.163 38.74c.87-5.896.25-17.172-13.66-26.44z"
                    fill="#fff"></path>
                <path
                    d="M68.562 15.213C56.63 7.26 40.72 1.683 24.537 4.4 10.417 6.77 2.927 15.77 4.705 28.704s17.314 20.605 17.314 20.605l-7.333 10.266 14.247-6.286s22.43 7.074 37.05 2.626c13.843-4.212 24.028-26.409 2.58-40.702z">
                </path>
                <path
                    d="M67.615 15.008C55.682 7.056 39.772 1.478 23.589 4.195 9.47 6.565 1.98 15.565 3.757 28.5s17.315 20.605 17.315 20.605l-6.279 10.177 14.02-6.562s21.601 7.44 36.222 2.99c13.843-4.211 24.028-26.408 2.58-40.701z"
                    fill="#ec6509" stroke="#22093a" stroke-linecap="round" stroke-linejoin="round"></path>
                <path
                    d="M46.165 5.88a2.615 2.615 0 002.93 3.307c2.008-.452 3.652-3.18 1.798-4.727s-4.006-1.014-4.728 1.42z">
                </path>
                <path
                    d="M22.4 9.025c-1.373-.016-1.66 1.358-1.539 2.409.142 1.229 2.693 2.128 3.26.282.458-1.493-.077-2.672-1.72-2.69zM56.717 56.217a2.291 2.291 0 002.568 2.896c1.758-.396 3.199-2.786 1.574-4.141s-3.509-.889-4.142 1.245z">
                </path>
                <path
                    d="M29.227 20.753c-1.613-.167-2.739 1.63-3.294 5.838-.46-.078-.959-.133-1.482-.177.411-3.669.04-5.68-1.79-5.87-1.757-.183-2.938 1.958-3.43 7.017-.493 5.058-.112 8.106 2.215 8.178 1.14.035 1.79-1.97 2.303-4.707.259.02.53.03.823.026.372-.006.714-.03 1.038-.063-.016 3.1.624 4.899 2.403 4.954 1.53.047 2.179-3.584 2.795-7.729.696-4.682.499-7.25-1.581-7.467z">
                </path>
                <path
                    d="M37.704 37.305a3.453 3.453 0 003.063-3.237c.291-1.974 1.352-11.48-3.597-12.156-2.576-.352-4.79 2.267-6.151 5.44-1.478 3.443-2.67 8.744-.662 9.19 3.227.715 5.497-8.508 5.497-8.508s-1.35 9.507 1.85 9.27z">
                </path>
                <path
                    d="M44.05 23.315c-2.603.579-5.385 14.06-1.693 14.464s3.637-6.431 3.637-6.431 1.2 6.787 4.347 6.737c3.608-.057 5.958-14.306 3.159-14.923-3.772-.832-4.994 5.228-4.994 5.228s-1.23-5.792-4.457-5.075zM16.353 19.348c-5.824-.694-7.778.601-7.512 2.533.4 2.903 4.143 2.826 4.143 2.826s-3.336 9.568.551 10.116c4.847.684 3.438-9.996 3.438-9.996s5.643.873 5.679-1.526c.03-2.017-2.397-3.488-6.3-3.953z">
                </path>
                <path
                    d="M56.107 23.964c-2.538.2-5.223 14.108-2.613 15.252 3.07 1.346 4.925-4.963 4.925-4.963s1.647 5.615 3.057 6.066c3.745 1.196 4.035-3.591.782-8.25 0 0 6.791-3.903 3.255-6.392-2.45-1.724-6.405 4.569-6.405 4.569s.547-6.562-3-6.282z">
                </path>
                <path
                    d="M75.136 30.304c.248-1.742-.484-3.939-4.308-4.346-3.765-.402-6.97 4.211-3.514 6.92 3.2 2.507 1.722 4.685.399 3.13-2.545-2.99-6.39 1.864-2.727 4.51 3.664 2.647 8.469.977 9.424-1.494 1.808-4.68-1.76-6.121-3.344-7.186 0 0 3.693 1.125 4.07-1.534z">
                </path>
                <path
                    d="M28.938 20.181c-1.612-.167-2.738 1.63-3.293 5.838-.46-.078-.959-.133-1.482-.177.41-3.669.039-5.681-1.79-5.871-1.758-.182-2.939 1.959-3.43 7.018s-.112 8.105 2.215 8.177c1.14.036 1.79-1.97 2.302-4.706.26.019.53.03.824.025.372-.006.714-.029 1.038-.062-.016 3.1.623 4.898 2.402 4.953 1.53.048 2.18-3.583 2.795-7.728.696-4.683.5-7.25-1.58-7.467zM43.76 22.743c-2.6.579-5.383 14.06-1.691 14.463s3.636-6.43 3.636-6.43 1.2 6.786 4.348 6.737c3.608-.057 5.958-14.306 3.159-14.923-3.773-.832-4.994 5.228-4.994 5.228s-1.23-5.792-4.457-5.075z">
                </path>
                <path
                    d="M16.064 18.775c-5.823-.694-7.778.602-7.512 2.534.4 2.903 4.144 2.826 4.144 2.826s-3.337 9.568.551 10.116c4.847.684 3.438-9.996 3.438-9.996s5.643.873 5.678-1.527c.03-2.016-2.396-3.487-6.299-3.953zM55.819 23.391c-2.538.2-5.224 14.109-2.614 15.253 3.071 1.345 4.925-4.963 4.925-4.963s1.648 5.615 3.058 6.065c3.744 1.197 4.035-3.59.782-8.249 0 0 6.79-3.903 3.254-6.393-2.449-1.723-6.405 4.57-6.405 4.57s.548-6.562-3-6.283z">
                </path>
                <path
                    d="M74.848 29.732c.247-1.742-.485-3.939-4.309-4.347-3.765-.401-6.97 4.212-3.514 6.92 3.2 2.508 1.722 4.686.4 3.131-2.545-2.99-6.391 1.863-2.727 4.51s8.469.976 9.423-1.494c1.81-4.68-1.76-6.121-3.343-7.186 0 0 3.693 1.125 4.07-1.534zM36.881 21.34c-2.576-.352-4.789 2.267-6.15 5.44-1.478 3.442-2.67 8.743-.662 9.189 1.526.338 2.837-1.545 3.796-3.625l1.442.268c.107 2.193.606 4.231 2.11 4.12a3.453 3.453 0 003.062-3.236c.291-1.975 1.352-11.48-3.598-12.156zm-1.315 6.122s-.176 1.244-.25 2.819l-.586-.088a32.51 32.51 0 00.836-2.731z">
                </path>
                <path
                    d="M37.824 47.158a2.616 2.616 0 002.933 3.307c2.007-.452 3.652-3.181 1.797-4.729s-4.007-1.014-4.73 1.422z">
                </path>
                <path
                    d="M40.67 46.922a1.133 1.133 0 00-.725 1.58M48.778 5.215a.967.967 0 00-.62 1.35M8.255 34.516c.277.524.58 1.057.906 1.598M11.331 11.938A18.406 18.406 0 007.25 17.13c-1.627 3.25-2.899 8.384-.053 15.159M16.85 8.383c-.915.362-1.794.812-2.623 1.344M22.364 51.272l-2.741 3.377">
                </path>
                <path d="M65.57 52.091c-.683.272-1.382.506-2.092.698M73.965 45.185a16.827 16.827 0 01-5.307 5.33">
                </path>
                <path d="M33.636 5.808c.365.021.73.049 1.094.082M19.85 7.333A46.863 46.863 0 0132.1 5.752"></path>
            </g>
        </g>
    </symbol>
</svg>